SplineFontDB: 3.2
FontName: SeriousShanns
FullName: Serious Shanns
FamilyName: Serious Shanns
Weight: Book
Copyright: https://github.com/kaBeech/serious-shanns/blob/main/LICENSE
Version: 6.0.0
ItalicAngle: 0
UnderlinePosition: 0
UnderlineWidth: 0
Ascent: 800
Descent: 200
InvalidEm: 0
sfntRevision: 0x00003333
LayerCount: 2
Layer: 0 0 "Back" 1
Layer: 1 0 "Fore" 0
XUID: [1021 45 630387186 12505762]
StyleMap: 0x0040
FSType: 0
OS2Version: 3
OS2_WeightWidthSlopeOnly: 0
OS2_UseTypoMetrics: 0
CreationTime: 1532631502
ModificationTime: 315532800
PfmFamily: 49
TTFWeight: 400
TTFWidth: 5
LineGap: 0
VLineGap: 0
Panose: 0 0 0 0 0 0 0 0 0 0
OS2TypoAscent: 613
OS2TypoAOffset: 0
OS2TypoDescent: -188
OS2TypoDOffset: 0
OS2TypoLinegap: 98
OS2WinAscent: 778
OS2WinAOffset: 0
OS2WinDescent: 308
OS2WinDOffset: 0
HheadAscent: 796
HheadAOffset: 0
HheadDescent: -317
HheadDOffset: 0
OS2SubXSize: 317
OS2SubYSize: 293
OS2SubXOff: 0
OS2SubYOff: 37
OS2SupXSize: 317
OS2SupYSize: 293
OS2SupXOff: 0
OS2SupYOff: 171
OS2StrikeYSize: 0
OS2StrikeYPos: 132
OS2CapHeight: 576
OS2XHeight: 485
OS2Vendor: 'NONE'
OS2CodePages: 00000001.00000000
OS2UnicodeRanges: 00000001.00000000.00000000.00000000
MarkAttachClasses: 1
DEI: 91125
LangName: 1033 "" "" "Normal" "FontForge 2.0 : Serious Shanns : 11-6-2024" "" "Version 0.2.0"
Encoding: UnicodeBmp
Compacted: 1
UnicodeInterp: none
NameList: AGL For New Fonts
DisplaySize: -48
AntiAlias: 1
FitToEm: 0
WinInfo: 0 16 11
BeginPrivate: 8
BlueValues 32 [-40 -6 502 523 708 718 765 769]
OtherBlues 11 [-297 -287]
BlueScale 9 0.0291667
BlueShift 1 2
StdHW 4 [85]
StdVW 4 [96]
StemSnapH 7 [65 85]
StemSnapV 4 [96]
EndPrivate
BeginChars: 65537 97

StartChar: .notdef
Encoding: 65536 -1 0
Width: 548
VWidth: 886
GlyphClass: 1
Flags: W
HStem: -191.725 45.8994<160.15 433> 626.825 45.8994<160.15 433>
VStem: 115.1 45.0508<-145.825 626.825> 433 45.9004<-145.825 626.825>
LayerCount: 2
Fore
SplineSet
115.099609375 -191.724609375 m 1
 115.099609375 672.724609375 l 1
 478.900390625 672.724609375 l 1
 478.900390625 -191.724609375 l 1
 115.099609375 -191.724609375 l 1
160.150390625 -145.825195312 m 1
 433 -145.825195312 l 1
 433 626.825195312 l 1
 160.150390625 626.825195312 l 1
 160.150390625 -145.825195312 l 1
EndSplineSet
Validated: 1
EndChar

StartChar: exclam
Encoding: 33 33 1
Width: 548
VWidth: 907
GlyphClass: 2
Flags: HMW
HStem: 36.5258 130.571
VStem: 227.297 139.401 262.147 78.5278
LayerCount: 2
Fore
SplineSet
347.149414062 684.712890625 m 0xa0
 347.149414062 679.612304688 345.873046875 642.35546875 343.323242188 572.938476562 c 0
 341.557617188 524.879882812 340.674804688 483.000976562 340.674804688 447.30078125 c 0
 340.674804688 431.434570312 340.849609375 416.7890625 341.198242188 403.36328125 c 0
 341.763671875 382.11328125 342.046875 365.149414062 342.046875 352.469726562 c 0
 342.046875 339.790039062 341.763671875 331.396484375 341.197265625 327.287109375 c 0
 340.44140625 321.810546875 340.064453125 314.131835938 340.064453125 304.25 c 0
 340.064453125 299.305664062 340.159179688 293.809570312 340.34765625 287.762695312 c 0
 339.21484375 275.295898438 334.3984375 265.520507812 325.8984375 258.4375 c 0
 318.028320312 251.87890625 308.700195312 248.600585938 297.916015625 248.600585938 c 0
 297.052734375 248.600585938 296.180664062 248.62109375 295.298828125 248.663085938 c 0
 283.965820312 248.663085938 274.616210938 252.346679688 267.249023438 259.713867188 c 0
 260.864257812 266.098632812 257.670898438 275.037109375 257.670898438 286.530273438 c 0
 257.670898438 288.297851562 257.747070312 290.125976562 257.8984375 292.014648438 c 0
 258.46484375 300.514648438 259.314453125 308.731445312 260.448242188 316.6640625 c 0
 261.581054688 324.59765625 262.2890625 331.254882812 262.572265625 336.638671875 c 0
 262.85546875 342.021484375 263.280273438 354.771484375 263.846679688 374.888671875 c 0
 263.989257812 379.91796875 264.059570312 385.310546875 264.059570312 391.06640625 c 0
 264.059570312 408.33203125 263.421875 428.864257812 262.147460938 452.663085938 c 0
 261.580078125 474.763671875 261.155273438 498.138671875 260.872070312 522.788085938 c 0
 260.77734375 530.997070312 260.73046875 538.75 260.73046875 546.046875 c 0
 260.73046875 560.663085938 260.919921875 573.452148438 261.297851562 584.412109375 c 0
 261.865234375 600.845703125 262.431640625 619.545898438 262.999023438 640.512695312 c 0
 263.565429688 661.479492188 263.848632812 675.362304688 263.848632812 682.162109375 c 0
 264.416015625 697.462890625 268.807617188 709.079101562 277.024414062 717.012695312 c 0
 285.241210938 724.9453125 295.299804688 728.912109375 307.19921875 728.912109375 c 0
 308.049804688 728.953125 308.887695312 728.973632812 309.715820312 728.973632812 c 0
 320.463867188 728.973632812 329.258789062 725.553710938 336.099609375 718.712890625 c 0
 343.466796875 711.345703125 347.149414062 700.012695312 347.149414062 684.712890625 c 0xa0
298.698242188 37.013671875 m 0
 295.701171875 36.689453125 292.783203125 36.52734375 289.942382812 36.52734375 c 0
 272.909179688 36.52734375 258.685546875 42.3544921875 247.272460938 54.009765625 c 0
 233.955078125 67.6103515625 227.296875 84.04296875 227.296875 103.310546875 c 0
 227.296875 120.310546875 234.805664062 135.04296875 249.822265625 147.509765625 c 0
 264.838867188 159.9765625 281.130859375 166.494140625 298.698242188 167.060546875 c 0
 299.579101562 167.0859375 300.454101562 167.098632812 301.322265625 167.098632812 c 0
 319.97265625 167.098632812 335.389648438 161.27734375 347.573242188 149.63671875 c 0
 360.323242188 137.454101562 366.698242188 122.295898438 366.698242188 104.162109375 c 0xc0
 366.698242188 86.029296875 360.46484375 70.87109375 347.998046875 58.6884765625 c 0
 335.53125 46.5048828125 319.09765625 39.2802734375 298.698242188 37.013671875 c 0
EndSplineSet
Validated: 1
EndChar

StartChar: quotedbl
Encoding: 34 34 2
Width: 548
VWidth: 941
GlyphClass: 2
Flags: HMW
VStem: 186.998 86.2121 321.258 87.9537
LayerCount: 2
Fore
SplineSet
274.063476562 718.748046875 m 0
 274.251953125 711.01953125 274.345703125 701.646484375 274.345703125 690.626953125 c 0
 274.345703125 668.516601562 273.965820312 639.78125 273.209960938 604.420898438 c 0
 272.077148438 551.438476562 270.09375 515.030273438 267.260742188 495.197265625 c 0
 265.560546875 483.864257812 260.744140625 475.364257812 252.810546875 469.697265625 c 0
 245.598632812 464.545898438 237.684570312 461.969726562 229.068359375 461.969726562 c 0
 228.20703125 461.969726562 227.337890625 461.99609375 226.461914062 462.046875 c 0
 215.12890625 462.614257812 205.071289062 466.15625 196.288085938 472.672851562 c 0
 188.508789062 478.4453125 184.619140625 486.328125 184.619140625 496.323242188 c 0
 184.619140625 499.913085938 186.999023438 526.419921875 186.999023438 592.73046875 c 0
 186.999023438 598.869140625 186.978515625 605.173828125 186.938476562 611.647460938 c 0
 186.655273438 656.98046875 185.663085938 694.379882812 183.962890625 723.846679688 c 0
 183.396484375 730.647460938 184.670898438 736.455078125 187.788085938 741.272460938 c 0
 190.905273438 746.088867188 195.012695312 749.630859375 200.11328125 751.897460938 c 0
 205.212890625 754.165039062 210.455078125 755.72265625 215.837890625 756.573242188 c 0
 221.220703125 757.422851562 226.462890625 757.564453125 231.563476562 756.998046875 c 0
 236.663085938 756.998046875 241.48046875 756.430664062 246.012695312 755.297851562 c 0
 250.545898438 754.165039062 254.938476562 752.323242188 259.188476562 749.772460938 c 0
 263.438476562 747.22265625 266.98046875 743.255859375 269.813476562 737.873046875 c 0
 272.646484375 732.490234375 274.063476562 726.115234375 274.063476562 718.748046875 c 0
410.059570312 718.745117188 m 0
 410.249023438 710.9921875 410.342773438 701.583007812 410.342773438 690.516601562 c 0
 410.342773438 668.419921875 409.965820312 639.720703125 409.211914062 604.418945312 c 0
 408.078125 551.435546875 406.377929688 515.02734375 404.111328125 495.194335938 c 0
 402.411132812 483.861328125 397.453125 475.361328125 389.236328125 469.694335938 c 0
 381.766601562 464.54296875 373.9453125 461.967773438 365.7734375 461.967773438 c 0
 364.956054688 461.967773438 364.134765625 461.993164062 363.310546875 462.044921875 c 0
 351.977539062 462.611328125 341.77734375 466.153320312 332.7109375 472.670898438 c 0
 325.075195312 478.158203125 321.2578125 485.553710938 321.2578125 494.859375 c 0
 321.2578125 496.604492188 321.392578125 498.416015625 321.66015625 500.295898438 c 0
 322.935546875 521.969726562 323.573242188 548.265625 323.573242188 579.182617188 c 0
 323.573242188 589.490234375 323.502929688 600.310546875 323.360351562 611.64453125 c 0
 322.793945312 656.977539062 321.66015625 694.377929688 319.9609375 723.844726562 c 0
 319.9609375 730.64453125 321.518554688 736.453125 324.635742188 741.26953125 c 0
 327.752929688 746.086914062 331.860351562 749.62890625 336.9609375 751.895507812 c 0
 342.060546875 754.162109375 347.16015625 755.720703125 352.260742188 756.5703125 c 0
 357.360351562 757.420898438 362.4609375 757.5625 367.560546875 756.995117188 c 0
 372.66015625 756.995117188 377.477539062 756.428710938 382.010742188 755.295898438 c 0
 386.543945312 754.162109375 391.077148438 752.3203125 395.609375 749.770507812 c 0
 400.142578125 747.220703125 403.684570312 743.25390625 406.234375 737.870117188 c 0
 408.78515625 732.487304688 410.059570312 726.112304688 410.059570312 718.745117188 c 0
EndSplineSet
Validated: 1
EndChar

StartChar: numbersign
Encoding: 35 35 3
Width: 548
VWidth: 904
GlyphClass: 2
Flags: HMW
HStem: 217.396 69.7 432.446 71.4 647.213 17G
LayerCount: 2
Fore
SplineSet
200.09375 89.8955078125 m 0
 196.126953125 77.99609375 187.909179688 68.2197265625 175.442382812 60.5693359375 c 0
 166.810546875 55.2734375 158.587890625 52.6259765625 150.771484375 52.6259765625 c 0
 147.297851562 52.6259765625 143.904296875 53.1484375 140.591796875 54.1943359375 c 0
 129.82421875 56.4619140625 121.891601562 63.6865234375 116.791015625 75.8701171875 c 0
 114.090820312 82.3193359375 112.741210938 89.126953125 112.741210938 96.291015625 c 0
 112.741210938 102.66015625 113.807617188 109.310546875 115.94140625 116.244140625 c 0
 120.474609375 131.543945312 128.407226562 164.411132812 139.740234375 214.84375 c 1
 114.240234375 214.84375 l 2
 100.073242188 214.84375 89.306640625 217.676757812 81.939453125 223.34375 c 0
 71.1064453125 231.676757812 70.82421875 242.190429688 70.82421875 248.618164062 c 0
 70.82421875 257.791015625 73.962890625 265.516601562 80.2392578125 271.793945312 c 0
 87.0400390625 278.59375 97.806640625 282.560546875 112.540039062 283.694335938 c 0
 117.072265625 283.694335938 124.014648438 283.8359375 133.364257812 284.119140625 c 0
 142.71484375 284.40234375 149.65625 284.543945312 154.189453125 284.543945312 c 1
 183.08984375 431.59375 l 1
 178.556640625 431.59375 172.323242188 431.452148438 164.390625 431.168945312 c 0
 156.45703125 430.885742188 151.07421875 430.744140625 148.241210938 430.744140625 c 0
 147.107421875 430.698242188 145.994140625 430.67578125 144.90234375 430.67578125 c 0
 132.348632812 430.67578125 122.553710938 433.672851562 115.516601562 439.668945312 c 0
 104.248046875 449.267578125 103.979492188 459.853515625 103.979492188 466.056640625 c 0
 103.979492188 475.321289062 107.399414062 483.241210938 114.240234375 489.818359375 c 0
 121.607421875 496.901367188 132.657226562 500.7265625 147.390625 501.29296875 c 0
 158.157226562 501.860351562 174.590820312 502.143554688 196.690429688 502.143554688 c 1
 212.557617188 587.709960938 220.774414062 631.91015625 221.341796875 634.743164062 c 0
 225.874023438 648.91015625 232.95703125 658.827148438 242.590820312 664.494140625 c 0
 249.012695312 668.272460938 255.561523438 670.162109375 262.236328125 670.162109375 c 0
 265.573242188 670.162109375 268.94140625 669.689453125 272.341796875 668.745117188 c 0
 284.241210938 666.477539062 293.44921875 660.810546875 299.966796875 651.744140625 c 0
 304.508789062 645.424804688 306.779296875 637.728515625 306.779296875 628.657226562 c 0
 306.779296875 624.712890625 306.350585938 620.508789062 305.4921875 616.044921875 c 2
 282.541992188 503.844726562 l 1
 378.591796875 503.844726562 l 1
 401.541992188 627.944335938 l 2
 406.075195312 642.677734375 413.017578125 652.877929688 422.3671875 658.544921875 c 0
 428.6015625 662.323242188 435.275390625 664.212890625 442.391601562 664.212890625 c 0
 445.948242188 664.212890625 449.615234375 663.740234375 453.392578125 662.795898438 c 0
 465.860351562 660.528320312 475.209960938 654.861328125 481.443359375 645.794921875 c 0
 485.4765625 639.927734375 487.493164062 632.875 487.493164062 624.635742188 c 0
 487.493164062 620.141601562 486.893554688 615.293945312 485.693359375 610.094726562 c 0
 479.459960938 586.294921875 472.376953125 551.444335938 464.443359375 505.544921875 c 1
 473.793945312 505.544921875 l 2
 487.393554688 505.544921875 498.869140625 501.719726562 508.21875 494.069335938 c 0
 517.568359375 486.419921875 522.52734375 478.344726562 523.09375 469.844726562 c 0
 523.09375 459.64453125 519.693359375 451.002929688 512.893554688 443.919921875 c 0
 506.09375 436.836914062 495.610351562 433.01171875 481.443359375 432.444335938 c 2
 450.84375 432.444335938 l 1
 426.193359375 287.094726562 l 1
 461.043945312 287.094726562 l 2
 474.077148438 287.094726562 483.143554688 284.120117188 488.244140625 278.169921875 c 0
 493.34375 272.219726562 496.176757812 264.427734375 496.744140625 254.794921875 c 0
 496.744140625 229.861328125 484.84375 217.39453125 461.043945312 217.39453125 c 2
 413.443359375 217.39453125 l 1
 402.110351562 152.794921875 393.893554688 109.162109375 388.793945312 86.4951171875 c 0
 384.260742188 74.5947265625 376.185546875 65.38671875 364.568359375 58.8701171875 c 0
 356.934570312 54.587890625 349.361328125 52.4462890625 341.850585938 52.4462890625 c 0
 337.931640625 52.4462890625 334.029296875 53.029296875 330.143554688 54.1943359375 c 0
 319.376953125 56.4619140625 311.443359375 63.1201171875 306.34375 74.169921875 c 0
 303.643554688 80.01953125 302.293945312 86.306640625 302.293945312 93.0302734375 c 0
 302.293945312 99.0068359375 303.360351562 105.328125 305.494140625 111.99609375 c 0
 311.161132812 134.662109375 318.52734375 169.512695312 327.594726562 216.545898438 c 1
 315.694335938 216.545898438 298.412109375 216.403320312 275.745117188 216.12109375 c 0
 253.078125 215.837890625 236.360351562 215.6953125 225.59375 215.6953125 c 1
 213.693359375 154.49609375 205.193359375 112.5625 200.09375 89.8955078125 c 0
268.943359375 432.444335938 m 1
 239.193359375 287.09375 l 1
 262.426757812 287.661132812 295.860351562 287.944335938 339.493164062 287.944335938 c 1
 348.559570312 334.411132812 357.342773438 382.578125 365.842773438 432.444335938 c 1
 268.943359375 432.444335938 l 1
EndSplineSet
Validated: 1
EndChar

StartChar: dollar
Encoding: 36 36 4
Width: 548
VWidth: 901
GlyphClass: 2
Flags: HMW
HStem: 26.5075 72.2442 597.7 67.1517
VStem: 104.974 78.2009 264.774 73.9509 426.276 79.0491
LayerCount: 2
Fore
SplineSet
332.775390625 -32.998046875 m 0
 331.641601562 -45.46484375 326.825195312 -55.0927734375 318.325195312 -61.892578125 c 0
 309.825195312 -68.6923828125 299.908203125 -72.0927734375 288.575195312 -72.0927734375 c 0
 277.807617188 -72.0927734375 269.733398438 -68.267578125 264.349609375 -60.6171875 c 0
 259.903320312 -54.2978515625 257.6796875 -45.7548828125 257.6796875 -34.98828125 c 0
 257.6796875 -32.7216796875 257.778320312 -30.3564453125 257.974609375 -27.8935546875 c 0
 258.73046875 -18.8291015625 259.108398438 -7.7509765625 259.108398438 5.341796875 c 0
 259.108398438 11.892578125 259.013671875 18.947265625 258.82421875 26.5068359375 c 1
 256.274414062 26.5068359375 l 2
 235.874023438 26.5068359375 216.749023438 29.056640625 198.899414062 34.1572265625 c 0
 181.048828125 39.2568359375 165.749023438 46.056640625 152.999023438 54.556640625 c 0
 140.249023438 63.056640625 129.19921875 72.1240234375 119.848632812 81.7568359375 c 0
 110.499023438 91.3896484375 102.991210938 101.873046875 97.32421875 113.206054688 c 0
 92.2236328125 124.680664062 89.673828125 134.5625 89.673828125 142.849609375 c 0
 89.673828125 145.612304688 89.95703125 148.198242188 90.5244140625 150.60546875 c 0
 92.791015625 160.239257812 98.7412109375 167.322265625 108.374023438 171.85546875 c 0
 115.173828125 174.688476562 120.557617188 176.670898438 124.524414062 177.8046875 c 0
 128.491210938 178.9375 132.8828125 179.220703125 137.700195312 178.653320312 c 0
 142.516601562 178.086914062 147.19140625 175.819335938 151.724609375 171.852539062 c 0
 156.2578125 167.885742188 161.075195312 162.21875 166.174804688 154.8515625 c 0
 177.5078125 137.28515625 190.541015625 123.54296875 205.274414062 113.625976562 c 0
 220.006835938 103.708984375 237.857421875 98.7509765625 258.82421875 98.7509765625 c 2
 262.223632812 98.7509765625 l 1
 263.357421875 193.383789062 263.923828125 277.817382812 263.923828125 352.049804688 c 1
 261.090820312 352.049804688 256.1328125 352.6171875 249.049804688 353.75 c 0
 241.966796875 354.8828125 236.724609375 355.450195312 233.325195312 355.450195312 c 0
 212.924804688 357.716796875 194.224609375 363.099609375 177.224609375 371.599609375 c 0
 160.224609375 380.099609375 146.766601562 390.442382812 136.849609375 402.625 c 0
 126.932617188 414.80859375 119.140625 427.55859375 113.473632812 440.875 c 0
 107.807617188 454.192382812 104.973632812 467.650390625 104.973632812 481.25 c 0
 104.973632812 501.650390625 108.090820312 521.200195312 114.32421875 539.900390625 c 0
 120.557617188 558.599609375 130.048828125 576.025390625 142.798828125 592.174804688 c 0
 155.548828125 608.325195312 172.124023438 622.208007812 192.524414062 633.825195312 c 0
 212.923828125 645.442382812 237.006835938 653.516601562 264.774414062 658.049804688 c 1
 265.340820312 671.650390625 265.624023438 688.083007812 265.624023438 707.349609375 c 0
 266.19140625 738.516601562 277.807617188 754.099609375 300.474609375 754.099609375 c 0
 300.947265625 754.111328125 301.415039062 754.116210938 301.879882812 754.116210938 c 0
 326.443359375 754.116210938 338.724609375 739.377929688 338.724609375 709.901367188 c 2
 338.724609375 664.850585938 l 1
 351.19140625 664.284179688 368.6171875 661.451171875 391 656.350585938 c 0
 413.3828125 651.250976562 429.958007812 646.43359375 440.724609375 641.901367188 c 0
 451.4921875 637.93359375 459.141601562 631.701171875 463.674804688 623.201171875 c 0
 467.301757812 616.401367188 469.114257812 609.23828125 469.114257812 601.712890625 c 0
 469.114257812 599.83203125 469.001953125 597.928710938 468.775390625 596.001953125 c 0
 468.208007812 589.202148438 466.083007812 583.959960938 462.400390625 580.276367188 c 0
 458.716796875 576.59375 454.18359375 574.327148438 448.80078125 573.4765625 c 0
 443.41796875 572.626953125 438.317382812 572.484375 433.500976562 573.051757812 c 0
 428.68359375 573.619140625 423.44140625 574.46875 417.775390625 575.6015625 c 0
 412.674804688 576.734375 406.299804688 579.142578125 398.650390625 582.826171875 c 0
 391 586.508789062 382.358398438 589.766601562 372.724609375 592.599609375 c 0
 363.091796875 595.43359375 351.474609375 597.1328125 337.875 597.700195312 c 1
 337.307617188 552.3671875 336.174804688 492.299804688 334.474609375 417.5 c 1
 360.541992188 414.099609375 383.775390625 408.0078125 404.174804688 399.224609375 c 0
 424.575195312 390.442382812 440.8671875 380.383789062 453.049804688 369.05078125 c 0
 465.233398438 357.717773438 475.575195312 344.684570312 484.075195312 329.952148438 c 0
 492.575195312 315.21875 498.2421875 300.768554688 501.075195312 286.6015625 c 0
 503.908203125 272.434570312 505.325195312 257.702148438 505.325195312 242.401367188 c 0
 505.325195312 216.334960938 500.932617188 191.684570312 492.150390625 168.452148438 c 0
 483.3671875 145.21875 471.041992188 125.1015625 455.174804688 108.1015625 c 0
 439.307617188 91.1015625 420.890625 76.369140625 399.923828125 63.9013671875 c 0
 378.95703125 51.4345703125 356.006835938 42.0849609375 331.07421875 35.8515625 c 1
 331.640625 1.8515625 332.208007812 -21.0986328125 332.775390625 -32.998046875 c 0
183.174804688 502.5078125 m 0
 183.174804688 484.375 190.400390625 468.5078125 204.850585938 454.907226562 c 0
 219.30078125 441.307617188 238.993164062 431.674804688 263.92578125 426.0078125 c 1
 264.493164062 465.107421875 264.775390625 519.5078125 264.775390625 589.208007812 c 1
 240.409179688 581.840820312 220.716796875 570.791015625 205.700195312 556.057617188 c 0
 190.682617188 541.32421875 183.174804688 523.474609375 183.174804688 502.5078125 c 0
426.275390625 227.958007812 m 0
 426.275390625 238.724609375 424.857421875 248.641601562 422.024414062 257.708007812 c 0
 419.19140625 266.775390625 414.658203125 276.267578125 408.424804688 286.184570312 c 0
 402.19140625 296.1015625 392.841796875 305.309570312 380.375 313.809570312 c 0
 367.908203125 322.309570312 352.325195312 329.67578125 333.625 335.909179688 c 1
 333.625 310.9765625 333.483398438 273.434570312 333.200195312 223.284179688 c 0
 332.916992188 173.133789062 332.208984375 136.7265625 331.076171875 114.059570312 c 1
 358.275390625 125.392578125 380.942382812 140.975585938 399.076171875 160.80859375 c 0
 417.208984375 180.641601562 426.275390625 203.024414062 426.275390625 227.958007812 c 0
EndSplineSet
Validated: 1
EndChar

StartChar: percent
Encoding: 37 37 5
Width: 548
VWidth: 899
GlyphClass: 2
Flags: HMW
HStem: 25.1899 64.5771 194.366 62.9 416.217 63.75<184.782 191.865 184.782 194.131> 586.217 62.05
VStem: 76.8322 61.1311 229.885 59.7559 304.573 61.1932 405.78 75.5471 455.947 60.9723
LayerCount: 2
Fore
SplineSet
175.431640625 416.216796875 m 0xfe
 155.598632812 416.216796875 137.890625 421.741210938 122.307617188 432.791992188 c 0
 106.723632812 443.841796875 95.2490234375 457.724609375 87.8818359375 474.44140625 c 0
 80.515625 491.158203125 76.83203125 509.150390625 76.83203125 528.416992188 c 0
 76.83203125 563.55078125 86.607421875 592.30859375 106.157226562 614.69140625 c 0
 125.70703125 637.07421875 153.33203125 648.266601562 189.032226562 648.266601562 c 0
 203.19921875 648.266601562 216.374023438 645.858398438 228.557617188 641.041992188 c 0
 240.740234375 636.224609375 251.6484375 629 261.28125 619.366210938 c 0
 270.9140625 609.733398438 278.28125 596.55859375 283.380859375 579.841796875 c 0
 287.553710938 566.163085938 289.639648438 550.684570312 289.639648438 533.40234375 c 0
 289.639648438 529.5625 289.537109375 525.633789062 289.331054688 521.616210938 c 0
 287.630859375 487.049804688 277.573242188 460.841796875 259.15625 442.991210938 c 0
 240.739257812 425.141601562 212.831054688 416.216796875 175.431640625 416.216796875 c 0xfe
98.0810546875 65.1669921875 m 0
 109.981445312 89.533203125 138.173828125 140.67578125 182.657226562 218.592773438 c 0
 227.140625 296.509765625 271.623046875 375.134765625 316.106445312 454.467773438 c 0
 360.58984375 533.80078125 390.481445312 590.467773438 405.78125 624.467773438 c 0
 412.581054688 634.666992188 421.505859375 641.041992188 432.556640625 643.592773438 c 0
 435.985351562 644.383789062 439.346679688 644.779296875 442.639648438 644.779296875 c 0
 449.956054688 644.779296875 456.9375 642.825195312 463.580078125 638.916992188 c 0
 469.250976562 636.397460938 481.327148438 629.958007812 481.327148438 614.823242188 c 0xff
 481.327148438 606.897460938 477.962890625 597.645507812 471.231445312 587.068359375 c 0
 450.264648438 552.500976562 400.255859375 464.384765625 321.206054688 322.717773438 c 0
 242.15625 181.05078125 189.880859375 85.283203125 164.380859375 35.4169921875 c 0
 153.501953125 15.330078125 141.231445312 5.287109375 127.5703125 5.287109375 c 0
 122.732421875 5.287109375 117.719726562 6.546875 112.532226562 9.06640625 c 0
 98.140625 15.9033203125 90.9443359375 25.9375 90.9443359375 39.1689453125 c 0
 90.9443359375 46.77734375 93.3232421875 55.443359375 98.0810546875 65.1669921875 c 0
184.782226562 479.966796875 m 0
 198.94921875 479.966796875 209.573242188 484.5 216.65625 493.56640625 c 0
 227.256835938 507.134765625 229.885742188 525.888671875 229.885742188 533.669921875 c 0
 229.885742188 551.134765625 225.901367188 564.1171875 217.932617188 572.6171875 c 0
 209.432617188 581.684570312 197.532226562 586.217773438 182.232421875 586.217773438 c 0
 168.631835938 586.217773438 158.149414062 581.259765625 150.782226562 571.342773438 c 0
 148.301757812 568.002929688 137.963867188 552.568359375 137.963867188 527.227539062 c 0
 137.963867188 513.172851562 140.961914062 502.236328125 146.95703125 494.416992188 c 0
 153.473632812 485.916992188 166.08203125 481.099609375 184.782226562 479.966796875 c 0
402.380859375 25.216796875 m 0
 382.547851562 25.216796875 364.981445312 30.7412109375 349.681640625 41.7919921875 c 0
 334.380859375 52.841796875 322.90625 66.724609375 315.255859375 83.44140625 c 0
 308.133789062 99.005859375 304.572265625 115.673828125 304.572265625 133.448242188 c 0
 304.572265625 152.983398438 305.572265625 191.2109375 333.53125 223.69140625 c 0
 352.797851562 246.07421875 380.28125 257.266601562 415.981445312 257.266601562 c 0
 430.1484375 257.266601562 443.323242188 255 455.505859375 250.466796875 c 0
 467.689453125 245.93359375 478.739257812 238.708007812 488.65625 228.791992188 c 0
 498.573242188 218.875 506.081054688 205.557617188 511.181640625 188.840820312 c 0
 515.005859375 176.302734375 516.918945312 162.251953125 516.918945312 146.685546875 c 0xfe80
 516.918945312 141.497070312 516.706054688 136.140625 516.28125 130.615234375 c 0
 514.581054688 96.048828125 504.5234375 69.69921875 486.106445312 51.5654296875 c 0
 468.248046875 33.982421875 441.46484375 25.1904296875 405.756835938 25.1904296875 c 0
 404.639648438 25.1904296875 403.515625 25.19921875 402.380859375 25.216796875 c 0
411.731445312 89.81640625 m 0
 412.508789062 89.7841796875 413.275390625 89.76953125 414.032226562 89.76953125 c 0
 426.51953125 89.76953125 436.235351562 94.1767578125 443.181640625 102.9921875 c 0
 444.349609375 104.474609375 455.946289062 119.73046875 455.946289062 141.07421875 c 0
 455.946289062 176.602539062 440.641601562 194.3671875 410.03125 194.3671875 c 0
 396.998046875 194.3671875 386.65625 189.409179688 379.005859375 179.4921875 c 0
 376.330078125 176.022460938 365.765625 160.786132812 365.765625 136.4921875 c 0
 365.765625 122.833007812 368.904296875 111.94921875 375.181640625 103.841796875 c 0
 381.981445312 95.05859375 394.1640625 90.3837890625 411.731445312 89.81640625 c 0
EndSplineSet
Validated: 1
EndChar

StartChar: ampersand
Encoding: 38 38 6
Width: 548
VWidth: 901
GlyphClass: 2
Flags: HMW
HStem: 15.4518 79.8983 16.8298 17.85G 599.401 67.15
VStem: 76.7959 85.8474 150.745 81.5983 349.643 70.5517
LayerCount: 2
Fore
SplineSet
488.193359375 21.400390625 m 0xac
 483.20703125 18.3525390625 477.916992188 16.8291015625 472.321289062 16.8291015625 c 0x6c
 466.470703125 16.8291015625 460.286132812 18.4951171875 453.768554688 21.826171875 c 0
 441.018554688 28.3427734375 429.826171875 39.53515625 420.193359375 55.4013671875 c 0
 419.060546875 58.234375 415.802734375 66.734375 410.418945312 80.9013671875 c 0
 405.036132812 95.068359375 400.927734375 105.268554688 398.094726562 111.501953125 c 1
 396.395507812 109.234375 392.711914062 104.41796875 387.044921875 97.05078125 c 0
 381.377929688 89.68359375 377.127929688 84.30078125 374.294921875 80.9013671875 c 0
 371.461914062 77.5009765625 366.928710938 72.4013671875 360.696289062 65.6005859375 c 0
 354.462890625 58.80078125 348.9375 53.55859375 344.12109375 49.8759765625 c 0
 339.303710938 46.1923828125 333.071289062 41.80078125 325.420898438 36.701171875 c 0
 317.770507812 31.6005859375 310.404296875 27.7763671875 303.321289062 25.2255859375 c 0
 296.23828125 22.67578125 287.73828125 20.4091796875 277.821289062 18.42578125 c 0
 267.904296875 16.4423828125 257.845703125 15.451171875 247.645507812 15.451171875 c 0
 215.913085938 15.451171875 186.87109375 23.66796875 160.520507812 40.1005859375 c 0
 134.170898438 56.5341796875 113.62890625 78.0673828125 98.8955078125 104.700195312 c 0
 84.1630859375 131.333007812 76.7958984375 160.233398438 76.7958984375 191.400390625 c 0xb4
 76.7958984375 298.5 120.99609375 371.317382812 209.395507812 409.849609375 c 1
 204.295898438 418.349609375 198.204101562 428.549804688 191.12109375 440.450195312 c 0
 184.038085938 452.349609375 178.795898438 460.708007812 175.395507812 465.525390625 c 0
 171.99609375 470.341796875 168.3125 476.575195312 164.345703125 484.224609375 c 0
 160.37890625 491.875 157.6875 498.533203125 156.270507812 504.200195312 c 0
 154.853515625 509.8671875 153.578125 516.80859375 152.4453125 525.026367188 c 0
 151.3125 533.243164062 150.745117188 542.16796875 150.745117188 551.80078125 c 0
 150.745117188 562.000976562 152.020507812 572.05859375 154.5703125 581.975585938 c 0
 157.120117188 591.892578125 161.9375 602.092773438 169.020507812 612.576171875 c 0
 176.103515625 623.05859375 184.3203125 632.266601562 193.669921875 640.200195312 c 0
 203.020507812 648.1328125 215.770507812 654.5078125 231.919921875 659.325195312 c 0
 248.0703125 664.141601562 266.344726562 666.549804688 286.745117188 666.549804688 c 0
 303.177734375 666.549804688 319.328125 664 335.1953125 658.900390625 c 0
 351.0625 653.799804688 365.370117188 646.291992188 378.120117188 636.375 c 0
 390.870117188 626.458007812 401.0703125 613.424804688 408.719726562 597.275390625 c 0
 416.370117188 581.125 420.1953125 563.1328125 420.1953125 543.299804688 c 0
 420.1953125 525.166992188 417.927734375 508.30859375 413.395507812 492.725585938 c 0
 408.862304688 477.142578125 403.053710938 464.109375 395.970703125 453.626953125 c 0
 388.887695312 443.143554688 379.962890625 433.0859375 369.196289062 423.452148438 c 0
 358.428710938 413.819335938 348.51171875 406.169921875 339.4453125 400.502929688 c 0
 330.377929688 394.8359375 319.895507812 389.168945312 307.995117188 383.501953125 c 1
 318.1953125 365.934570312 335.478515625 339.868164062 359.844726562 305.30078125 c 0
 384.211914062 270.734375 399.794921875 247.784179688 406.594726562 236.451171875 c 1
 410.5625 244.383789062 415.094726562 253.591796875 420.1953125 264.075195312 c 0
 425.294921875 274.55859375 429.120117188 283.05859375 431.669921875 289.575195312 c 0
 434.219726562 296.091796875 436.627929688 300.766601562 438.895507812 303.599609375 c 0
 449.094726562 318.333007812 458.870117188 327.541015625 468.219726562 331.224609375 c 0
 471.903320312 332.674804688 475.6953125 333.400390625 479.598632812 333.400390625 c 0
 485.603515625 333.400390625 491.869140625 331.68359375 498.395507812 328.248046875 c 0
 508.028320312 323.715820312 513.8359375 315.357421875 515.819335938 303.173828125 c 0
 516.240234375 300.58984375 516.450195312 297.936523438 516.450195312 295.211914062 c 0
 516.450195312 285.091796875 513.547851562 274.004882812 507.743164062 261.94921875 c 0
 504.91015625 256.849609375 496.41015625 245.516601562 482.243164062 227.94921875 c 0
 468.076171875 210.381835938 456.743164062 194.232421875 448.243164062 179.499023438 c 1
 454.4765625 168.732421875 463.118164062 153.290039062 474.16796875 133.173828125 c 0
 485.21875 113.056640625 491.876953125 101.298828125 494.143554688 97.8984375 c 0
 501.03515625 86.8720703125 504.481445312 74.9130859375 504.481445312 62.0234375 c 0
 504.481445312 59.015625 504.293945312 55.9580078125 503.91796875 52.849609375 c 0
 501.935546875 36.416015625 496.693359375 25.93359375 488.193359375 21.400390625 c 0xac
232.344726562 537.349609375 m 0
 232.344726562 523.18359375 236.02734375 507.599609375 243.39453125 490.599609375 c 0
 250.760742188 473.599609375 259.828125 458.583007812 270.594726562 445.549804688 c 1
 283.0625 449.516601562 293.6875 453.625 302.469726562 457.875 c 0
 311.252929688 462.125 319.611328125 467.650390625 327.543945312 474.450195312 c 0
 335.477539062 481.25 341.14453125 489.608398438 344.543945312 499.525390625 c 0
 347.944335938 509.442382812 349.64453125 521.200195312 349.64453125 534.799804688 c 0
 349.64453125 555.766601562 343.26953125 571.775390625 330.51953125 582.825195312 c 0
 317.76953125 593.875 302.327148438 599.400390625 284.194335938 599.400390625 c 0
 249.626953125 599.400390625 232.344726562 578.716796875 232.344726562 537.349609375 c 0
162.64453125 199.049804688 m 0xb4
 162.64453125 169.583007812 170.575195312 144.932617188 186.442382812 125.099609375 c 0
 202.309570312 105.266601562 222.9921875 95.349609375 248.4921875 95.349609375 c 0
 256.42578125 95.349609375 264.217773438 96.19921875 271.8671875 97.8994140625 c 0
 279.517578125 99.599609375 286.034179688 101.298828125 291.41796875 102.999023438 c 0
 296.80078125 104.69921875 302.467773438 107.532226562 308.41796875 111.499023438 c 0
 314.3671875 115.465820312 319.04296875 118.724609375 322.442382812 121.274414062 c 0
 325.842773438 123.82421875 329.950195312 127.791015625 334.767578125 133.173828125 c 0
 339.584960938 138.557617188 342.701171875 142.381835938 344.118164062 144.649414062 c 0
 345.53515625 146.916015625 348.510742188 151.024414062 353.04296875 156.974609375 c 0
 357.576171875 162.923828125 360.126953125 166.465820312 360.693359375 167.599609375 c 0
 350.493164062 189.69921875 341.993164062 206.982421875 335.193359375 219.44921875 c 0
 328.393554688 232.482421875 314.651367188 253.732421875 293.96875 283.19921875 c 0
 273.28515625 312.666015625 258.693359375 334.483398438 250.193359375 348.650390625 c 1
 233.193359375 341.283203125 218.6015625 332.075195312 206.41796875 321.025390625 c 0
 194.235351562 309.974609375 185.02734375 297.791992188 178.793945312 284.474609375 c 0
 172.561523438 271.158203125 168.311523438 257.700195312 166.043945312 244.099609375 c 0
 163.77734375 230.5 162.64453125 215.483398438 162.64453125 199.049804688 c 0xb4
EndSplineSet
Validated: 1
EndChar

StartChar: quotesingle
Encoding: 39 39 7
Width: 548
VWidth: 941
GlyphClass: 2
Flags: HMW
HStem: 470.397 276.751
VStem: 251.977 90.3822
LayerCount: 2
Fore
SplineSet
342.075195312 710.172851562 m 0
 342.264648438 702.61328125 342.359375 693.68359375 342.359375 683.383789062 c 0
 342.359375 662.797851562 341.981445312 636.736328125 341.225585938 605.19921875 c 0
 340.092773438 557.881835938 338.110351562 524.307617188 335.27734375 504.473632812 c 0
 333.577148438 492.57421875 328.619140625 483.791015625 320.40234375 478.124023438 c 0
 312.931640625 472.97265625 305.111328125 470.396484375 296.938476562 470.396484375 c 0
 296.12109375 470.396484375 295.30078125 470.422851562 294.475585938 470.473632812 c 0
 283.142578125 471.041015625 273.084960938 474.723632812 264.301757812 481.524414062 c 0
 256.522460938 487.546875 252.6328125 495.5703125 252.6328125 505.594726562 c 0
 252.6328125 508.65234375 254.739257812 534.173828125 254.739257812 583.521484375 c 0
 254.739257812 592.58984375 254.668945312 601.940429688 254.52734375 611.57421875 c 0
 253.959960938 650.107421875 253.110351562 684.390625 251.9765625 714.422851562 c 0
 251.9765625 721.223632812 253.251953125 727.172851562 255.801757812 732.2734375 c 0
 258.3515625 737.373046875 262.318359375 740.915039062 267.702148438 742.8984375 c 0
 273.084960938 744.880859375 278.327148438 746.297851562 283.426757812 747.1484375 c 0
 288.52734375 747.998046875 293.626953125 748.140625 298.7265625 747.573242188 c 0
 303.827148438 747.573242188 308.643554688 747.005859375 313.176757812 745.873046875 c 0
 317.709960938 744.740234375 322.243164062 742.8984375 326.776367188 740.348632812 c 0
 331.30859375 737.797851562 334.9921875 733.973632812 337.825195312 728.873046875 c 0
 340.658203125 723.7734375 342.075195312 717.540039062 342.075195312 710.172851562 c 0
EndSplineSet
Validated: 1
EndChar

StartChar: parenleft
Encoding: 40 40 8
Width: 548
VWidth: 901
GlyphClass: 2
Flags: HMW
HStem: -60.1229 71.3983 674.277 68.85
VStem: 169.536 82.7746
LayerCount: 2
Fore
SplineSet
422.735351562 -27.82421875 m 0
 422.735351562 -36.8916015625 419.053710938 -44.5390625 411.686523438 -50.7724609375 c 0
 404.319335938 -57.0048828125 396.669921875 -60.1220703125 388.736328125 -60.1220703125 c 0
 350.76953125 -60.1220703125 316.344726562 -46.5224609375 285.4609375 -19.322265625 c 0
 254.578125 7.8779296875 229.361328125 45.560546875 209.811523438 93.7275390625 c 0
 190.26171875 141.89453125 177.653320312 197.427734375 171.986328125 260.328125 c 0
 170.352539062 277.362304688 169.536132812 296.509765625 169.536132812 317.770507812 c 0
 169.536132812 348.142578125 171.203125 382.828125 174.536132812 421.828125 c 0
 180.203125 488.127929688 191.252929688 542.810546875 207.686523438 585.877929688 c 0
 215.053710938 604.578125 224.828125 623.135742188 237.01171875 641.552734375 c 0
 249.194335938 659.969726562 263.077148438 676.828125 278.66015625 692.127929688 c 0
 294.243164062 707.427734375 311.810546875 719.752929688 331.360351562 729.102539062 c 0
 350.91015625 738.453125 370.318359375 743.127929688 389.5859375 743.127929688 c 0
 412.264648438 743.127929688 423.604492188 732.057617188 423.604492188 709.918945312 c 0
 423.604492188 703.594726562 423.48046875 690.345703125 413.384765625 682.352539062 c 0
 406.584960938 676.969726562 398.084960938 674.278320312 387.884765625 674.278320312 c 0
 373.151367188 674.278320312 359.41015625 670.028320312 346.66015625 661.528320312 c 0
 333.91015625 653.028320312 322.717773438 641.411132812 313.084960938 626.677734375 c 0
 303.451171875 611.9453125 295.09375 595.794921875 288.010742188 578.227539062 c 0
 280.927734375 560.661132812 274.8359375 541.677734375 269.735351562 521.278320312 c 0
 262.368164062 491.810546875 257.268554688 451.293945312 254.435546875 399.727539062 c 0
 253.01953125 373.943359375 252.311523438 350.568359375 252.311523438 329.6015625 c 0
 252.311523438 308.634765625 253.01953125 290.076171875 254.435546875 273.92578125 c 0
 257.268554688 239.359375 263.360351562 205.784179688 272.7109375 173.201171875 c 0
 282.060546875 140.618164062 292.96875 112.568359375 305.435546875 89.0517578125 c 0
 317.90234375 65.5341796875 331.502929688 46.6923828125 346.235351562 32.525390625 c 0
 360.96875 18.3583984375 375.135742188 11.275390625 388.735351562 11.275390625 c 0
 400.068359375 11.275390625 408.568359375 8.4423828125 414.235351562 2.775390625 c 0
 419.90234375 -2.8916015625 422.735351562 -13.091796875 422.735351562 -27.82421875 c 0
EndSplineSet
Validated: 1
EndChar

StartChar: parenright
Encoding: 41 41 9
Width: 548
VWidth: 901
GlyphClass: 2
Flags: HMW
HStem: -60.1296 71.4 674.273 68.8517
VStem: 340.105 84.361
LayerCount: 2
Fore
SplineSet
422.016601562 260.32421875 m 0
 415.783203125 197.424804688 402.89453125 141.887695312 383.344726562 93.720703125 c 0
 363.794921875 45.5537109375 338.719726562 7.8701171875 308.119140625 -19.3291015625 c 0
 277.51953125 -46.529296875 243.236328125 -60.1298828125 205.26953125 -60.1298828125 c 0
 197.336914062 -60.1298828125 189.686523438 -57.0126953125 182.319335938 -50.779296875 c 0
 174.953125 -44.546875 171.26953125 -36.896484375 171.26953125 -27.8291015625 c 0
 171.26953125 -13.0966796875 174.244140625 -2.896484375 180.194335938 2.7705078125 c 0
 186.14453125 8.4375 194.502929688 11.2705078125 205.26953125 11.2705078125 c 0
 218.302734375 11.2705078125 232.044921875 18.353515625 246.494140625 32.5205078125 c 0
 260.944335938 46.6875 274.40234375 65.529296875 286.869140625 89.0458984375 c 0
 299.336914062 112.563476562 310.38671875 140.754882812 320.01953125 173.622070312 c 0
 329.65234375 206.489257812 335.602539062 239.921875 337.869140625 273.921875 c 0
 339.360351562 290.922851562 340.10546875 310.591796875 340.10546875 332.928710938 c 0
 340.10546875 353.032226562 339.501953125 375.295898438 338.293945312 399.721679688 c 0
 335.744140625 451.2890625 330.501953125 491.805664062 322.568359375 521.2734375 c 0
 318.036132812 541.672851562 312.369140625 560.65625 305.568359375 578.22265625 c 0
 298.768554688 595.790039062 290.411132812 611.939453125 280.494140625 626.672851562 c 0
 270.577148438 641.40625 259.384765625 653.0234375 246.91796875 661.5234375 c 0
 234.451171875 670.0234375 221.133789062 674.2734375 206.966796875 674.2734375 c 0
 196.200195312 674.2734375 187.416992188 676.96484375 180.6171875 682.34765625 c 0
 173.817382812 687.731445312 170.416992188 696.373046875 170.416992188 708.2734375 c 0
 170.416992188 715.639648438 171.267578125 721.731445312 172.966796875 726.548828125 c 0
 174.666992188 731.366210938 177.642578125 734.907226562 181.892578125 737.174804688 c 0
 186.142578125 739.44140625 189.825195312 741 192.942382812 741.849609375 c 0
 196.05859375 742.69921875 199.883789062 743.125 204.416992188 743.125 c 0
 223.68359375 743.125 243.091796875 738.44921875 262.642578125 729.099609375 c 0
 282.192382812 719.75 299.6171875 707.424804688 314.916992188 692.125 c 0
 330.216796875 676.82421875 343.958984375 659.966796875 356.142578125 641.549804688 c 0
 368.325195312 623.1328125 378.3828125 604.57421875 386.31640625 585.875 c 0
 402.749023438 542.807617188 413.799804688 488.125 419.465820312 421.82421875 c 0
 422.799804688 382.825195312 424.466796875 348.139648438 424.466796875 317.766601562 c 0
 424.466796875 296.505859375 423.649414062 277.358398438 422.016601562 260.32421875 c 0
EndSplineSet
Validated: 1
EndChar

StartChar: asterisk
Encoding: 42 42 10
Width: 548
VWidth: 901
GlyphClass: 2
Flags: HMW
HStem: 301.041 88.3991 312.517 65.0251
LayerCount: 2
Fore
SplineSet
251.950195312 170.143554688 m 0x40
 249.682617188 163.342773438 245.85546875 158.2421875 240.47265625 154.841796875 c 0
 235.088867188 151.442382812 229.139648438 149.458984375 222.622070312 148.892578125 c 0
 216.10546875 148.325195312 209.872070312 148.75 203.921875 150.166992188 c 0
 197.97265625 151.583984375 192.73046875 153.42578125 188.197265625 155.693359375 c 0
 183.09765625 158.526367188 178.84765625 162.633789062 175.447265625 168.017578125 c 0
 172.046875 173.400390625 169.780273438 180.05859375 168.647460938 187.991210938 c 0
 167.514648438 195.924804688 169.213867188 204.141601562 173.747070312 212.641601562 c 2
 230.697265625 305.291015625 l 1
 184.23046875 302.458007812 149.947265625 301.041015625 127.84765625 301.041015625 c 0
 114.247070312 301.041015625 103.48046875 305.57421875 95.546875 314.641601562 c 0
 87.6142578125 323.708007812 83.6474609375 333.341796875 83.6474609375 343.541015625 c 0
 83.6474609375 348.641601562 84.35546875 353.883789062 85.7724609375 359.266601562 c 0
 87.189453125 364.649414062 89.314453125 369.749023438 92.1474609375 374.56640625 c 0
 94.98046875 379.383789062 99.3720703125 383.208007812 105.322265625 386.041015625 c 0
 111.272460938 388.874023438 117.930664062 390.0078125 125.296875 389.440429688 c 0x80
 151.364257812 387.173828125 189.897460938 384.340820312 240.897460938 380.940429688 c 1
 216.530273438 422.307617188 196.413085938 454.041015625 180.546875 476.140625 c 0
 173.815429688 487.19921875 170.450195312 498.052734375 170.450195312 508.704101562 c 0
 170.450195312 510.606445312 170.557617188 512.501953125 170.772460938 514.391601562 c 0
 172.189453125 526.858398438 177.431640625 535.075195312 186.498046875 539.041992188 c 0
 191.59765625 542.442382812 197.97265625 544.284179688 205.623046875 544.567382812 c 0
 213.2734375 544.850585938 221.065429688 542.725585938 228.998046875 538.192382812 c 0
 236.931640625 533.659179688 243.1640625 526.859375 247.697265625 517.791992188 c 0
 253.930664062 504.192382812 270.647460938 471.609375 297.84765625 420.041992188 c 1
 320.514648438 458.575195312 337.514648438 490.875 348.84765625 516.942382812 c 0
 352.814453125 526.008789062 358.622070312 532.809570312 366.272460938 537.341796875 c 0
 373.921875 541.875 381.2890625 544 388.372070312 543.716796875 c 0
 395.455078125 543.434570312 401.546875 541.309570312 406.647460938 537.341796875 c 0
 412.314453125 534.508789062 416.989257812 529.9765625 420.671875 523.743164062 c 0
 424.35546875 517.509765625 426.197265625 510.143554688 426.197265625 501.643554688 c 0
 426.197265625 493.143554688 423.364257812 484.92578125 417.697265625 476.993164062 c 0
 399.564453125 450.360351562 379.731445312 417.209960938 358.198242188 377.54296875 c 1
 407.498046875 377.54296875 442.630859375 380.66015625 463.59765625 386.893554688 c 0
 467.565429688 388.155273438 471.359375 388.786132812 474.981445312 388.786132812 c 0
 482.745117188 388.786132812 489.717773438 385.888671875 495.899414062 380.092773438 c 0
 504.965820312 371.592773438 509.783203125 362.526367188 510.349609375 352.893554688 c 0
 510.349609375 347.79296875 509.783203125 342.693359375 508.649414062 337.592773438 c 0
 507.516601562 332.493164062 505.533203125 327.393554688 502.700195312 322.29296875 c 0
 499.8671875 317.193359375 495.900390625 313.2265625 490.80078125 310.393554688 c 0
 485.700195312 307.559570312 479.467773438 306.993164062 472.100585938 308.693359375 c 0
 457.649414062 311.243164062 432.83984375 312.518554688 397.669921875 312.518554688 c 0
 385.947265625 312.518554688 373.07421875 312.375976562 359.049804688 312.092773438 c 1
 416 213.493164062 l 2
 421.078125 202.874023438 423.6171875 193.2890625 423.6171875 184.73828125 c 0
 423.6171875 182.793945312 423.486328125 180.904296875 423.223632812 179.067382812 c 0
 421.806640625 169.150390625 417.69921875 161.92578125 410.899414062 157.392578125 c 0
 405.232421875 153.9921875 398.006835938 152.008789062 389.223632812 151.442382812 c 0
 388.125976562 151.372070312 387.02734375 151.3359375 385.9296875 151.3359375 c 2
 362.875 156.541992188 l 2
 354.091796875 160.508789062 348.56640625 167.026367188 346.299804688 176.092773438 c 0
 338.932617188 198.759765625 323.916015625 231.342773438 301.249023438 273.842773438 c 1
 274.616210938 221.709960938 258.182617188 187.143554688 251.950195312 170.143554688 c 0x40
EndSplineSet
Validated: 1
EndChar

StartChar: plus
Encoding: 43 43 11
Width: 548
VWidth: 910
GlyphClass: 2
Flags: HMW
HStem: 365.837 67.3193
VStem: 261.297 68.8475
LayerCount: 2
Fore
SplineSet
330.14453125 272.5078125 m 0
 330.14453125 259.474609375 327.314453125 250.265625 321.647460938 244.8828125 c 0
 315.98046875 239.499023438 308.047851562 236.807617188 297.84765625 236.807617188 c 0
 273.48046875 236.807617188 261.297851562 248.70703125 261.297851562 272.5078125 c 2
 261.297851562 363.45703125 l 1
 249.96484375 363.45703125 234.665039062 363.315429688 215.397460938 363.032226562 c 0
 196.130859375 362.749023438 182.813476562 362.607421875 175.447265625 362.607421875 c 0
 161.280273438 362.607421875 150.796875 366.149414062 143.997070312 373.232421875 c 0
 134.102539062 383.5390625 133.731445312 394.581054688 133.731445312 401.61328125 c 0
 133.731445312 411.309570312 136.870117188 419.55859375 143.146484375 426.358398438 c 0
 149.4609375 433.19921875 158.951171875 436.619140625 171.616210938 436.619140625 c 0
 172.590820312 436.619140625 173.583984375 436.598632812 174.596679688 436.55859375 c 0
 214.263671875 435.424804688 243.1640625 434.858398438 261.296875 434.858398438 c 1
 261.296875 484.854492188 259.524414062 526.295898438 259.524414062 529.701171875 c 0
 259.524414062 552.0390625 271.731445312 563.20703125 296.146484375 563.20703125 c 0
 297.28125 563.263671875 298.393554688 563.291992188 299.483398438 563.291992188 c 0
 309.30078125 563.291992188 317.396484375 560.997070312 323.770507812 556.407226562 c 0
 329.875976562 552.010742188 332.9296875 544.245117188 332.9296875 533.109375 c 0
 332.9296875 531.328125 332.8515625 529.4609375 332.6953125 527.506835938 c 0
 330.995117188 494.639648438 330.145507812 463.189453125 330.145507812 433.15625 c 1
 423.645507812 433.15625 l 2
 436.678710938 433.15625 445.88671875 430.323242188 451.26953125 424.65625 c 0
 456.65234375 418.989257812 459.627929688 411.33984375 460.194335938 401.70703125 c 0
 460.194335938 396.606445312 459.627929688 391.931640625 458.494140625 387.681640625 c 0
 457.361328125 383.431640625 455.661132812 379.323242188 453.39453125 375.356445312 c 0
 451.127929688 371.389648438 447.444335938 368.415039062 442.344726562 366.431640625 c 0
 437.244140625 364.448242188 431.01171875 363.740234375 423.64453125 364.307617188 c 0
 414.8046875 365.327148438 399.947265625 365.836914062 379.071289062 365.836914062 c 0
 365.154296875 365.836914062 348.561523438 365.610351562 329.294921875 365.157226562 c 1
 329.294921875 349.857421875 329.436523438 331.724609375 329.719726562 310.7578125 c 0
 330.002929688 289.790039062 330.14453125 277.040039062 330.14453125 272.5078125 c 0
EndSplineSet
Validated: 1
EndChar

StartChar: comma
Encoding: 44 44 12
Width: 548
VWidth: 845
GlyphClass: 2
Flags: HMW
VStem: 209.873 173.826
LayerCount: 2
Fore
SplineSet
383.698242188 76.6953125 m 0
 378.03125 48.927734375 365.848632812 6.1435546875 347.1484375 -51.65625 c 0
 328.448242188 -109.456054688 313.998046875 -145.15625 303.798828125 -158.755859375 c 0
 294.731445312 -170.65625 283.256835938 -179.15625 269.373046875 -184.255859375 c 0
 261.043945312 -187.315429688 253.479492188 -188.845703125 246.678710938 -188.845703125 c 0
 242.145507812 -188.845703125 237.952148438 -188.166015625 234.099609375 -186.805664062 c 0
 228.432617188 -185.106445312 223.190429688 -181.706054688 218.373046875 -176.606445312 c 0
 213.556640625 -171.505859375 210.723632812 -165.2734375 209.873046875 -157.90625 c 0
 209.0234375 -150.5390625 211.1484375 -142.888671875 216.248046875 -134.956054688 c 0
 228.1484375 -117.956054688 244.581054688 -80.5556640625 265.548828125 -22.755859375 c 0
 286.515625 35.0439453125 299.265625 75.27734375 303.798828125 97.9443359375 c 0
 305.498046875 105.876953125 309.46484375 112.110351562 315.698242188 116.643554688 c 0
 321.931640625 121.17578125 328.448242188 123.443359375 335.248046875 123.443359375 c 0
 342.048828125 123.443359375 348.848632812 122.875976562 355.6484375 121.743164062 c 0
 364.71484375 118.91015625 372.08203125 113.52734375 377.749023438 105.59375 c 0
 382.108398438 99.4921875 384.287109375 92.3837890625 384.287109375 84.2705078125 c 0
 384.287109375 81.8359375 384.090820312 79.310546875 383.698242188 76.6953125 c 0
EndSplineSet
Validated: 1
EndChar

StartChar: hyphen
Encoding: 45 45 13
Width: 548
VWidth: 893
GlyphClass: 2
Flags: HMW
HStem: 249.75 73.95<190.453 212.269> 256.55 69.7<388.786 397.853 388.786 403.519>
VStem: 165.923 261.962
LayerCount: 2
Fore
SplineSet
200.935546875 323.700195312 m 0xa0
 233.235351562 323.700195312 271.76953125 324.125 316.536132812 324.974609375 c 0
 361.303710938 325.825195312 386.236328125 326.25 391.336914062 326.25 c 0
 404.369140625 326.25 413.577148438 323.275390625 418.9609375 317.325195312 c 0
 424.34375 311.375 427.318359375 303.583007812 427.885742188 293.950195312 c 0
 427.885742188 269.016601562 415.702148438 256.549804688 391.3359375 256.549804688 c 0x60
 383.96875 256.549804688 355.494140625 255.416992188 305.91015625 253.150390625 c 0
 256.327148438 250.8828125 221.90234375 249.75 202.635742188 249.75 c 0
 178.268554688 249.75 166.0859375 261.932617188 166.0859375 286.299804688 c 0
 165.9765625 287.891601562 165.922851562 289.431640625 165.922851562 290.921875 c 0
 165.922851562 312.7734375 177.59375 323.700195312 200.935546875 323.700195312 c 0xa0
EndSplineSet
Validated: 1
EndChar

StartChar: period
Encoding: 46 46 14
Width: 548
VWidth: 859
GlyphClass: 2
Flags: HMW
HStem: -2.96641 131.413
VStem: 227.299 139.401
LayerCount: 2
Fore
SplineSet
298.700195312 -2.4892578125 m 0
 295.755859375 -2.806640625 292.88671875 -2.9658203125 290.09375 -2.9658203125 c 0
 272.994140625 -2.9658203125 258.720703125 2.9990234375 247.274414062 14.9326171875 c 0
 233.95703125 28.8154296875 227.298828125 45.107421875 227.298828125 63.8076171875 c 0
 227.298828125 81.375 234.807617188 96.3916015625 249.82421875 108.858398438 c 0
 264.840820312 121.325195312 281.1328125 127.842773438 298.700195312 128.409179688 c 0
 299.581054688 128.434570312 300.456054688 128.446289062 301.32421875 128.446289062 c 0
 319.974609375 128.446289062 335.391601562 122.625976562 347.575195312 110.985351562 c 0
 360.325195312 98.8017578125 366.700195312 83.3603515625 366.700195312 64.66015625 c 0
 366.700195312 46.52734375 360.466796875 31.369140625 348 19.1865234375 c 0
 335.533203125 7.0029296875 319.099609375 -0.2216796875 298.700195312 -2.4892578125 c 0
EndSplineSet
Validated: 1
EndChar

StartChar: slash
Encoding: 47 47 15
Width: 548
VWidth: 901
GlyphClass: 2
Flags: W
LayerCount: 2
Fore
SplineSet
501.845703125 626.501953125 m 0
 487.112304688 597.6015625 445.74609375 526.623046875 377.74609375 413.573242188 c 0
 309.74609375 300.5234375 268.37890625 230.3984375 253.645507812 203.198242188 c 0
 244.579101562 185.631835938 229.845703125 155.881835938 209.4453125 113.948242188 c 0
 189.045898438 72.015625 176.295898438 46.515625 171.1953125 37.4482421875 c 0
 162.12890625 21.5810546875 150.653320312 10.53125 136.770507812 4.298828125 c 0
 129.829101562 1.1826171875 123.34765625 -0.3759765625 117.327148438 -0.3759765625 c 0
 111.306640625 -0.3759765625 105.74609375 1.1826171875 100.645507812 4.298828125 c 0
 92.1455078125 8.83203125 87.0458984375 19.3154296875 85.345703125 35.748046875 c 0
 85.0458984375 38.6474609375 84.8955078125 41.5029296875 84.8955078125 44.314453125 c 0
 84.8955078125 57.4365234375 88.1630859375 69.5986328125 94.6962890625 80.798828125 c 0
 177.4296875 216.798828125 248.262695312 337.78125 307.1953125 443.748046875 c 0
 344.028320312 508.915039062 383.12890625 582.58203125 424.49609375 664.749023438 c 0
 429.028320312 673.81640625 435.26171875 680.7578125 443.194335938 685.575195312 c 0
 451.127929688 690.391601562 458.77734375 692.659179688 466.14453125 692.375976562 c 0
 473.51171875 692.092773438 480.87890625 690.53515625 488.24609375 687.702148438 c 0
 498.4453125 682.6015625 504.962890625 674.668945312 507.795898438 663.901367188 c 0
 508.62890625 660.735351562 509.045898438 657.420898438 509.045898438 653.9609375 c 0
 509.045898438 645.655273438 506.645507812 636.501953125 501.845703125 626.501953125 c 0
EndSplineSet
Validated: 1
EndChar

StartChar: zero
Encoding: 48 48 16
Width: 548
VWidth: 902
GlyphClass: 2
Flags: HMW
HStem: 31.6501 71.3991 593.499 68.8509
VStem: 96.3903 81.1767 415.144 82.3143
LayerCount: 2
Fore
SplineSet
278.2890625 31.650390625 m 0
 251.655273438 31.650390625 227.149414062 36.4677734375 204.765625 46.1005859375 c 0
 182.3828125 55.734375 163.2578125 69.05078125 147.390625 86.05078125 c 0
 131.524414062 103.05078125 119.057617188 124.30078125 109.990234375 149.80078125 c 0
 101.45703125 173.799804688 97.1904296875 200.057617188 97.1904296875 228.57421875 c 0
 97.1904296875 230.357421875 97.20703125 232.149414062 97.240234375 233.950195312 c 0
 97.240234375 239.6171875 97.0986328125 253.641601562 96.8154296875 276.025390625 c 0
 96.5322265625 298.408203125 96.390625 316.2578125 96.390625 329.575195312 c 0
 96.390625 342.891601562 96.8154296875 361.30859375 97.6650390625 384.826171875 c 0
 98.515625 408.342773438 100.073242188 428.600585938 102.33984375 445.600585938 c 0
 104.607421875 462.600585938 107.58203125 480.875976562 111.265625 500.42578125 c 0
 114.948242188 519.975585938 119.90625 537.118164062 126.139648438 551.850585938 c 0
 139.739257812 587.55078125 162.689453125 614.892578125 194.989257812 633.875976562 c 0
 227.2890625 652.859375 266.672851562 662.350585938 313.139648438 662.350585938 c 0
 336.372070312 662.350585938 358.189453125 658.383789062 378.58984375 650.451171875 c 0
 398.989257812 642.517578125 417.122070312 630.901367188 432.989257812 615.600585938 c 0
 448.856445312 600.30078125 462.03125 580.467773438 472.514648438 556.100585938 c 0
 482.997070312 531.734375 489.655273438 503.68359375 492.48828125 471.951171875 c 0
 494.755859375 443.618164062 496.313476562 411.459960938 497.1640625 375.4765625 c 0
 497.359375 367.173828125 497.45703125 358.85546875 497.45703125 350.522460938 c 0
 497.45703125 322.741210938 496.3671875 294.791992188 494.188476562 266.67578125 c 0
 491.35546875 230.125976562 487.388671875 202.217773438 482.2890625 182.951171875 c 0
 477.188476562 163.68359375 471.521484375 146.68359375 465.2890625 131.951171875 c 0
 459.055664062 117.217773438 452.397460938 104.467773438 445.314453125 93.701171875 c 0
 438.231445312 82.93359375 430.297851562 73.8671875 421.515625 66.5 c 0
 412.732421875 59.1328125 403.381835938 53.18359375 393.46484375 48.650390625 c 0
 383.547851562 44.1171875 372.356445312 40.5751953125 359.889648438 38.025390625 c 0
 347.422851562 35.474609375 334.955078125 33.775390625 322.48828125 32.9248046875 c 0
 310.021484375 32.0751953125 295.2890625 31.650390625 278.2890625 31.650390625 c 0
180.540039062 247.55078125 m 0
 180.540039062 245.284179688 180.685546875 241.883789062 180.96875 237.350585938 c 0
 181.251953125 232.817382812 181.393554688 229.701171875 181.393554688 228.000976562 c 1
 257.326171875 331.701171875 325.609375 438.234375 386.243164062 547.600585938 c 1
 376.04296875 562.333984375 363.576171875 573.666992188 348.842773438 581.599609375 c 0
 334.109375 589.533203125 318.243164062 593.5 301.243164062 593.5 c 0
 269.509765625 593.5 244.717773438 584.716796875 226.868164062 567.150390625 c 0
 209.017578125 549.583007812 195.559570312 521.25 186.493164062 482.150390625 c 0
 183.092773438 467.983398438 180.684570312 451.408203125 179.267578125 432.424804688 c 0
 178.086914062 416.602539062 177.49609375 398.025390625 177.49609375 376.69140625 c 0
 177.49609375 372.4296875 177.51953125 368.057617188 177.56640625 363.576171875 c 0
 177.849609375 336.659179688 178.1328125 317.67578125 178.416015625 306.625976562 c 0
 178.69921875 295.576171875 179.407226562 275.883789062 180.540039062 247.55078125 c 0
402.393554688 194.850585938 m 0
 404.66015625 201.651367188 407.068359375 220.349609375 409.618164062 250.950195312 c 0
 412.168945312 281.549804688 414.010742188 316.541992188 415.143554688 355.924804688 c 0
 415.466796875 367.17578125 415.62890625 378.299804688 415.62890625 389.296875 c 0
 415.62890625 416.79296875 414.6171875 443.494140625 412.59375 469.400390625 c 1
 351.9609375 344.733398438 280.560546875 240.18359375 198.393554688 155.75 c 1
 213.693359375 120.6171875 240.326171875 103.049804688 278.293945312 103.049804688 c 0
 293.59375 103.049804688 307.3359375 104.325195312 319.518554688 106.875 c 0
 331.701171875 109.424804688 343.318359375 113.958007812 354.368164062 120.474609375 c 0
 365.418945312 126.9921875 374.768554688 136.484375 382.418945312 148.951171875 c 0
 390.068359375 161.41796875 396.7265625 176.717773438 402.393554688 194.850585938 c 0
EndSplineSet
Validated: 1
EndChar

StartChar: one
Encoding: 49 49 17
Width: 548
VWidth: 904
GlyphClass: 2
Flags: HMW
HStem: 46.4251 72.675 49.8251 75.65<121.051 140.601 121.051 140.601> 488.883 17.85G
VStem: 256.484 82.1647 264.7 77.7733
LayerCount: 2
Fore
SplineSet
503.618164062 83.6884765625 m 0xb0
 503.618164062 73.5341796875 500.62109375 64.9375 494.625976562 57.900390625 c 0
 488.109375 50.25 476.634765625 46.4248046875 460.201171875 46.4248046875 c 0xb0
 452.833984375 46.4248046875 402.259765625 46.9921875 308.4765625 48.125 c 0
 214.693359375 49.2578125 154.201171875 49.8251953125 127.000976562 49.8251953125 c 0
 114.534179688 49.8251953125 105.326171875 53.224609375 99.3759765625 60.025390625 c 0
 93.4267578125 66.8251953125 90.451171875 75.6083984375 90.451171875 86.375 c 0
 90.40234375 87.361328125 90.376953125 88.33203125 90.376953125 89.2880859375 c 0
 90.376953125 99.3203125 93.0947265625 107.69921875 98.5263671875 114.424804688 c 0
 104.4765625 121.791992188 114.250976562 125.474609375 127.8515625 125.474609375 c 0
 153.3515625 125.474609375 196.701171875 125.192382812 257.901367188 124.625 c 1
 257.901367188 147.291992188 257.618164062 165.424804688 257.051757812 179.025390625 c 0
 256.672851562 182.047851562 256.483398438 189.735351562 256.483398438 202.086914062 c 0x70
 256.483398438 208.25390625 256.53125 215.583007812 256.625 224.075195312 c 0
 256.908203125 249.575195312 257.05078125 267.9921875 257.05078125 279.325195312 c 0
 257.05078125 290.658203125 257.6171875 311.625 258.75 342.224609375 c 0
 259.883789062 372.825195312 260.733398438 395.6328125 261.30078125 410.650390625 c 0
 261.8671875 425.666992188 263 449.466796875 264.700195312 482.049804688 c 0
 266.400390625 514.6328125 267.533203125 538.575195312 268.100585938 553.875 c 1
 226.166992188 518.7421875 195.567382812 497.775390625 176.30078125 490.974609375 c 0
 172.813476562 489.580078125 169.3125 488.8828125 165.798828125 488.8828125 c 0
 157.892578125 488.8828125 149.91796875 492.4140625 141.875 499.474609375 c 0
 130.798828125 509.200195312 125.260742188 518.92578125 125.260742188 528.650390625 c 0
 125.260742188 529.125 125.2734375 529.600585938 125.30078125 530.075195312 c 0
 125.30078125 539.141601562 127.283203125 547.216796875 131.25 554.299804688 c 0
 135.217773438 561.3828125 142.30078125 568.608398438 152.5 575.974609375 c 0
 168.93359375 588.442382812 186.216796875 602.18359375 204.349609375 617.201171875 c 0
 222.482421875 632.217773438 235.515625 643.125976562 243.44921875 649.92578125 c 0
 251.381835938 656.725585938 259.598632812 662.534179688 268.098632812 667.350585938 c 0
 276.598632812 672.16796875 283.965820312 674.576171875 290.19921875 674.576171875 c 0
 302.098632812 674.576171875 314.565429688 669.475585938 327.598632812 659.276367188 c 0
 340.631835938 649.076171875 347.1484375 640.576171875 347.1484375 633.776367188 c 0
 347.1484375 620.743164062 345.590820312 574.41796875 342.473632812 494.80078125 c 0x68
 339.356445312 415.18359375 337.798828125 368.576171875 337.798828125 354.975585938 c 0
 337.798828125 298.30859375 338.08203125 250.9921875 338.6484375 213.025390625 c 0
 338.6484375 192.05859375 339.215820312 161.458007812 340.348632812 121.224609375 c 1
 356.782226562 121.224609375 374.064453125 120.942382812 392.198242188 120.375 c 0
 410.331054688 119.80859375 425.206054688 119.3828125 436.823242188 119.099609375 c 0
 448.439453125 118.817382812 456.797851562 118.674804688 461.8984375 118.674804688 c 0
 477.764648438 118.674804688 488.532226562 115.700195312 494.19921875 109.75 c 0
 498.809570312 104.909179688 503.618164062 96.7333984375 503.618164062 83.6884765625 c 0xb0
EndSplineSet
Validated: 1
EndChar

StartChar: two
Encoding: 50 50 18
Width: 548
VWidth: 902
GlyphClass: 2
Flags: HMW
HStem: 37.3452 71.4042 40.7443 77.355 594.947 71.3991
VStem: 98.9769 84.9975 399.026 84.1475
LayerCount: 2
Fore
SplineSet
467.025390625 42.44921875 m 0x78
 443.225585938 42.44921875 413.619140625 41.876953125 378.203125 40.744140625 c 0x78
 342.786132812 39.611328125 311.477539062 38.478515625 284.27734375 37.3447265625 c 0
 257.078125 36.2119140625 229.169921875 35.6455078125 200.552734375 35.6455078125 c 0
 171.935546875 35.6455078125 149.693359375 36.7783203125 133.827148438 39.044921875 c 0
 121.360351562 40.1787109375 112.434570312 47.828125 107.051757812 61.9951171875 c 0
 101.668945312 76.162109375 98.9765625 96.5625 98.9765625 123.1953125 c 0
 98.9765625 147.5625 104.21875 173.204101562 114.702148438 200.12109375 c 0
 125.184570312 227.038085938 140.626953125 252.821289062 161.026367188 277.470703125 c 0
 181.426757812 302.12109375 205.2265625 322.095703125 232.426757812 337.396484375 c 0
 293.059570312 371.396484375 332.16015625 395.196289062 349.7265625 408.795898438 c 0
 372.959960938 426.928710938 387.693359375 446.196289062 393.92578125 466.595703125 c 0
 397.326171875 478.49609375 399.026367188 493.229492188 399.026367188 510.795898438 c 0
 399.026367188 540.262695312 390.383789062 561.655273438 373.100585938 574.971679688 c 0
 355.818359375 588.2890625 331.309570312 594.947265625 299.577148438 594.947265625 c 0
 277.4765625 594.947265625 256.369140625 588.146484375 236.251953125 574.546875 c 0
 216.134765625 560.947265625 200.693359375 545.9296875 189.92578125 529.497070312 c 0
 184.826171875 522.129882812 180.008789062 516.322265625 175.475585938 512.072265625 c 0
 170.943359375 507.822265625 166.125976562 505.4140625 161.026367188 504.846679688 c 0
 155.92578125 504.280273438 151.392578125 504.5625 147.42578125 505.696289062 c 0
 143.458984375 506.829101562 138.076171875 508.8125 131.276367188 511.645507812 c 0
 121.642578125 516.745117188 115.693359375 524.112304688 113.42578125 533.745117188 c 0
 112.859375 536.153320312 112.576171875 538.739257812 112.576171875 541.500976562 c 0
 112.576171875 549.7890625 115.125976562 559.669921875 120.225585938 571.145507812 c 0
 125.892578125 581.912109375 134.392578125 592.678710938 145.725585938 603.446289062 c 0
 157.05859375 614.212890625 170.091796875 624.413085938 184.825195312 634.045898438 c 0
 199.55859375 643.678710938 216.840820312 651.470703125 236.674804688 657.420898438 c 0
 256.5078125 663.37109375 276.340820312 666.345703125 296.173828125 666.345703125 c 0
 357.373046875 666.345703125 403.840820312 652.178710938 435.573242188 623.845703125 c 0
 467.306640625 595.512695312 483.173828125 553.012695312 483.173828125 496.345703125 c 0
 483.173828125 449.3125 471.2734375 411.629882812 447.473632812 383.296875 c 0
 429.90625 362.330078125 398.173828125 339.096679688 352.2734375 313.596679688 c 0
 340.940429688 306.796875 321.390625 296.313476562 293.623046875 282.146484375 c 0
 269.256835938 269.114257812 248.856445312 253.10546875 232.423828125 234.123046875 c 0
 215.990234375 215.139648438 204.232421875 195.731445312 197.149414062 175.8984375 c 0
 190.06640625 156.065429688 185.674804688 134.532226562 183.974609375 111.299804688 c 1
 215.70703125 109.599609375 246.307617188 108.749023438 275.774414062 108.749023438 c 0xb8
 305.241210938 108.749023438 328.19140625 109.174804688 344.624023438 110.024414062 c 0
 361.057617188 110.874023438 380.040039062 112.149414062 401.573242188 113.849609375 c 0
 423.106445312 115.549804688 437.2734375 116.682617188 444.073242188 117.249023438 c 0
 444.640625 117.249023438 447.33203125 117.391601562 452.149414062 117.674804688 c 0
 456.965820312 117.95703125 460.224609375 118.099609375 461.924804688 118.099609375 c 2
 470.424804688 118.099609375 l 2
 474.391601562 118.099609375 477.366210938 117.532226562 479.349609375 116.399414062 c 0
 481.33203125 115.266601562 483.599609375 113.849609375 486.149414062 112.149414062 c 0
 488.69921875 110.44921875 490.682617188 108.182617188 492.099609375 105.349609375 c 0
 493.516601562 102.516601562 494.5078125 99.1162109375 495.075195312 95.1494140625 c 0
 495.642578125 88.349609375 495.359375 81.1240234375 494.225585938 73.474609375 c 0
 493.092773438 65.82421875 490.118164062 58.7412109375 485.30078125 52.224609375 c 0
 480.484375 45.70703125 474.392578125 42.44921875 467.025390625 42.44921875 c 0x78
EndSplineSet
Validated: 1
EndChar

StartChar: three
Encoding: 51 51 19
Width: 548
VWidth: 902
GlyphClass: 2
Flags: HMW
HStem: 31.956 71.4 322.656 85 594.656 71.3983
VStem: 387.967 84.1917 406.652 84.9983
LayerCount: 2
Fore
SplineSet
491.650390625 221.500976562 m 0xe8
 491.650390625 163.133789062 473.655273438 116.958007812 437.672851562 82.9580078125 c 0
 401.689453125 48.9580078125 351.114257812 31.9580078125 285.947265625 31.9580078125 c 0
 266.114257812 31.9580078125 246.28125 34.9326171875 226.448242188 40.8828125 c 0
 206.615234375 46.8330078125 189.473632812 54.482421875 175.0234375 63.8330078125 c 0
 160.573242188 73.1826171875 147.681640625 83.3828125 136.348632812 94.4326171875 c 0
 125.015625 105.482421875 116.232421875 116.390625 109.999023438 127.157226562 c 0
 104.899414062 136.932617188 102.348632812 146.0703125 102.348632812 154.5703125 c 0
 102.348632812 157.403320312 102.631835938 160.166015625 103.19921875 162.857421875 c 0
 105.465820312 173.625 111.69921875 181.274414062 121.899414062 185.807617188 c 0
 129.71484375 189.715820312 136.9921875 191.669921875 143.73046875 191.669921875 c 0
 146.762695312 191.669921875 149.685546875 191.2734375 152.5 190.482421875 c 0
 161.56640625 187.932617188 170.633789062 180.708007812 179.701171875 168.807617188 c 0
 192.16796875 151.807617188 208.034179688 136.649414062 227.301757812 123.333007812 c 0
 246.568359375 110.015625 267.251953125 103.357421875 289.3515625 103.357421875 c 0
 323.3515625 103.357421875 351.401367188 112.990234375 373.501953125 132.2578125 c 0
 395.6015625 151.524414062 406.651367188 176.458007812 406.651367188 207.057617188 c 0xe8
 406.651367188 225.7578125 403.818359375 241.907226562 398.151367188 255.5078125 c 0
 392.484375 269.107421875 383.41796875 281.0078125 370.951171875 291.208007812 c 0
 358.483398438 301.407226562 341.341796875 309.19921875 319.525390625 314.583007812 c 0
 297.708007812 319.965820312 272.349609375 322.657226562 243.450195312 322.657226562 c 0
 231.549804688 322.657226562 221.208007812 327.333007812 212.424804688 336.682617188 c 0
 203.641601562 346.032226562 199.25 356.375 199.25 367.708007812 c 0
 199.25 379.607421875 202.3671875 389.240234375 208.599609375 396.607421875 c 0
 214.833007812 403.974609375 223.900390625 407.657226562 235.799804688 407.657226562 c 0
 283.400390625 407.657226562 320.799804688 417.149414062 348 436.1328125 c 0
 374.64453125 454.727539062 387.967773438 481.616210938 387.967773438 516.796875 c 0
 387.967773438 517.530273438 387.961914062 518.267578125 387.950195312 519.0078125 c 0
 387.966796875 519.768554688 387.974609375 520.524414062 387.974609375 521.2734375 c 0
 387.974609375 545.634765625 379.041992188 563.862304688 361.174804688 575.95703125 c 0
 342.7578125 588.423828125 316.265625 594.657226562 281.69921875 594.657226562 c 0
 274.899414062 594.657226562 268.241210938 593.948242188 261.723632812 592.532226562 c 0
 255.20703125 591.115234375 249.96484375 589.698242188 245.998046875 588.28125 c 0
 242.03125 586.864257812 237.78125 584.456054688 233.248046875 581.055664062 c 0
 228.71484375 577.65625 224.890625 574.823242188 221.7734375 572.555664062 c 0
 218.65625 570.2890625 215.255859375 566.60546875 211.573242188 561.505859375 c 0
 207.890625 556.40625 205.057617188 552.864257812 203.07421875 550.880859375 c 0
 201.090820312 548.897460938 198.399414062 544.790039062 194.999023438 538.556640625 c 0
 185.932617188 526.08984375 176.723632812 518.72265625 167.374023438 516.456054688 c 0
 164.703125 515.80859375 161.950195312 515.484375 159.116210938 515.484375 c 0
 152.033203125 515.484375 144.444335938 517.508789062 136.348632812 521.555664062 c 0
 126.715820312 526.088867188 120.908203125 533.596679688 118.924804688 544.080078125 c 0
 118.411132812 546.797851562 118.153320312 549.638671875 118.153320312 552.604492188 c 0
 118.153320312 561.077148438 120.252929688 570.560546875 124.451171875 581.0546875 c 0
 130.118164062 592.387695312 137.484375 602.73046875 146.551757812 612.080078125 c 0
 155.618164062 621.4296875 166.1015625 630.35546875 178.001953125 638.85546875 c 0
 189.901367188 647.35546875 204.493164062 654.012695312 221.776367188 658.830078125 c 0
 239.059570312 663.647460938 257.618164062 666.0546875 277.451171875 666.0546875 c 0
 342.618164062 666.0546875 391.634765625 652.455078125 424.501953125 625.254882812 c 0
 456.272460938 598.961914062 472.159179688 560.489257812 472.159179688 509.836914062 c 0xf0
 472.159179688 508.090820312 472.139648438 506.330078125 472.102539062 504.5546875 c 0
 472.102539062 488.12109375 469.977539062 473.24609375 465.727539062 459.9296875 c 0
 461.477539062 446.612304688 455.668945312 435.279296875 448.302734375 425.9296875 c 0
 440.935546875 416.579101562 431.868164062 408.362304688 421.1015625 401.279296875 c 0
 410.334960938 394.196289062 399.426757812 388.670898438 388.376953125 384.704101562 c 0
 377.326171875 380.737304688 365.568359375 377.620117188 353.1015625 375.353515625 c 1
 376.334960938 370.25390625 396.16796875 364.020507812 412.600585938 356.653320312 c 0
 429.034179688 349.286132812 443.341796875 339.794921875 455.525390625 328.177734375 c 0
 467.708007812 316.560546875 476.775390625 301.96875 482.724609375 284.401367188 c 0
 488.674804688 266.834960938 491.650390625 245.868164062 491.650390625 221.500976562 c 0xe8
EndSplineSet
Validated: 1
EndChar

StartChar: four
Encoding: 52 52 20
Width: 548
VWidth: 902
GlyphClass: 2
Flags: HMW
HStem: 33.1262 17.85G 243.276 68.2847
VStem: 353.953 74.3725 359.902 75.6483 359.902 82.4977
LayerCount: 2
Fore
SplineSet
440.650390625 99.4267578125 m 0xd0
 441.81640625 93.2080078125 442.399414062 87.2880859375 442.399414062 81.66796875 c 0
 442.399414062 70.9033203125 440.258789062 61.23828125 435.977539062 52.67578125 c 0
 429.4609375 39.642578125 419.96875 33.125 407.501953125 33.125 c 0
 396.734375 33.125 386.251953125 37.2333984375 376.051757812 45.4501953125 c 0
 365.8515625 53.6669921875 360.46875 62.025390625 359.901367188 70.525390625 c 2
 359.901367188 103.67578125 l 1
 359.901367188 169.55078125 l 1xc8
 359.901367188 243.075195312 l 1xd0
 347.770507812 243.208984375 336.077148438 243.275390625 324.82421875 243.275390625 c 0
 240.41015625 243.275390625 180.703125 239.526367188 145.702148438 232.026367188 c 0
 136.634765625 230.326171875 128.41796875 230.609375 121.05078125 232.875976562 c 0
 113.68359375 235.143554688 107.875976562 239.110351562 103.625976562 244.77734375 c 0
 99.3759765625 250.444335938 96.1181640625 256.9609375 93.8505859375 264.328125 c 0
 91.583984375 271.6953125 90.451171875 279.344726562 90.451171875 287.278320312 c 0
 90.451171875 295.2109375 91.8681640625 302.861328125 94.701171875 310.227539062 c 0
 100.368164062 326.094726562 115.525390625 352.01953125 140.17578125 388.002929688 c 0
 164.826171875 423.986328125 196.842773438 468.46875 236.225585938 521.452148438 c 0
 275.609375 574.435546875 303.516601562 612.827148438 319.950195312 636.626953125 c 0
 327.317382812 647.39453125 335.674804688 655.46875 345.025390625 660.852539062 c 0
 354.375 666.235351562 363.299804688 668.926757812 371.799804688 668.926757812 c 0
 373.860351562 669.1328125 375.887695312 669.236328125 377.8828125 669.236328125 c 0
 386.861328125 669.236328125 395.174804688 667.150390625 402.825195312 662.977539062 c 0
 412.174804688 657.876953125 417.983398438 649.09375 420.25 636.626953125 c 0
 423.650390625 616.793945312 426.341796875 586.194335938 428.325195312 544.827148438 c 0xe0
 430.307617188 503.459960938 431.583007812 468.467773438 432.150390625 439.8515625 c 0
 432.716796875 411.234375 433.567382812 368.026367188 434.700195312 310.2265625 c 1
 444.333007812 309.659179688 455.099609375 309.375976562 467 309.375976562 c 0
 480.033203125 309.375976562 489.241210938 306.401367188 494.624023438 300.451171875 c 0
 500.006835938 294.500976562 502.982421875 286.708984375 503.548828125 277.076171875 c 0
 503.548828125 252.143554688 491.366210938 239.676757812 466.999023438 239.676757812 c 0
 455.666015625 239.676757812 445.182617188 239.958984375 435.549804688 240.526367188 c 1
 436.682617188 157.79296875 438.3828125 110.759765625 440.650390625 99.4267578125 c 0xd0
353.952148438 564.375 m 1xe0
 270.084960938 454.44140625 213.134765625 369.157226562 183.1015625 308.524414062 c 1
 214.674804688 310.548828125 253.764648438 311.560546875 300.373046875 311.560546875 c 0
 319.012695312 311.560546875 338.85546875 311.3984375 359.901367188 311.07421875 c 1
 359.901367188 417.041992188 357.918945312 501.474609375 353.952148438 564.375 c 1xe0
EndSplineSet
Validated: 1
EndChar

StartChar: five
Encoding: 53 53 21
Width: 548
VWidth: 902
GlyphClass: 2
Flags: HMW
HStem: 36.749 71.3983 409.047 75.6525 578.2 75.6483 587.55 67.9983
VStem: 103.706 79.3942 109.996 74.8025 414.295 85.0051
LayerCount: 2
Fore
SplineSet
499.299804688 303.649414062 m 0xda
 499.299804688 261.716796875 494.05078125 223.890625 483.568359375 190.173828125 c 0
 473.084960938 156.45703125 458.3515625 128.407226562 439.369140625 106.024414062 c 0
 420.385742188 83.640625 397.578125 66.4990234375 370.944335938 54.5986328125 c 0
 344.311523438 42.69921875 315.12890625 36.7490234375 283.395507812 36.7490234375 c 0
 258.462890625 36.7490234375 235.512695312 39.298828125 214.545898438 44.3994140625 c 0
 193.578125 49.4990234375 176.01171875 56.58203125 161.844726562 65.6494140625 c 0
 147.677734375 74.7158203125 135.77734375 84.2080078125 126.14453125 94.125 c 0
 116.51171875 104.041992188 108.578125 114.383789062 102.345703125 125.150390625 c 0
 97.2451171875 136.625976562 94.6953125 146.506835938 94.6953125 154.793945312 c 0
 94.6953125 157.556640625 94.978515625 160.142578125 95.5458984375 162.55078125 c 0
 97.8125 172.18359375 103.762695312 179.55078125 113.395507812 184.650390625 c 0
 119.62890625 187.483398438 124.870117188 189.466796875 129.120117188 190.599609375 c 0
 133.370117188 191.732421875 138.045898438 192.015625 143.145507812 191.44921875 c 0
 148.245117188 190.881835938 153.0625 188.615234375 157.595703125 184.6484375 c 0
 162.12890625 180.681640625 166.9453125 175.014648438 172.045898438 167.647460938 c 0
 197.545898438 128.547851562 232.112304688 108.713867188 275.745117188 108.147460938 c 0
 318.245117188 108.147460938 351.962890625 125.005859375 376.895507812 158.72265625 c 0
 401.828125 192.439453125 414.295898438 237.630859375 414.295898438 294.297851562 c 0
 414.295898438 329.431640625 406.50390625 357.338867188 390.920898438 378.022460938 c 0
 375.337890625 398.705078125 351.395507812 409.046875 319.095703125 409.046875 c 0
 310.595703125 409.046875 302.37890625 408.622070312 294.4453125 407.772460938 c 0
 286.512695312 406.921875 279.712890625 405.7890625 274.045898438 404.372070312 c 0
 268.37890625 402.955078125 262.428710938 400.830078125 256.1953125 397.997070312 c 0
 249.962890625 395.1640625 245.00390625 392.897460938 241.321289062 391.197265625 c 0
 237.638671875 389.497070312 233.10546875 386.380859375 227.721679688 381.84765625 c 0
 222.338867188 377.314453125 218.796875 374.197265625 217.096679688 372.497070312 c 0
 215.397460938 370.796875 211.713867188 367.255859375 206.046875 361.872070312 c 0
 200.379882812 356.489257812 196.98046875 353.231445312 195.846679688 352.098632812 c 0
 191.314453125 348.130859375 185.7890625 344.731445312 179.272460938 341.8984375 c 0
 172.754882812 339.065429688 165.530273438 337.223632812 157.596679688 336.373046875 c 0
 149.6640625 335.5234375 141.731445312 336.797851562 133.797851562 340.198242188 c 0
 124.165039062 344.165039062 116.939453125 352.948242188 112.123046875 366.547851562 c 0
 107.305664062 380.1484375 104.614257812 396.865234375 104.046875 416.698242188 c 0
 103.8203125 424.630859375 103.70703125 432.450195312 103.70703125 440.157226562 c 0xda
 103.70703125 451.717773438 103.961914062 463.0234375 104.471679688 474.07421875 c 0
 105.321289062 492.491210938 106.454101562 512.32421875 107.87109375 533.57421875 c 0
 109.288085938 554.82421875 109.99609375 569.416015625 109.99609375 577.348632812 c 1
 105.462890625 584.715820312 102.629882812 593.07421875 101.497070312 602.423828125 c 0
 100.364257812 611.774414062 100.7890625 620.416015625 102.772460938 628.348632812 c 0
 104.754882812 636.282226562 108.721679688 643.08203125 114.671875 648.749023438 c 0
 120.622070312 654.416015625 127.564453125 657.249023438 135.497070312 657.249023438 c 0
 156.463867188 657.249023438 205.90625 656.681640625 283.823242188 655.548828125 c 0xd6
 361.740234375 654.416015625 421.09765625 653.848632812 461.8984375 653.848632812 c 0
 469.264648438 653.848632812 475.356445312 650.732421875 480.173828125 644.499023438 c 0
 484.991210938 638.265625 488.107421875 631.182617188 489.524414062 623.25 c 0
 490.94140625 615.31640625 491.083984375 607.950195312 489.950195312 601.149414062 c 0
 489.383789062 597.182617188 488.391601562 593.783203125 486.974609375 590.950195312 c 0
 485.557617188 588.1171875 483.57421875 585.9921875 481.024414062 584.575195312 c 0
 478.474609375 583.158203125 476.208007812 581.8828125 474.224609375 580.75 c 0
 472.241210938 579.6171875 469.266601562 578.909179688 465.299804688 578.625976562 c 0
 461.333007812 578.342773438 458.5 578.200195312 456.799804688 578.200195312 c 0xe6
 455.099609375 578.200195312 451.841796875 578.483398438 447.024414062 579.05078125 c 0
 442.208007812 579.6171875 439.515625 579.900390625 438.94921875 579.900390625 c 0
 431.015625 579.900390625 416.848632812 580.750976562 396.44921875 582.450195312 c 0
 376.048828125 584.150390625 357.916015625 585.42578125 342.048828125 586.275390625 c 0
 326.181640625 587.125976562 304.08203125 587.55078125 275.749023438 587.55078125 c 0
 247.416015625 587.55078125 217.666015625 586.700195312 186.499023438 585.000976562 c 1
 186.499023438 579.333984375 185.931640625 562.900390625 184.798828125 535.700195312 c 0xd6
 183.666015625 508.500976562 182.958007812 488.80859375 182.674804688 476.625976562 c 0
 182.580078125 472.568359375 182.532226562 467.9296875 182.532226562 462.709960938 c 0
 182.532226562 452.255859375 182.721679688 439.46875 183.100585938 424.349609375 c 1
 198.967773438 441.916992188 220.5 456.3671875 247.700195312 467.700195312 c 0
 274.900390625 479.033203125 306.067382812 484.700195312 341.200195312 484.700195312 c 0
 366.133789062 484.700195312 388.658203125 480.024414062 408.775390625 470.674804688 c 0
 428.892578125 461.325195312 445.467773438 448.432617188 458.5 432 c 0
 471.533203125 415.56640625 481.591796875 396.44140625 488.674804688 374.625 c 0
 495.7578125 352.807617188 499.299804688 329.149414062 499.299804688 303.649414062 c 0xda
EndSplineSet
Validated: 1
EndChar

StartChar: six
Encoding: 54 54 22
Width: 548
VWidth: 903
GlyphClass: 2
Flags: HMW
HStem: 34.9564 71.4042 387.707 74.7967
VStem: 92.9391 77.4059 417.695 83.3<246.887 265.875>
LayerCount: 2
Fore
SplineSet
500.995117188 262.75390625 m 0
 500.995117188 231.020507812 495.752929688 201.131835938 485.26953125 173.081054688 c 0
 474.787109375 145.03125 460.478515625 120.948242188 442.345703125 100.831054688 c 0
 424.212890625 80.71484375 402.538085938 64.7060546875 377.321289062 52.806640625 c 0
 352.103515625 40.90625 325.329101562 34.9560546875 296.99609375 34.9560546875 c 0
 261.86328125 34.9560546875 231.262695312 41.6142578125 205.196289062 54.931640625 c 0
 179.12890625 68.248046875 157.737304688 87.515625 141.01953125 112.732421875 c 0
 124.302734375 137.94921875 111.978515625 168.124023438 104.044921875 203.256835938 c 0
 96.640625 236.046875 92.9384765625 272.5390625 92.9384765625 312.733398438 c 0
 92.9384765625 315.60546875 92.9580078125 318.49609375 92.99609375 321.40625 c 0
 93.5625 370.139648438 98.3798828125 414.056640625 107.446289062 453.15625 c 0
 116.513671875 492.256835938 129.122070312 525.123046875 145.271484375 551.756835938 c 0
 161.421875 578.389648438 181.396484375 600.9140625 205.196289062 619.331054688 c 0
 228.997070312 637.748046875 254.638671875 651.7734375 282.122070312 661.40625 c 0
 309.604492188 671.0390625 340.0625 677.272460938 373.49609375 680.10546875 c 0
 375.977539062 680.321289062 378.403320312 680.4296875 380.772460938 680.4296875 c 0
 390.842773438 680.4296875 399.892578125 678.479492188 407.920898438 674.580078125 c 0
 417.837890625 669.762695312 423.36328125 661.970703125 424.49609375 651.204101562 c 0
 425.0625 644.404296875 421.663085938 636.895507812 414.295898438 628.678710938 c 0
 406.928710938 620.461914062 398.711914062 614.936523438 389.64453125 612.103515625 c 0
 383.412109375 610.404296875 373.919921875 608.13671875 361.169921875 605.303710938 c 0
 348.419921875 602.470703125 337.51171875 599.779296875 328.4453125 597.228515625 c 0
 319.377929688 594.678710938 308.611328125 590.853515625 296.14453125 585.75390625 c 0
 283.677734375 580.654296875 271.352539062 573.287109375 259.168945312 563.654296875 c 0
 246.986328125 554.020507812 234.944335938 542.404296875 223.043945312 528.803710938 c 0
 210.577148438 514.071289062 199.102539062 493.954101562 188.619140625 468.454101562 c 0
 178.135742188 442.954101562 171.478515625 420.287109375 168.64453125 400.454101562 c 1
 186.211914062 421.420898438 209.162109375 437.00390625 237.495117188 447.204101562 c 0
 265.828125 457.404296875 297.278320312 462.50390625 331.844726562 462.50390625 c 0
 357.912109375 462.50390625 381.14453125 458.821289062 401.544921875 451.454101562 c 0
 421.9453125 444.086914062 439.653320312 432.469726562 454.669921875 416.603515625 c 0
 469.686523438 400.736328125 481.162109375 379.911132812 489.094726562 354.127929688 c 0
 497.028320312 328.344726562 500.995117188 297.88671875 500.995117188 262.75390625 c 0
170.344726562 249.15625 m 0
 171.478515625 236.689453125 174.029296875 224.084960938 177.99609375 211.334960938 c 0
 181.962890625 198.584960938 187.48828125 185.692382812 194.571289062 172.66015625 c 0
 201.654296875 159.626953125 210.01171875 148.293945312 219.64453125 138.66015625 c 0
 229.278320312 129.02734375 240.89453125 121.235351562 254.495117188 115.28515625 c 0
 268.094726562 109.3359375 282.544921875 106.360351562 297.844726562 106.360351562 c 0
 318.811523438 106.360351562 338.64453125 113.727539062 357.344726562 128.4609375 c 0
 376.044921875 143.193359375 390.778320312 161.751953125 401.544921875 184.134765625 c 0
 412.311523438 206.517578125 417.6953125 229.326171875 417.6953125 252.55859375 c 0
 417.6953125 279.192382812 415.427734375 301.575195312 410.89453125 319.708007812 c 0
 406.362304688 337.840820312 399.13671875 351.724609375 389.219726562 361.357421875 c 0
 379.302734375 370.990234375 368.111328125 377.790039062 355.64453125 381.756835938 c 0
 343.177734375 385.724609375 327.876953125 387.70703125 309.744140625 387.70703125 c 0
 281.411132812 387.70703125 254.778320312 380.33984375 229.844726562 365.607421875 c 0
 204.912109375 350.874023438 184.51171875 332.173828125 168.64453125 309.506835938 c 1
 168.64453125 285.140625 169.211914062 265.0234375 170.344726562 249.15625 c 0
EndSplineSet
Validated: 1
EndChar

StartChar: seven
Encoding: 55 55 23
Width: 548
VWidth: 901
GlyphClass: 2
Flags: HMW
HStem: 32.3264 17.85G 580.951 76.925
LayerCount: 2
Fore
SplineSet
212.0390625 73.9287109375 m 0
 205.239257812 59.1962890625 196.309570312 48.14453125 185.259765625 40.77734375 c 0
 176.809570312 35.1435546875 168.442382812 32.3271484375 160.158203125 32.3271484375 c 0
 157.609375 32.3271484375 155.067382812 32.59375 152.534179688 33.126953125 c 0
 140.633789062 35.9599609375 132.275390625 42.7607421875 127.458984375 53.52734375 c 0
 125.24609375 58.474609375 124.139648438 63.6611328125 124.139648438 69.0859375 c 0
 124.139648438 75.46875 125.670898438 82.1826171875 128.733398438 89.2275390625 c 0
 157.633789062 147.594726562 188.659179688 205.677734375 221.80859375 263.477539062 c 0
 254.958984375 321.27734375 282.442382812 367.319335938 304.258789062 401.602539062 c 0
 326.076171875 435.885742188 346.192382812 469.177734375 364.609375 501.477539062 c 0
 383.026367188 533.77734375 395.3515625 560.126953125 401.584960938 580.52734375 c 1
 374.692382812 581.454101562 346.873046875 581.918945312 318.126953125 581.918945312 c 0
 294.173828125 581.918945312 269.576171875 581.596679688 244.334960938 580.952148438 c 0
 188.801757812 579.53515625 152.53515625 576.560546875 135.53515625 572.02734375 c 0
 128.734375 570.327148438 122.642578125 570.610351562 117.259765625 572.876953125 c 0
 111.876953125 575.14453125 107.484375 578.543945312 104.084960938 583.077148438 c 0
 100.684570312 587.610351562 98.134765625 592.427734375 96.4345703125 597.52734375 c 0
 94.734375 602.626953125 93.884765625 607.727539062 93.884765625 612.827148438 c 0
 93.884765625 623.02734375 96.4345703125 631.102539062 101.53515625 637.052734375 c 0
 106.634765625 643.001953125 115.984375 647.39453125 129.584960938 650.227539062 c 0
 150.551757812 654.194335938 179.59375 656.744140625 216.7109375 657.876953125 c 0
 235.26953125 658.443359375 253.084960938 658.7265625 270.15625 658.7265625 c 0
 287.227539062 658.7265625 303.5546875 658.443359375 319.137695312 657.876953125 c 0
 350.3046875 656.744140625 380.905273438 655.611328125 410.938476562 654.478515625 c 0
 440.970703125 653.344726562 457.12109375 652.778320312 459.387695312 652.778320312 c 0
 465.0546875 652.778320312 470.86328125 651.502929688 476.813476562 648.953125 c 0
 482.762695312 646.403320312 488.146484375 642.294921875 492.962890625 636.627929688 c 0
 496.647460938 632.29296875 500.6328125 624.905273438 500.6328125 613.223632812 c 0
 500.6328125 604.458984375 497.934570312 594.41015625 492.537109375 583.076171875 c 0
 484.604492188 566.076171875 470.295898438 540.434570312 449.61328125 506.151367188 c 0
 428.9296875 471.868164062 407.396484375 436.735351562 385.013671875 400.751953125 c 0
 362.630859375 364.76953125 335.430664062 316.88671875 303.4140625 257.103515625 c 0
 271.396484375 197.3203125 240.938476562 136.26171875 212.0390625 73.9287109375 c 0
EndSplineSet
Validated: 1
EndChar

StartChar: eight
Encoding: 56 56 24
Width: 548
VWidth: 901
GlyphClass: 2
Flags: W
HStem: 27.958 73.0967<212.397 372.306> 600.854 61.2002<227.002 350.13>
VStem: 87.8965 73.0986<149.821 274.907> 110.848 79.8975<463.46 564.425> 392.195 76.502<459.874 559.21> 427.045 79.0547<150.612 281.197>
LayerCount: 2
Fore
SplineSet
506.099609375 225.151367188 m 0xc4
 506.099609375 207.017578125 503.6875 188.888671875 498.870117188 170.755859375 c 0
 494.053710938 152.623046875 485.978515625 134.915039062 474.645507812 117.631835938 c 0
 463.3125 100.348632812 449.4296875 85.1904296875 432.99609375 72.1572265625 c 0
 416.563476562 59.125 395.596679688 48.5 370.096679688 40.2822265625 c 0
 344.596679688 32.0654296875 316.263671875 27.9580078125 285.096679688 27.9580078125 c 0
 256.763671875 27.9580078125 230.98046875 31.9248046875 207.747070312 39.857421875 c 0
 184.513671875 47.791015625 165.671875 57.8486328125 151.22265625 70.0322265625 c 0
 136.772460938 82.21484375 124.588867188 96.806640625 114.671875 113.806640625 c 0
 104.754882812 130.806640625 97.8134765625 147.948242188 93.8466796875 165.231445312 c 0
 89.8798828125 182.514648438 87.896484375 200.22265625 87.896484375 218.35546875 c 0xe4
 87.896484375 237.623046875 92.712890625 258.305664062 102.346679688 280.40625 c 0
 111.979492188 302.505859375 126.004882812 322.90625 144.421875 341.60546875 c 0
 162.837890625 360.305664062 183.379882812 373.338867188 206.046875 380.706054688 c 1
 176.013671875 394.873046875 152.638671875 413.430664062 135.921875 436.380859375 c 0
 119.205078125 459.331054688 110.84765625 482.706054688 110.84765625 506.505859375 c 0
 110.84765625 513.305664062 111.4140625 520.53125 112.546875 528.180664062 c 0
 113.680664062 535.831054688 115.805664062 544.897460938 118.921875 555.380859375 c 0
 122.0390625 565.864257812 126.2890625 575.921875 131.671875 585.5546875 c 0
 137.055664062 595.188476562 144.421875 604.6796875 153.772460938 614.030273438 c 0
 163.122070312 623.379882812 173.747070312 631.596679688 185.647460938 638.6796875 c 0
 197.546875 645.762695312 212.421875 651.4296875 230.272460938 655.6796875 c 0
 248.122070312 659.9296875 267.530273438 662.0546875 288.497070312 662.0546875 c 0
 310.59765625 662.0546875 330.572265625 659.9296875 348.421875 655.6796875 c 0
 366.272460938 651.4296875 381.2890625 645.762695312 393.47265625 638.6796875 c 0
 405.655273438 631.596679688 416.421875 623.379882812 425.772460938 614.030273438 c 0
 435.122070312 604.6796875 442.34765625 595.188476562 447.447265625 585.5546875 c 0
 452.546875 575.921875 456.796875 565.721679688 460.197265625 554.955078125 c 0
 463.59765625 544.188476562 465.864257812 534.696289062 466.997070312 526.479492188 c 0
 468.129882812 518.262695312 468.697265625 510.470703125 468.697265625 503.103515625 c 0xd8
 468.697265625 496.303710938 467.84765625 489.50390625 466.147460938 482.703125 c 0
 464.447265625 475.903320312 462.180664062 469.953125 459.34765625 464.853515625 c 0
 456.513671875 459.75390625 452.831054688 454.370117188 448.297851562 448.703125 c 0
 443.764648438 443.036132812 439.514648438 438.219726562 435.547851562 434.252929688 c 0
 431.581054688 430.286132812 426.481445312 425.752929688 420.248046875 420.65234375 c 0
 414.014648438 415.552734375 409.056640625 411.727539062 405.374023438 409.177734375 c 0
 401.690429688 406.627929688 396.44921875 403.0859375 389.6484375 398.552734375 c 0
 382.848632812 394.01953125 378.315429688 390.90234375 376.048828125 389.202148438 c 1
 397.015625 380.135742188 415.432617188 369.935546875 431.299804688 358.602539062 c 0
 447.166992188 347.26953125 459.774414062 336.077148438 469.125 325.02734375 c 0
 478.474609375 313.977539062 485.982421875 302.219726562 491.649414062 289.752929688 c 0
 497.31640625 277.286132812 501.141601562 266.09375 503.125 256.176757812 c 0
 505.107421875 246.259765625 506.099609375 235.91796875 506.099609375 225.151367188 c 0xc4
190.745117188 509.0546875 m 0xd8
 190.745117188 490.35546875 199.387695312 473.780273438 216.670898438 459.330078125 c 0
 233.953125 444.879882812 262.428710938 430.288085938 302.095703125 415.5546875 c 1
 325.895507812 425.188476562 346.862304688 438.221679688 364.995117188 454.654296875 c 0
 383.12890625 471.086914062 392.1953125 486.387695312 392.1953125 500.5546875 c 0
 392.1953125 516.420898438 387.662109375 532.00390625 378.595703125 547.3046875 c 0
 369.528320312 562.604492188 356.920898438 575.354492188 340.770507812 585.5546875 c 0
 324.620117188 595.75390625 307.1953125 600.854492188 288.495117188 600.854492188 c 0
 261.862304688 600.854492188 238.912109375 591.362304688 219.645507812 572.37890625 c 0
 200.37890625 553.396484375 190.745117188 532.288085938 190.745117188 509.0546875 c 0xd8
288.495117188 101.0546875 m 0
 304.928710938 101.0546875 321.361328125 103.458984375 337.793945312 108.276367188 c 0
 354.2265625 113.092773438 369.1015625 120.03515625 382.418945312 129.1015625 c 0
 395.736328125 138.168945312 406.502929688 150.068359375 414.719726562 164.801757812 c 0
 422.936523438 179.53515625 427.044921875 195.118164062 427.044921875 211.55078125 c 0
 427.044921875 220.618164062 426.194335938 229.259765625 424.495117188 237.4765625 c 0
 422.794921875 245.693359375 419.39453125 255.185546875 414.294921875 265.952148438 c 0
 409.194335938 276.719726562 402.111328125 286.63671875 393.044921875 295.703125 c 0
 383.977539062 304.770507812 371.370117188 314.262695312 355.219726562 324.1796875 c 0
 339.069335938 334.096679688 320.227539062 343.021484375 298.694335938 350.954101562 c 1
 257.89453125 340.1875 224.745117188 321.487304688 199.245117188 294.854492188 c 0
 173.745117188 268.221679688 160.995117188 239.887695312 160.995117188 209.85546875 c 0xe4
 160.995117188 188.887695312 167.370117188 169.905273438 180.120117188 152.905273438 c 0
 192.870117188 135.905273438 208.877929688 123.012695312 228.14453125 114.23046875 c 0
 247.412109375 105.447265625 267.528320312 101.0546875 288.495117188 101.0546875 c 0
EndSplineSet
Validated: 1
EndChar

StartChar: nine
Encoding: 57 57 25
Width: 548
VWidth: 903
GlyphClass: 2
Flags: HMW
HStem: 34.7222 17.85G 253.495 75.65 610.492 71.4042
VStem: 92.0817 83.3042 426.276 74.7089
LayerCount: 2
Fore
SplineSet
200.030273438 35.0458984375 m 0
 197.545898438 34.830078125 195.1171875 34.720703125 192.74609375 34.720703125 c 0
 182.6796875 34.720703125 173.63671875 36.66796875 165.610351562 40.5673828125 c 0
 155.693359375 45.3837890625 150.168945312 53.17578125 149.036132812 63.943359375 c 0
 148.46875 71.3095703125 151.7265625 78.9599609375 158.809570312 86.892578125 c 0
 165.892578125 94.826171875 174.250976562 100.208984375 183.883789062 103.041992188 c 0
 190.1171875 104.7421875 200.174804688 107.008789062 214.05859375 109.841796875 c 0
 227.94140625 112.674804688 240.408203125 115.650390625 251.458007812 118.766601562 c 0
 262.5078125 121.883789062 274.975585938 125.9921875 288.858398438 131.091796875 c 0
 302.741210938 136.192382812 316.19921875 143.275390625 329.232421875 152.341796875 c 0
 342.265625 161.409179688 354.166015625 172.17578125 364.932617188 184.642578125 c 0
 379.099609375 201.076171875 391.70703125 220.201171875 402.7578125 242.017578125 c 0
 413.807617188 263.834960938 421.599609375 283.526367188 426.1328125 301.09375 c 1
 410.265625 282.9609375 389.865234375 270.494140625 364.932617188 263.693359375 c 0
 339.999023438 256.893554688 309.399414062 253.494140625 273.1328125 253.494140625 c 0
 248.19921875 253.494140625 224.399414062 259.301757812 201.732421875 270.918945312 c 0
 179.065429688 282.536132812 159.798828125 297.977539062 143.931640625 317.244140625 c 0
 128.064453125 336.51171875 115.45703125 358.75390625 106.106445312 383.970703125 c 0
 96.7568359375 409.1875 92.08203125 434.829101562 92.08203125 460.896484375 c 0
 92.08203125 492.62890625 97.46484375 522.237304688 108.231445312 549.720703125 c 0
 118.999023438 577.203125 133.448242188 600.578125 151.58203125 619.845703125 c 0
 169.71484375 639.112304688 191.248046875 654.270507812 216.180664062 665.3203125 c 0
 241.114257812 676.370117188 267.747070312 681.895507812 296.080078125 681.895507812 c 0
 365.780273438 681.895507812 417.629882812 655.544921875 451.629882812 602.845703125 c 0
 484.533203125 551.845703125 500.984375 479.3515625 500.984375 385.364257812 c 0
 500.984375 382.232421875 500.966796875 379.076171875 500.9296875 375.896484375 c 0
 500.36328125 330.563476562 494.696289062 289.62109375 483.928710938 253.071289062 c 0
 473.162109375 216.521484375 458.711914062 185.49609375 440.579101562 159.99609375 c 0
 422.446289062 134.49609375 400.771484375 112.6796875 375.553710938 94.5458984375 c 0
 350.336914062 76.4130859375 323.13671875 62.6708984375 293.954101562 53.3212890625 c 0
 264.771484375 43.9716796875 233.462890625 37.87890625 200.030273438 35.0458984375 c 0
175.384765625 471.090820312 m 0
 175.384765625 424.623046875 185.440429688 389.350585938 205.557617188 365.267578125 c 0
 225.674804688 341.184570312 255.56640625 329.142578125 295.233398438 329.142578125 c 0
 320.166015625 329.142578125 344.533203125 334.809570312 368.333007812 346.142578125 c 0
 392.1328125 357.475585938 411.400390625 373.05859375 426.1328125 392.891601562 c 0
 426.227539062 395.631835938 426.275390625 398.608398438 426.275390625 401.822265625 c 0
 426.275390625 417.876953125 425.094726562 439.833007812 422.734375 467.69140625 c 0
 421.6015625 480.158203125 419.193359375 492.766601562 415.509765625 505.516601562 c 0
 411.827148438 518.266601562 406.301757812 531.158203125 398.934570312 544.19140625 c 0
 391.568359375 557.224609375 383.068359375 568.557617188 373.434570312 578.190429688 c 0
 363.801757812 587.823242188 352.184570312 595.615234375 338.584960938 601.565429688 c 0
 324.985351562 607.515625 310.53515625 610.490234375 295.235351562 610.490234375 c 0
 274.267578125 610.490234375 254.434570312 603.690429688 235.735351562 590.090820312 c 0
 217.03515625 576.490234375 202.301757812 559.065429688 191.53515625 537.815429688 c 0
 180.767578125 516.565429688 175.384765625 494.323242188 175.384765625 471.090820312 c 0
EndSplineSet
Validated: 1
EndChar

StartChar: colon
Encoding: 58 58 26
Width: 548
VWidth: 887
GlyphClass: 2
Flags: HMW
HStem: 71.5573 131.832 298.516 131.827
VStem: 241.462 108.541
LayerCount: 2
Fore
SplineSet
349.693359375 392.092773438 m 0
 349.899414062 388.692382812 350.002929688 385.254882812 350.002929688 381.780273438 c 0
 350.002929688 366.142578125 347.916992188 349.745117188 343.744140625 332.58984375 c 0
 340.911132812 321.256835938 334.677734375 312.615234375 325.044921875 306.665039062 c 0
 316.249023438 301.233398438 307.690429688 298.515625 299.3671875 298.515625 c 0
 298.57421875 298.515625 297.783203125 298.541015625 296.994140625 298.58984375 c 0
 262.994140625 300.290039062 244.861328125 313.323242188 242.594726562 337.690429688 c 0
 241.838867188 347.887695312 241.461914062 359.97265625 241.461914062 373.946289062 c 0
 241.461914062 380.9375 241.556640625 388.40234375 241.745117188 396.33984375 c 0
 241.745117188 403.70703125 243.870117188 409.798828125 248.120117188 414.616210938 c 0
 252.370117188 419.432617188 257.612304688 422.974609375 263.845703125 425.241210938 c 0
 270.078125 427.508789062 276.028320312 428.92578125 281.6953125 429.4921875 c 0
 287.362304688 430.059570312 292.745117188 430.342773438 297.845703125 430.342773438 c 0
 302.9453125 430.342773438 308.1875 429.775390625 313.5703125 428.642578125 c 0
 318.953125 427.509765625 324.336914062 425.666992188 329.719726562 423.1171875 c 0
 335.102539062 420.567382812 339.635742188 416.600585938 343.318359375 411.217773438 c 0
 347.001953125 405.833984375 349.126953125 399.458984375 349.693359375 392.092773438 c 0
350.543945312 165.139648438 m 0
 351.818359375 157.704101562 352.455078125 150.1875 352.455078125 142.591796875 c 0
 352.455078125 129.927734375 350.68359375 117.04296875 347.142578125 103.936523438 c 0
 344.30859375 92.603515625 337.225585938 84.2451171875 325.892578125 78.8623046875 c 0
 315.639648438 73.9921875 306.08203125 71.556640625 297.220703125 71.556640625 c 0
 296.287109375 71.556640625 295.362304688 71.583984375 294.443359375 71.638671875 c 0
 283.110351562 72.205078125 272.060546875 75.7470703125 261.293945312 82.263671875 c 0
 250.526367188 88.78125 244.577148438 97.9892578125 243.443359375 109.888671875 c 0
 242.876953125 121.7890625 242.452148438 129.296875 242.168945312 132.4140625 c 0
 241.885742188 135.53125 242.168945312 141.338867188 243.018554688 149.838867188 c 0
 243.869140625 158.338867188 244.293945312 164.856445312 244.293945312 169.388671875 c 0
 244.293945312 176.189453125 246.276367188 182.138671875 250.244140625 187.239257812 c 0
 254.2109375 192.338867188 259.168945312 195.880859375 265.119140625 197.864257812 c 0
 271.068359375 199.84765625 276.876953125 201.263671875 282.543945312 202.114257812 c 0
 288.2109375 202.963867188 293.59375 203.388671875 298.693359375 203.388671875 c 0
 305.494140625 203.388671875 312.293945312 202.397460938 319.09375 200.4140625 c 0
 325.893554688 198.430664062 332.411132812 194.323242188 338.643554688 188.08984375 c 0
 344.876953125 181.856445312 348.84375 174.20703125 350.543945312 165.139648438 c 0
EndSplineSet
Validated: 1
EndChar

StartChar: semicolon
Encoding: 59 59 27
Width: 548
VWidth: 864
GlyphClass: 2
Flags: HMW
HStem: 239.748 131.824
VStem: 266.9 108.543
LayerCount: 2
Fore
SplineSet
375.134765625 333.323242188 m 0
 375.340820312 329.923828125 375.444335938 326.48828125 375.444335938 323.013671875 c 0
 375.444335938 307.375 373.357421875 290.977539062 369.184570312 273.822265625 c 0
 366.3515625 262.489257812 360.259765625 253.846679688 350.909179688 247.896484375 c 0
 342.373046875 242.46484375 333.717773438 239.748046875 324.944335938 239.748046875 c 0
 324.108398438 239.748046875 323.271484375 239.7734375 322.434570312 239.822265625 c 0
 315.067382812 240.388671875 307.559570312 241.947265625 299.909179688 244.497070312 c 0
 292.259765625 247.046875 285.17578125 251.438476562 278.659179688 257.671875 c 0
 272.142578125 263.905273438 268.600585938 271.271484375 268.033203125 279.771484375 c 0
 267.278320312 289.969726562 266.900390625 302.0546875 266.900390625 316.028320312 c 0
 266.900390625 323.01953125 266.995117188 330.484375 267.184570312 338.421875 c 0
 267.184570312 345.221679688 269.166992188 351.171875 273.134765625 356.271484375 c 0
 277.1015625 361.372070312 282.342773438 364.9140625 288.860351562 366.896484375 c 0
 295.376953125 368.879882812 301.610351562 370.296875 307.560546875 371.146484375 c 0
 313.509765625 371.997070312 318.751953125 372.138671875 323.28515625 371.572265625 c 0
 328.384765625 371.572265625 333.485351562 371.146484375 338.584960938 370.296875 c 0
 343.685546875 369.447265625 349.068359375 367.60546875 354.735351562 364.771484375 c 0
 360.40234375 361.938476562 365.077148438 357.831054688 368.759765625 352.448242188 c 0
 372.443359375 347.064453125 374.568359375 340.689453125 375.134765625 333.323242188 c 0
358.984375 77.47265625 m 0
 357.8515625 59.33984375 339.434570312 -14.611328125 303.734375 -144.377929688 c 0
 300.901367188 -156.278320312 295.092773438 -164.919921875 286.310546875 -170.302734375 c 0
 278.364257812 -175.172851562 270.30078125 -177.608398438 262.122070312 -177.608398438 c 0
 261.260742188 -177.608398438 260.3984375 -177.581054688 259.534179688 -177.52734375 c 0
 248.201171875 -176.959960938 238.143554688 -173.27734375 229.360351562 -166.477539062 c 0
 221.581054688 -160.454101562 217.690429688 -152.430664062 217.690429688 -142.40625 c 0
 217.690429688 -131.724609375 224.407226562 -94.421875 235.734375 -38.9775390625 c 0
 246.500976562 13.72265625 255.000976562 53.9560546875 261.234375 81.72265625 c 0
 262.934570312 90.22265625 265.484375 97.0224609375 268.884765625 102.123046875 c 0
 272.284179688 107.22265625 276.109375 110.623046875 280.359375 112.323242188 c 0
 284.609375 114.022460938 289.142578125 115.15625 293.958984375 115.72265625 c 0
 298.776367188 116.290039062 302.884765625 116.290039062 306.284179688 115.72265625 c 0
 311.384765625 115.72265625 316.909179688 115.014648438 322.859375 113.59765625 c 0
 328.809570312 112.180664062 334.759765625 110.198242188 340.708984375 107.647460938 c 0
 346.659179688 105.09765625 351.333984375 101.272460938 354.734375 96.1728515625 c 0
 358.134765625 91.0732421875 359.55078125 84.83984375 358.984375 77.47265625 c 0
EndSplineSet
Validated: 1
EndChar

StartChar: less
Encoding: 60 60 28
Width: 548
VWidth: 902
GlyphClass: 2
Flags: HMW
HStem: 41.9717 17.85G
LayerCount: 2
Fore
SplineSet
505.244140625 64.4111328125 m 0
 502.411132812 58.744140625 498.161132812 53.9296875 492.494140625 49.962890625 c 0
 486.827148438 45.9951171875 479.318359375 43.4453125 469.96875 42.3125 c 0
 468.099609375 42.0859375 466.14453125 41.97265625 464.10546875 41.97265625 c 0
 455.944335938 41.97265625 446.424804688 43.7861328125 435.543945312 47.412109375 c 0
 421.376953125 51.9453125 403.952148438 61.8623046875 383.268554688 77.162109375 c 0
 362.5859375 92.462890625 340.203125 110.737304688 316.120117188 131.987304688 c 0
 292.037109375 153.237304688 268.094726562 174.912109375 244.294921875 197.012695312 c 0
 220.495117188 219.112304688 195.419921875 241.920898438 169.069335938 265.4375 c 0
 142.719726562 288.954101562 120.477539062 307.229492188 102.344726562 320.262695312 c 0
 94.9775390625 325.362304688 90.1611328125 333.012695312 87.8935546875 343.212890625 c 0
 86.8271484375 348.01171875 86.29296875 352.717773438 86.29296875 357.330078125 c 0
 86.29296875 362.517578125 86.96875 367.586914062 88.318359375 372.537109375 c 0
 90.8681640625 381.88671875 95.826171875 388.544921875 103.193359375 392.51171875 c 0
 135.493164062 416.311523438 173.318359375 446.203125 216.66796875 482.186523438 c 0
 260.017578125 518.169921875 299.684570312 550.752929688 335.66796875 579.935546875 c 0
 371.651367188 609.119140625 403.526367188 632.2109375 431.29296875 649.2109375 c 0
 440.360351562 654.877929688 448.717773438 657.852539062 456.368164062 658.135742188 c 0
 464.017578125 658.418945312 470.67578125 657.001953125 476.342773438 653.884765625 c 0
 482.009765625 650.767578125 486.967773438 646.943359375 491.217773438 642.41015625 c 0
 495.467773438 637.876953125 498.7265625 633.059570312 500.993164062 627.959960938 c 0
 503.231445312 623.73046875 504.3515625 619.473632812 504.3515625 615.190429688 c 0
 504.3515625 609.716796875 502.5234375 604.198242188 498.868164062 598.634765625 c 0
 492.3515625 588.717773438 479.743164062 576.959960938 461.04296875 563.360351562 c 0
 429.309570312 541.259765625 381.001953125 504.993164062 316.119140625 454.559570312 c 0
 251.235351562 404.126953125 210.293945312 372.110351562 193.293945312 358.509765625 c 1
 215.393554688 341.509765625 239.760742188 320.967773438 266.393554688 296.884765625 c 0
 293.02734375 272.801757812 316.827148438 250.985351562 337.793945312 231.434570312 c 0
 358.760742188 211.884765625 381.143554688 191.91015625 404.943359375 171.509765625 c 0
 428.744140625 151.110351562 449.143554688 134.959960938 466.143554688 123.059570312 c 0
 484.27734375 111.16015625 496.318359375 100.818359375 502.268554688 92.03515625 c 0
 505.838867188 86.7646484375 507.625 81.341796875 507.625 75.7666015625 c 0
 507.625 72.048828125 506.831054688 68.263671875 505.244140625 64.4111328125 c 0
EndSplineSet
Validated: 1
EndChar

StartChar: equal
Encoding: 61 61 29
Width: 548
VWidth: 908
GlyphClass: 2
Flags: HMW
HStem: 268.077 70.55 434.679 72.3116
LayerCount: 2
Fore
SplineSet
174.594726562 506.9296875 m 0
 206.89453125 505.796875 240.1875 505.2265625 274.470703125 505.2265625 c 0
 308.75390625 505.2265625 340.771484375 505.509765625 370.521484375 506.077148438 c 0
 400.271484375 506.643554688 417.979492188 506.926757812 423.646484375 506.926757812 c 0
 436.678710938 506.926757812 445.88671875 504.09375 451.270507812 498.426757812 c 0
 456.653320312 492.759765625 459.627929688 485.109375 460.1953125 475.4765625 c 0
 460.1953125 470.376953125 459.627929688 465.702148438 458.495117188 461.452148438 c 0
 457.362304688 457.202148438 455.662109375 453.09375 453.395507812 449.126953125 c 0
 451.127929688 445.16015625 447.4453125 442.184570312 442.344726562 440.202148438 c 0
 437.245117188 438.21875 431.01171875 437.510742188 423.645507812 438.077148438 c 0
 410.038085938 438.456054688 395.990234375 438.645507812 381.500976562 438.645507812 c 0
 374.267578125 438.645507812 366.923828125 438.59765625 359.469726562 438.502929688 c 0
 337.0859375 438.220703125 306.061523438 437.512695312 266.39453125 436.37890625 c 0
 226.727539062 435.24609375 197.543945312 434.6796875 178.844726562 434.6796875 c 0
 164.677734375 434.6796875 153.626953125 438.079101562 145.694335938 444.87890625 c 0
 133.84375 455.038085938 133.728515625 465.779296875 133.728515625 471.984375 c 0
 133.728515625 481.681640625 136.8671875 489.9296875 143.14453125 496.73046875 c 0
 149.458984375 503.5703125 158.948242188 506.990234375 171.61328125 506.990234375 c 0
 172.587890625 506.990234375 173.58203125 506.970703125 174.594726562 506.9296875 c 0
177.146484375 338.626953125 m 0
 192.094726562 338.4375 207.865234375 338.342773438 224.45703125 338.342773438 c 0
 257.552734375 338.342773438 293.916015625 338.719726562 333.546875 339.474609375 c 0
 393.046875 340.607421875 423.080078125 341.173828125 423.646484375 341.173828125 c 0
 436.6796875 341.173828125 445.887695312 338.19921875 451.271484375 332.249023438 c 0
 456.654296875 326.298828125 459.62890625 318.506835938 460.196289062 308.874023438 c 0
 460.196289062 303.774414062 459.62890625 299.099609375 458.49609375 294.849609375 c 0
 457.36328125 290.599609375 455.663085938 286.491210938 453.396484375 282.524414062 c 0
 451.12890625 278.557617188 447.446289062 275.58203125 442.345703125 273.599609375 c 0
 437.24609375 271.616210938 431.012695312 270.908203125 423.646484375 271.474609375 c 0
 410.0390625 271.853515625 395.866210938 272.04296875 381.124023438 272.04296875 c 0
 373.764648438 272.04296875 366.263671875 271.995117188 358.62109375 271.901367188 c 0
 335.670898438 271.618164062 304.079101562 270.91015625 263.845703125 269.776367188 c 0
 223.61328125 268.643554688 194.146484375 268.077148438 175.446289062 268.077148438 c 0
 161.279296875 268.077148438 150.795898438 271.619140625 143.99609375 278.702148438 c 0
 134.325195312 288.774414062 133.735351562 299.581054688 133.735351562 306.66796875 c 0
 133.735351562 315.40625 137.155273438 322.80078125 143.99609375 328.8515625 c 0
 151.36328125 335.369140625 162.413085938 338.626953125 177.146484375 338.626953125 c 0
EndSplineSet
Validated: 1
EndChar

StartChar: greater
Encoding: 62 62 30
Width: 548
VWidth: 903
GlyphClass: 2
Flags: W
LayerCount: 2
Fore
SplineSet
162.723632812 57.818359375 m 0
 154.223632812 52.71875 146.004882812 49.8857421875 138.072265625 49.3193359375 c 0
 130.138671875 48.751953125 123.338867188 50.02734375 117.671875 53.14453125 c 0
 112.004882812 56.2607421875 107.1875 60.0859375 103.220703125 64.619140625 c 0
 99.25390625 69.15234375 96.13671875 73.96875 93.8701171875 79.0693359375 c 0
 91.5751953125 83.404296875 90.427734375 87.767578125 90.427734375 92.1591796875 c 0
 90.427734375 97.52734375 92.1416015625 102.938476562 95.5703125 108.393554688 c 0
 101.803710938 118.310546875 114.553710938 130.068359375 133.8203125 143.66796875 c 0
 165.553710938 165.768554688 213.719726562 202.03515625 278.3203125 252.46875 c 0
 342.919921875 302.901367188 384.287109375 334.91796875 402.419921875 348.518554688 c 1
 380.3203125 365.518554688 355.528320312 386.060546875 328.044921875 410.143554688 c 0
 300.5625 434.2265625 276.620117188 456.04296875 256.219726562 475.59375 c 0
 235.8203125 495.143554688 213.719726562 515.118164062 189.919921875 535.518554688 c 0
 166.120117188 555.91796875 145.153320312 572.068359375 127.020507812 583.96875 c 0
 108.88671875 595.868164062 96.8447265625 606.209960938 90.8955078125 614.993164062 c 0
 87.5185546875 619.977539062 85.830078125 625.099609375 85.830078125 630.358398438 c 0
 85.830078125 634.365234375 86.810546875 638.451171875 88.771484375 642.6171875 c 0
 91.6044921875 648.283203125 95.7119140625 653.100585938 101.094726562 657.067382812 c 0
 106.478515625 661.034179688 114.127929688 663.584960938 124.044921875 664.717773438 c 0
 126.028320312 664.944335938 128.073242188 665.056640625 130.180664062 665.056640625 c 0
 138.614257812 665.056640625 148.043945312 663.244140625 158.469726562 659.6171875 c 0
 172.63671875 655.084960938 190.204101562 645.309570312 211.170898438 630.29296875 c 0
 232.137695312 615.275390625 254.663085938 597.000976562 278.74609375 575.467773438 c 0
 302.829101562 553.934570312 326.771484375 532.1171875 350.571289062 510.017578125 c 0
 374.37109375 487.91796875 399.303710938 465.250976562 425.37109375 442.017578125 c 0
 451.4375 418.784179688 474.104492188 400.3671875 493.372070312 386.767578125 c 0
 500.171875 381.66796875 504.705078125 374.017578125 506.971679688 363.817382812 c 0
 507.979492188 359.283203125 508.483398438 354.833984375 508.483398438 350.467773438 c 0
 508.483398438 345.01171875 507.696289062 339.686523438 506.123046875 334.4921875 c 0
 503.290039062 325.142578125 498.47265625 318.484375 491.672851562 314.517578125 c 0
 459.373046875 290.717773438 421.547851562 260.825195312 378.197265625 224.842773438 c 0
 334.84765625 188.859375 295.180664062 156.276367188 259.197265625 127.09375 c 0
 223.21484375 97.91015625 191.056640625 74.818359375 162.723632812 57.818359375 c 0
EndSplineSet
Validated: 1
EndChar

StartChar: question
Encoding: 63 63 31
Width: 548
VWidth: 903
GlyphClass: 2
Flags: HMW
HStem: 40.6768 131.413 595.357 71.4009
VStem: 208.548 138.55 388.75 84.15
LayerCount: 2
Fore
SplineSet
323.30078125 275.7578125 m 0
 321.034179688 261.024414062 315.788085938 249.688476562 307.571289062 241.754882812 c 0
 302.09375 236.466796875 295.041992188 233.822265625 286.416992188 233.822265625 c 0
 282.103515625 233.822265625 277.397460938 234.483398438 272.297851562 235.805664062 c 0
 256.430664062 239.772460938 245.947265625 247.139648438 240.84765625 257.907226562 c 0
 238.147460938 263.606445312 236.797851562 270.338867188 236.797851562 278.103515625 c 0
 236.797851562 285.005859375 237.864257812 292.723632812 239.997070312 301.256835938 c 0
 243.963867188 316.556640625 249.772460938 331.006835938 257.422851562 344.606445312 c 0
 265.072265625 358.20703125 273.430664062 369.823242188 282.497070312 379.45703125 c 0
 291.564453125 389.08984375 301.056640625 398.297851562 310.973632812 407.081054688 c 0
 320.890625 415.864257812 330.381835938 424.081054688 339.44921875 431.73046875 c 0
 348.515625 439.380859375 356.733398438 447.172851562 364.099609375 455.10546875 c 0
 371.466796875 463.0390625 377.416992188 471.680664062 381.950195312 481.03125 c 0
 386.483398438 490.380859375 388.75 500.439453125 388.75 511.206054688 c 0
 388.75 540.672851562 380.108398438 562.064453125 362.825195312 575.381835938 c 0
 345.541992188 588.698242188 321.034179688 595.356445312 289.30078125 595.356445312 c 0
 281.3671875 595.356445312 273.434570312 593.514648438 265.501953125 589.83203125 c 0
 257.568359375 586.1484375 250.626953125 582.041015625 244.676757812 577.5078125 c 0
 238.7265625 572.974609375 232.493164062 566.8828125 225.9765625 559.232421875 c 0
 219.459960938 551.583007812 214.359375 545.065429688 210.676757812 539.682617188 c 0
 206.993164062 534.299804688 202.6015625 527.924804688 197.501953125 520.557617188 c 0
 192.401367188 513.190429688 187.584960938 507.3828125 183.051757812 503.1328125 c 0
 178.518554688 498.8828125 173.701171875 496.615234375 168.6015625 496.333007812 c 0
 163.501953125 496.049804688 158.96875 496.333007812 155.001953125 497.182617188 c 0
 151.034179688 498.032226562 145.934570312 499.875 139.701171875 502.708007812 c 0
 130.068359375 507.807617188 123.9765625 515.174804688 121.426757812 524.807617188 c 0
 120.770507812 527.284179688 120.443359375 529.94921875 120.443359375 532.80078125 c 0
 120.443359375 541.040039062 123.178710938 550.841796875 128.651367188 562.208007812 c 0
 134.884765625 574.107421875 142.392578125 585.583007812 151.17578125 596.6328125 c 0
 159.958984375 607.682617188 170.8671875 618.732421875 183.899414062 629.782226562 c 0
 196.932617188 640.833007812 212.375 649.7578125 230.224609375 656.557617188 c 0
 248.075195312 663.357421875 266.6328125 666.7578125 285.899414062 666.7578125 c 0
 347.099609375 666.7578125 393.56640625 652.590820312 425.299804688 624.2578125 c 0
 457.033203125 595.924804688 472.899414062 553.424804688 472.899414062 496.7578125 c 0
 472.899414062 481.458007812 470.4921875 467.57421875 465.674804688 455.107421875 c 0
 460.858398438 442.640625 454.483398438 431.874023438 446.549804688 422.806640625 c 0
 438.6171875 413.740234375 429.69140625 405.240234375 419.774414062 397.306640625 c 0
 409.858398438 389.374023438 399.658203125 381.440429688 389.174804688 373.5078125 c 0
 378.69140625 365.57421875 369.05859375 357.357421875 360.275390625 348.857421875 c 0
 351.4921875 340.357421875 343.701171875 329.732421875 336.900390625 316.982421875 c 0
 330.100585938 304.232421875 325.567382812 290.490234375 323.30078125 275.7578125 c 0
279.947265625 41.154296875 m 0
 277.00390625 40.8359375 274.134765625 40.6767578125 271.341796875 40.6767578125 c 0
 254.2421875 40.6767578125 239.96875 46.6416015625 228.522460938 58.576171875 c 0
 215.205078125 72.458984375 208.547851562 88.7509765625 208.547851562 107.451171875 c 0
 208.547851562 125.017578125 215.772460938 140.03515625 230.22265625 152.501953125 c 0
 244.672851562 164.96875 261.247070312 171.485351562 279.947265625 172.052734375 c 0
 280.829101562 172.077148438 281.704101562 172.08984375 282.571289062 172.08984375 c 0
 301.209960938 172.08984375 316.485351562 166.26953125 328.397460938 154.62890625 c 0
 340.864257812 142.4453125 347.09765625 127.00390625 347.09765625 108.303710938 c 0
 347.09765625 90.169921875 341.005859375 75.0126953125 328.822265625 62.8291015625 c 0
 316.639648438 50.646484375 300.34765625 43.4208984375 279.947265625 41.154296875 c 0
EndSplineSet
Validated: 1
EndChar

StartChar: at
Encoding: 64 64 32
Width: 548
VWidth: 893
GlyphClass: 2
Flags: HMW
HStem: -66.7682 72.4013 129.738 66.2958 143.338 67.995 366.887 65.5635 564.081 76.5066
VStem: 77.694 73.9525 182.245 65.4491 336.943 68.0017 454.246 62.0483
LayerCount: 2
Fore
SplineSet
472.94921875 47.2861328125 m 0xdf80
 470.116210938 39.353515625 467.134765625 32.4111328125 464.018554688 26.4609375 c 0
 460.901367188 20.5107421875 456.651367188 13.1435546875 451.268554688 4.3603515625 c 0
 445.884765625 -4.4228515625 440.217773438 -11.9306640625 434.268554688 -18.1630859375 c 0
 428.318359375 -24.396484375 420.526367188 -30.771484375 410.893554688 -37.2880859375 c 0
 401.259765625 -43.8056640625 390.91796875 -49.1884765625 379.868164062 -53.4384765625 c 0
 368.818359375 -57.6884765625 355.643554688 -61.0888671875 340.342773438 -63.638671875 c 0
 327.825195312 -65.724609375 314.549804688 -66.767578125 300.514648438 -66.767578125 c 0
 297.39453125 -66.767578125 294.23828125 -66.716796875 291.04296875 -66.61328125 c 0
 261.009765625 -66.61328125 232.959960938 -59.24609375 206.893554688 -44.513671875 c 0
 180.826171875 -29.7802734375 158.301757812 -9.23828125 139.318359375 17.111328125 c 0
 120.334960938 43.4619140625 105.318359375 75.478515625 94.2685546875 113.161132812 c 0
 83.2177734375 150.844726562 77.693359375 192.069335938 77.693359375 236.836914062 c 0
 77.693359375 286.703125 81.5185546875 333.169921875 89.16796875 376.237304688 c 0
 96.818359375 419.3046875 107.7265625 456.846679688 121.893554688 488.86328125 c 0
 136.060546875 520.879882812 152.77734375 548.36328125 172.043945312 571.313476562 c 0
 191.310546875 594.263671875 212.560546875 611.545898438 235.793945312 623.163085938 c 0
 259.02734375 634.780273438 283.39453125 640.587890625 308.89453125 640.587890625 c 0
 328.161132812 640.587890625 345.444335938 639.030273438 360.744140625 635.913085938 c 0
 376.043945312 632.795898438 390.918945312 627.696289062 405.369140625 620.61328125 c 0
 419.819335938 613.530273438 432.569335938 604.038085938 443.619140625 592.138671875 c 0
 454.668945312 580.23828125 464.869140625 565.36328125 474.21875 547.513671875 c 0
 483.569335938 529.663085938 491.21875 508.837890625 497.168945312 485.038085938 c 0
 503.119140625 461.23828125 507.793945312 433.188476562 511.194335938 400.888671875 c 0
 514.59375 368.587890625 516.293945312 332.321289062 516.293945312 292.087890625 c 0
 516.293945312 271.688476562 514.736328125 252.280273438 511.619140625 233.86328125 c 0
 508.501953125 215.446289062 503.96875 198.163085938 498.01953125 182.013671875 c 0
 492.069335938 165.86328125 483.286132812 153.11328125 471.668945312 143.763671875 c 0
 460.051757812 134.413085938 446.59375 129.73828125 431.293945312 129.73828125 c 0xdf80
 390.494140625 129.73828125 367.543945312 153.538085938 362.444335938 201.138671875 c 1
 349.411132812 162.60546875 324.760742188 143.337890625 288.494140625 143.337890625 c 0
 255.060546875 143.337890625 228.994140625 153.821289062 210.293945312 174.788085938 c 0
 191.59375 195.754882812 182.244140625 227.772460938 182.244140625 270.838867188 c 0
 182.244140625 292.372070312 184.65234375 312.205078125 189.46875 330.337890625 c 0
 194.286132812 348.471679688 200.802734375 363.913085938 209.01953125 376.663085938 c 0
 217.237304688 389.413085938 226.870117188 400.1796875 237.919921875 408.962890625 c 0
 248.969726562 417.74609375 261.01171875 423.979492188 274.044921875 427.662109375 c 0
 285.33984375 430.853515625 296.846679688 432.450195312 308.567382812 432.450195312 c 0
 310.372070312 432.450195312 312.181640625 432.412109375 313.99609375 432.336914062 c 0
 327.595703125 431.76953125 341.1953125 428.65234375 354.795898438 422.985351562 c 0
 367.829101562 417.885742188 378.311523438 411.0859375 386.245117188 402.5859375 c 0
 394.177734375 394.0859375 396.161132812 386.435546875 392.194335938 379.635742188 c 0
 389.926757812 375.102539062 387.376953125 371.419921875 384.543945312 368.586914062 c 0
 381.7109375 365.75390625 378.310546875 363.770507812 374.34375 362.637695312 c 0
 370.376953125 361.50390625 366.694335938 360.654296875 363.293945312 360.086914062 c 0
 359.89453125 359.520507812 355.64453125 359.662109375 350.543945312 360.512695312 c 0
 345.444335938 361.362304688 341.477539062 362.0703125 338.64453125 362.637695312 c 0
 335.810546875 363.204101562 331.560546875 364.336914062 325.89453125 366.037109375 c 0
 318.52734375 367.169921875 311.301757812 367.453125 304.21875 366.88671875 c 0
 297.135742188 366.319335938 290.194335938 363.911132812 283.39453125 359.661132812 c 0
 276.59375 355.411132812 270.64453125 350.028320312 265.543945312 343.51171875 c 0
 260.444335938 336.994140625 256.194335938 328.352539062 252.793945312 317.5859375 c 0
 249.39453125 306.818359375 247.694335938 294.635742188 247.694335938 281.036132812 c 0
 247.694335938 273.668945312 248.119140625 266.7265625 248.96875 260.209960938 c 0
 249.819335938 253.693359375 251.51953125 246.326171875 254.069335938 238.109375 c 0
 256.619140625 229.892578125 260.5859375 223.375 265.96875 218.55859375 c 0
 271.352539062 213.741210938 278.009765625 211.333007812 285.943359375 211.333007812 c 0xbf80
 304.076171875 211.333007812 316.826171875 218.275390625 324.193359375 232.158203125 c 0
 331.560546875 246.041015625 335.810546875 269.1328125 336.943359375 301.43359375 c 0
 336.943359375 310.5 344.310546875 317.8671875 359.04296875 323.534179688 c 0
 368.229492188 327.142578125 376.561523438 328.947265625 384.038085938 328.947265625 c 0
 389.475585938 328.947265625 394.4609375 327.9921875 398.994140625 326.083984375 c 0
 406.361328125 323.250976562 409.477539062 317.583984375 408.344726562 309.083984375 c 0
 406.078125 289.061523438 404.9453125 271.999023438 404.9453125 257.89453125 c 0
 404.9453125 250.84375 405.227539062 244.53125 405.794921875 238.958984375 c 0
 407.495117188 222.2421875 410.328125 210.909179688 414.294921875 204.958984375 c 0
 418.26171875 199.008789062 423.928710938 196.034179688 431.295898438 196.034179688 c 0
 435.829101562 196.034179688 439.795898438 199.716796875 443.1953125 207.083984375 c 0
 446.595703125 214.451171875 449.00390625 224.083984375 450.420898438 235.984375 c 0
 451.837890625 247.883789062 452.830078125 258.3671875 453.396484375 267.43359375 c 0
 453.963867188 276.500976562 454.24609375 285.284179688 454.24609375 293.784179688 c 0
 454.24609375 322.68359375 452.971679688 349.317382812 450.421875 373.68359375 c 0
 447.87109375 398.05078125 444.754882812 418.875976562 441.071289062 436.159179688 c 0
 437.388671875 453.442382812 432.430664062 469.025390625 426.197265625 482.908203125 c 0
 419.963867188 496.791015625 414.014648438 508.124023438 408.34765625 516.907226562 c 0
 402.680664062 525.690429688 395.880859375 533.198242188 387.947265625 539.431640625 c 0
 380.014648438 545.665039062 373.072265625 550.33984375 367.122070312 553.45703125 c 0
 361.172851562 556.573242188 354.372070312 558.981445312 346.72265625 560.681640625 c 0
 339.072265625 562.381835938 333.264648438 563.373046875 329.297851562 563.65625 c 0
 325.330078125 563.939453125 320.513671875 564.08203125 314.846679688 564.08203125 c 0
 292.1796875 564.08203125 271.071289062 556.998046875 251.521484375 542.83203125 c 0
 231.971679688 528.665039062 214.688476562 508.97265625 199.671875 483.755859375 c 0
 184.654296875 458.5390625 172.896484375 427.23046875 164.396484375 389.831054688 c 0
 155.896484375 352.430664062 151.646484375 311.630859375 151.646484375 267.430664062 c 0
 151.646484375 228.897460938 154.479492188 194.189453125 160.146484375 163.306640625 c 0
 165.813476562 132.423828125 173.463867188 107.490234375 183.096679688 88.5078125 c 0
 192.729492188 69.5244140625 203.921875 53.5166015625 216.671875 40.4833984375 c 0
 229.421875 27.4501953125 242.171875 18.3828125 254.921875 13.283203125 c 0
 267.671875 8.18359375 280.846679688 5.6328125 294.446289062 5.6328125 c 0
 309.1796875 5.6328125 322.779296875 7.0498046875 335.24609375 9.8828125 c 0
 347.713867188 12.7158203125 358.055664062 16.1162109375 366.272460938 20.0830078125 c 0
 374.489257812 24.0498046875 382.28125 29.43359375 389.6484375 36.2333984375 c 0
 397.015625 43.033203125 402.681640625 49.2666015625 406.649414062 54.93359375 c 0
 410.616210938 60.6005859375 415.149414062 67.966796875 420.249023438 77.0341796875 c 0
 422.515625 81.0009765625 424.499023438 84.1181640625 426.19921875 86.384765625 c 0
 427.899414062 88.6513671875 429.881835938 91.34375 432.149414062 94.4609375 c 0
 434.416015625 97.578125 436.399414062 99.8447265625 438.098632812 101.26171875 c 0
 439.798828125 102.678710938 441.923828125 103.953125 444.473632812 105.086914062 c 0
 447.024414062 106.219726562 449.57421875 106.786132812 452.124023438 106.786132812 c 0
 454.673828125 106.786132812 457.366210938 106.219726562 460.19921875 105.086914062 c 0
 464.732421875 103.38671875 468.556640625 101.26171875 471.673828125 98.7119140625 c 0
 474.791015625 96.1611328125 477.19921875 92.76171875 478.899414062 88.51171875 c 0
 480.598632812 84.26171875 480.881835938 78.5947265625 479.749023438 71.51171875 c 0
 478.616210938 64.4287109375 476.348632812 56.353515625 472.94921875 47.2861328125 c 0xdf80
EndSplineSet
Validated: 1
EndChar

StartChar: A
Encoding: 65 65 33
Width: 548
VWidth: 903
GlyphClass: 2
Flags: HMW
HStem: 49.2596 17.85G 267.328 68.855
VStem: 70.4412 76.9446
LayerCount: 2
Fore
SplineSet
147.385742188 88.828125 m 2
 141.71875 71.26171875 133.786132812 59.6484375 123.5859375 53.9814453125 c 0
 117.918945312 50.8330078125 112.165039062 49.2587890625 106.322265625 49.2587890625 c 0
 101.649414062 49.2587890625 96.9208984375 50.265625 92.134765625 52.2802734375 c 0
 77.673828125 58.892578125 70.4423828125 72.130859375 70.4423828125 91.998046875 c 0
 70.4423828125 99.3779296875 71.4404296875 107.671875 73.435546875 116.880859375 c 0
 76.8359375 135.013671875 93.2685546875 179.213867188 122.736328125 249.48046875 c 1
 112.536132812 256.280273438 107.435546875 264.498046875 107.435546875 274.130859375 c 0
 106.869140625 282.063476562 110.411132812 289.571289062 118.060546875 296.655273438 c 0
 125.7109375 303.73828125 135.768554688 309.262695312 148.236328125 313.229492188 c 1
 217.935546875 475.296875 271.486328125 583.530273438 308.885742188 637.9296875 c 0
 317.385742188 649.262695312 324.893554688 657.479492188 331.411132812 662.580078125 c 0
 337.927734375 667.6796875 345.15234375 670.229492188 353.0859375 670.229492188 c 0
 355.04296875 670.435546875 356.967773438 670.5390625 358.860351562 670.5390625 c 0
 367.374023438 670.5390625 375.223632812 668.452148438 382.41015625 664.280273438 c 0
 391.193359375 659.1796875 396.434570312 650.396484375 398.134765625 637.9296875 c 0
 410.03515625 567.663085938 430.009765625 468.071289062 458.059570312 339.154296875 c 0
 486.110351562 210.237304688 505.518554688 136.145507812 516.28515625 116.877929688 c 0
 521.0078125 107.905273438 523.369140625 99.62109375 523.369140625 92.025390625 c 0
 523.369140625 90.5078125 523.274414062 89.0166015625 523.0859375 87.552734375 c 0
 521.953125 78.7705078125 519.120117188 71.4033203125 514.586914062 65.453125 c 0
 510.053710938 59.5029296875 504.670898438 55.111328125 498.4375 52.2783203125 c 0
 493.515625 50.2060546875 488.592773438 49.169921875 483.670898438 49.169921875 c 2
 466.135742188 53.5537109375 l 2
 455.369140625 58.9375 446.5859375 70.6953125 439.786132812 88.828125 c 0
 432.418945312 106.395507812 418.251953125 165.895507812 397.28515625 267.328125 c 1
 324.751953125 264.495117188 259.869140625 258.544921875 202.635742188 249.478515625 c 1
 147.385742188 88.828125 l 2
336.0859375 565.682617188 m 1
 311.15234375 527.715820312 275.736328125 447.249023438 229.8359375 324.282226562 c 1
 287.635742188 331.08203125 338.918945312 335.048828125 383.685546875 336.182617188 c 1
 336.0859375 565.682617188 l 1
EndSplineSet
Validated: 1
EndChar

StartChar: B
Encoding: 66 66 34
Width: 548
VWidth: 901
GlyphClass: 2
Flags: HMW
HStem: 31.9037 17.85G 303.904 61.2 586.954 67.1491
VStem: 91.2999 82.0231 392.197 76.5326 421.098 83.3008
LayerCount: 2
Fore
SplineSet
253.650390625 39.55078125 m 0xf4
 244.016601562 38.9833984375 233.248046875 38.1357421875 221.348632812 37.0029296875 c 0
 209.448242188 35.8701171875 199.815429688 35.01953125 192.448242188 34.453125 c 2
 170.348632812 32.7529296875 l 2
 162.981445312 32.185546875 156.323242188 31.9033203125 150.373046875 31.9033203125 c 0
 144.422851562 31.9033203125 138.8984375 32.4697265625 133.797851562 33.6025390625 c 2
 130.3984375 33.6025390625 l 2
 119.065429688 33.6025390625 109.857421875 37.427734375 102.774414062 45.078125 c 0
 96.2158203125 52.1611328125 92.9365234375 61.7939453125 92.9365234375 73.9775390625 c 0
 92.9365234375 80.3017578125 94.912109375 92.703125 94.912109375 166.8359375 c 0
 94.912109375 180.862304688 94.841796875 196.234375 94.7001953125 212.953125 c 0
 94.1328125 279.819335938 93 348.669921875 91.2998046875 419.502929688 c 0
 90.1669921875 457.469726562 89.599609375 482.969726562 89.599609375 496.002929688 c 0
 89.599609375 509.036132812 90.025390625 526.602539062 90.875 548.703125 c 0
 91.724609375 570.802734375 92.150390625 586.102539062 92.150390625 594.602539062 c 0
 92.716796875 609.903320312 96.8251953125 621.377929688 104.474609375 629.028320312 c 0
 112.125 636.677734375 121.900390625 640.502929688 133.799804688 640.502929688 c 2
 138.049804688 640.502929688 l 2
 147.1171875 643.3359375 156.466796875 645.744140625 166.099609375 647.7265625 c 0
 175.733398438 649.709960938 184.658203125 651.126953125 192.875 651.9765625 c 0
 201.091796875 652.827148438 210.016601562 653.393554688 219.650390625 653.676757812 c 0
 229.283203125 653.959960938 236.791015625 654.1015625 242.173828125 654.1015625 c 2
 259.598632812 654.1015625 l 1
 268.94921875 654.1015625 l 2
 307.482421875 654.1015625 341.624023438 647.018554688 371.374023438 632.8515625 c 0
 401.124023438 618.685546875 424.640625 598.143554688 441.923828125 571.2265625 c 0
 460.982421875 541.543945312 468.729492188 508.252929688 468.729492188 473.733398438 c 0xf8
 468.729492188 442.389648438 461.495117188 415.387695312 447.024414062 392.7265625 c 0
 432.006835938 369.208984375 411.182617188 352.067382812 384.548828125 341.30078125 c 1
 403.81640625 335.067382812 422.374023438 325.859375 440.223632812 313.67578125 c 0
 458.07421875 301.493164062 473.232421875 287.893554688 485.69921875 272.875976562 c 0
 498.166015625 257.859375 504.399414062 243.833984375 504.399414062 230.80078125 c 0
 504.399414062 209.268554688 499.015625 187.875976562 488.249023438 166.625976562 c 0
 477.482421875 145.375976562 461.756835938 125.967773438 441.07421875 108.401367188 c 0
 420.390625 90.833984375 393.7578125 75.8173828125 361.174804688 63.3505859375 c 0
 328.591796875 50.8837890625 292.75 42.9501953125 253.650390625 39.55078125 c 0xf4
267.248046875 586.953125 m 0
 236.6484375 586.953125 206.8984375 583.268554688 177.998046875 575.90234375 c 1
 177.998046875 565.134765625 177.431640625 547.8515625 176.297851562 524.051757812 c 0
 175.165039062 500.251953125 174.315429688 475.03515625 173.748046875 448.40234375 c 0
 173.46484375 435.0859375 173.322265625 421.627929688 173.322265625 408.028320312 c 0
 173.322265625 394.427734375 173.46484375 380.685546875 173.748046875 366.802734375 c 1
 200.380859375 365.669921875 225.598632812 365.102539062 249.3984375 365.102539062 c 0
 266.3984375 365.102539062 281.981445312 366.51953125 296.1484375 369.352539062 c 0
 310.315429688 372.185546875 322.073242188 375.869140625 331.422851562 380.40234375 c 0
 340.7734375 384.935546875 349.2734375 390.459960938 356.922851562 396.9765625 c 0
 364.573242188 403.494140625 370.380859375 410.15234375 374.348632812 416.952148438 c 0
 378.315429688 423.751953125 381.71484375 431.259765625 384.547851562 439.4765625 c 0
 387.380859375 447.694335938 389.364257812 455.060546875 390.497070312 461.578125 c 0
 391.630859375 468.094726562 392.197265625 475.037109375 392.197265625 482.403320312 c 0
 392.197265625 497.13671875 389.22265625 510.736328125 383.272460938 523.204101562 c 0
 377.322265625 535.670898438 369.955078125 545.728515625 361.172851562 553.37890625 c 0
 352.389648438 561.028320312 342.331054688 567.545898438 330.998046875 572.928710938 c 0
 319.665039062 578.311523438 308.615234375 581.995117188 297.848632812 583.977539062 c 0
 287.081054688 585.9609375 276.880859375 586.953125 267.248046875 586.953125 c 0
255.348632812 303.90234375 m 1
 213.981445312 303.90234375 187.348632812 303.618164062 175.448242188 303.05078125 c 1
 177.71484375 211.818359375 179.415039062 146.935546875 180.547851562 108.40234375 c 1
 186.78125 108.40234375 197.123046875 108.685546875 211.573242188 109.251953125 c 0
 226.0234375 109.819335938 236.931640625 110.1015625 244.297851562 110.1015625 c 0
 270.365234375 111.235351562 294.873046875 115.768554688 317.823242188 123.701171875 c 0
 340.7734375 131.633789062 359.331054688 141.125976562 373.498046875 152.17578125 c 0
 387.665039062 163.2265625 399.140625 174.842773438 407.922851562 187.026367188 c 0
 416.706054688 199.208984375 421.098632812 210.401367188 421.098632812 220.6015625 c 0xf4
 421.098632812 227.967773438 417.981445312 235.334960938 411.748046875 242.702148438 c 0
 405.515625 250.069335938 396.0234375 257.71875 383.2734375 265.65234375 c 0
 370.5234375 273.584960938 353.098632812 280.952148438 330.998046875 287.751953125 c 0
 308.8984375 294.551757812 283.681640625 299.935546875 255.348632812 303.90234375 c 1
EndSplineSet
Validated: 1
EndChar

StartChar: C
Encoding: 67 67 35
Width: 548
VWidth: 903
GlyphClass: 2
Flags: HMW
HStem: 26.7904 76.5782 493.872 188.909 590.419 68.8467
VStem: 77.7041 85.8483 428.755 87.5508
LayerCount: 2
Fore
SplineSet
492.500976562 107.618164062 m 0xb8
 445.763671875 53.734375 374.223632812 26.7900390625 277.872070312 26.7900390625 c 0
 274.922851562 26.7900390625 271.950195312 26.814453125 268.954101562 26.865234375 c 0
 245.720703125 26.865234375 223.62109375 30.83203125 202.654296875 38.765625 c 0
 181.6875 46.6982421875 163.979492188 57.181640625 149.529296875 70.21484375 c 0
 135.079101562 83.248046875 122.1875 98.4052734375 110.854492188 115.688476562 c 0
 99.521484375 132.971679688 91.1630859375 151.388671875 85.7802734375 170.938476562 c 0
 80.396484375 190.48828125 77.705078125 210.180664062 77.705078125 230.013671875 c 0
 77.705078125 271.380859375 81.955078125 311.331054688 90.455078125 349.86328125 c 0
 98.955078125 388.396484375 110.4296875 423.247070312 124.879882812 454.4140625 c 0
 139.330078125 485.581054688 156.188476562 514.197265625 175.455078125 540.264648438 c 0
 194.721679688 566.331054688 215.263671875 588.006835938 237.081054688 605.2890625 c 0
 258.897460938 622.572265625 281.28125 635.889648438 304.23046875 645.239257812 c 0
 327.180664062 654.58984375 349.138671875 659.264648438 370.10546875 659.264648438 c 0xb8
 391.072265625 659.264648438 410.33984375 656.998046875 427.90625 652.46484375 c 1
 430.173828125 660.96484375 434.423828125 667.90625 440.65625 673.2890625 c 0
 446.889648438 678.672851562 454.256835938 681.647460938 462.756835938 682.21484375 c 0
 464.771484375 682.591796875 466.79296875 682.78125 468.822265625 682.78125 c 0
 475.922851562 682.78125 483.108398438 680.466796875 490.380859375 675.83984375 c 0
 499.73046875 669.889648438 505.5390625 661.248046875 507.805664062 649.9140625 c 0
 509.505859375 641.4140625 511.206054688 633.056640625 512.90625 624.83984375 c 0
 514.60546875 616.623046875 515.59765625 608.547851562 515.880859375 600.614257812 c 0
 516.1640625 592.681640625 516.305664062 586.1640625 516.305664062 581.064453125 c 2
 516.305664062 563.21484375 l 1
 516.305664062 550.46484375 l 2
 516.305664062 538.564453125 511.772460938 526.522460938 502.706054688 514.33984375 c 0
 493.638671875 502.15625 484.572265625 495.498046875 475.504882812 494.365234375 c 0
 473.53125 494.037109375 471.551757812 493.872070312 469.56640625 493.872070312 c 0xd8
 461.296875 493.872070312 452.934570312 496.728515625 444.479492188 502.44140625 c 0
 433.997070312 509.524414062 428.754882812 519.016601562 428.754882812 530.916015625 c 0
 428.754882812 535.44921875 429.038085938 547.349609375 429.604492188 566.616210938 c 0
 429.038085938 567.18359375 426.345703125 569.025390625 421.529296875 572.141601562 c 0
 416.711914062 575.258789062 413.3125 577.526367188 411.329101562 578.942382812 c 0
 409.345703125 580.359375 406.087890625 582.202148438 401.5546875 584.46875 c 0
 397.021484375 586.735351562 392.629882812 588.293945312 388.379882812 589.143554688 c 0
 384.129882812 589.994140625 380.021484375 590.418945312 376.0546875 590.418945312 c 0
 358.48828125 590.418945312 339.646484375 584.751953125 319.529296875 573.418945312 c 0
 299.412109375 562.0859375 280.145507812 545.935546875 261.728515625 524.96875 c 0
 243.311523438 504.001953125 226.594726562 479.918945312 211.577148438 452.71875 c 0
 196.560546875 425.518554688 184.802734375 394.776367188 176.302734375 360.494140625 c 0
 167.802734375 326.2109375 163.552734375 291.78515625 163.552734375 257.21875 c 0
 163.552734375 232.28515625 168.369140625 207.918945312 178.002929688 184.119140625 c 0
 187.635742188 160.318359375 201.377929688 140.91015625 219.227539062 125.893554688 c 0
 237.077148438 110.876953125 256.485351562 103.369140625 277.452148438 103.369140625 c 0
 295.5859375 103.369140625 313.577148438 105.2109375 331.427734375 108.893554688 c 0
 349.27734375 112.577148438 365.002929688 117.393554688 378.602539062 123.34375 c 0
 392.202148438 129.293945312 403.9609375 135.244140625 413.877929688 141.193359375 c 0
 423.793945312 147.143554688 433.002929688 153.518554688 441.502929688 160.318359375 c 0
 448.869140625 165.418945312 455.244140625 169.385742188 460.627929688 172.21875 c 0
 466.010742188 175.051757812 471.818359375 176.46875 478.051757812 176.46875 c 0
 484.28515625 176.46875 490.517578125 174.485351562 496.750976562 170.518554688 c 0
 506.288085938 163.100585938 511.057617188 154.567382812 511.057617188 144.918945312 c 0
 511.057617188 133.931640625 504.87109375 121.498046875 492.500976562 107.618164062 c 0xb8
EndSplineSet
Validated: 1
EndChar

StartChar: D
Encoding: 68 68 36
Width: 548
VWidth: 901
GlyphClass: 2
Flags: HMW
HStem: 24.8749 73.0983 641.126 17G
VStem: 76.3451 83.8336 80.277 86.7017 436.429 81.5975
LayerCount: 2
Fore
SplineSet
161.028320312 347.025390625 m 0xe8
 161.595703125 322.658203125 162.583984375 285.96484375 164.000976562 236.947265625 c 0
 165.41796875 187.930664062 166.412109375 150.955078125 166.978515625 126.022460938 c 1
 190.211914062 115.822265625 214.577148438 108.59765625 240.077148438 104.34765625 c 0
 265.577148438 100.09765625 294.4765625 97.97265625 326.77734375 97.97265625 c 0
 342.643554688 97.97265625 357.661132812 103.21484375 371.828125 113.697265625 c 0
 385.995117188 124.180664062 397.611328125 137.780273438 406.678710938 154.497070312 c 0
 415.74609375 171.21484375 422.970703125 189.630859375 428.353515625 209.748046875 c 0
 433.736328125 229.865234375 436.428710938 249.557617188 436.428710938 268.82421875 c 0
 436.428710938 375.357421875 392.795898438 456.673828125 305.528320312 512.774414062 c 0
 274.361328125 532.607421875 229.87890625 553.006835938 172.079101562 573.973632812 c 1
 171.228515625 574.82421875 l 1
 170.37890625 574.82421875 l 1
 169.528320312 574.82421875 l 1
 168.678710938 575.673828125 l 1
 167.829101562 575.673828125 l 1
 166.978515625 575.673828125 l 1
 166.978515625 576.524414062 l 1xd8
 166.12890625 576.524414062 l 1
 165.278320312 576.524414062 l 1
 164.428710938 577.374023438 l 1
 163.579101562 577.374023438 l 1
 162.728515625 577.374023438 l 1
 161.87890625 578.223632812 l 1
 161.028320312 578.223632812 l 1
 160.178710938 578.223632812 l 1
 160.178710938 579.07421875 l 1
 159.450195312 547.500976562 159.0859375 515.251953125 159.0859375 482.326171875 c 0
 159.0859375 438.427734375 159.732421875 393.327148438 161.028320312 347.025390625 c 0xe8
327.627929688 24.8740234375 m 0
 299.294921875 24.8740234375 271.670898438 26.150390625 244.75390625 28.7001953125 c 0
 217.836914062 31.25 196.444335938 34.224609375 180.578125 37.625 c 0
 164.7109375 41.025390625 150.828125 44.1416015625 138.927734375 46.974609375 c 0
 127.028320312 49.8076171875 119.944335938 51.224609375 117.677734375 51.224609375 c 0
 106.344726562 51.224609375 96.9951171875 55.0498046875 89.6279296875 62.7001953125 c 0
 83.2431640625 69.330078125 80.05078125 78.1953125 80.05078125 89.294921875 c 0
 80.05078125 91.001953125 80.1259765625 92.76171875 80.27734375 94.5751953125 c 0xd8
 81.5517578125 114.973632812 82.189453125 147.24609375 82.189453125 191.390625 c 0
 82.189453125 206.107421875 82.119140625 222.143554688 81.9765625 239.5 c 0
 81.41015625 308.916992188 79.9931640625 384.141601562 77.7265625 465.174804688 c 0
 77.1591796875 496.908203125 76.734375 517.733398438 76.451171875 527.650390625 c 0
 76.380859375 530.12890625 76.3447265625 532.952148438 76.3447265625 536.122070312 c 0xe8
 76.3447265625 545.630859375 76.6640625 558.248046875 77.30078125 573.973632812 c 0
 78.1513671875 594.94140625 78.576171875 607.69140625 78.576171875 612.224609375 c 0
 79.1435546875 627.525390625 83.3935546875 639 91.326171875 646.650390625 c 0
 99.2587890625 654.299804688 109.17578125 658.125 121.076171875 658.125 c 0
 128.443359375 658.125 137.79296875 657.557617188 149.125976562 656.424804688 c 0
 160.458984375 655.291992188 175.05078125 653.025390625 192.901367188 649.625 c 0
 210.750976562 646.224609375 229.026367188 641.549804688 247.7265625 635.599609375 c 0
 266.42578125 629.650390625 286.684570312 621.291992188 308.500976562 610.525390625 c 0
 330.318359375 599.7578125 351.000976562 587.291015625 370.55078125 573.124023438 c 0
 390.1015625 558.95703125 408.943359375 541.249023438 427.076171875 519.999023438 c 0
 445.208984375 498.749023438 460.934570312 475.515625 474.250976562 450.298828125 c 0
 487.568359375 425.08203125 498.193359375 395.048828125 506.125976562 360.19921875 c 0
 514.059570312 325.348632812 518.026367188 287.807617188 518.026367188 247.57421875 c 0
 518.026367188 227.741210938 515.333984375 207.624023438 509.951171875 187.223632812 c 0
 504.568359375 166.82421875 496.3515625 146.848632812 485.30078125 127.298828125 c 0
 474.250976562 107.749023438 461.359375 90.32421875 446.625976562 75.0244140625 c 0
 431.893554688 59.7236328125 414.185546875 47.541015625 393.501953125 38.4736328125 c 0
 372.819335938 29.4072265625 350.861328125 24.8740234375 327.627929688 24.8740234375 c 0
EndSplineSet
Validated: 1
EndChar

StartChar: E
Encoding: 69 69 37
Width: 548
VWidth: 901
GlyphClass: 2
Flags: HMW
HStem: 36.477 72.6012 46.0504 77.1225 316.551 73.0991 333.551 68.8491 574.235 70.4154
VStem: 87.0079 82.8725
LayerCount: 2
Fore
SplineSet
463.553710938 46.25 m 0x4c
 461.697265625 46.353515625 459.362304688 46.404296875 456.547851562 46.404296875 c 0
 443.90234375 46.404296875 421.58984375 45.3623046875 389.606445312 43.2763671875 c 0
 350.505859375 40.7265625 307.581054688 38.458984375 260.831054688 36.4765625 c 0
 235.657226562 35.408203125 213.399414062 34.875 194.05859375 34.875 c 0
 177.482421875 34.875 163.047851562 35.267578125 150.755859375 36.0517578125 c 0
 137.723632812 36.619140625 124.690429688 42.994140625 111.657226562 55.1767578125 c 0
 98.6240234375 67.3603515625 90.9736328125 82.2353515625 88.70703125 99.8017578125 c 0
 87.0068359375 114.53515625 86.1572265625 141.02734375 86.1572265625 179.27734375 c 0
 86.1572265625 217.52734375 86.4404296875 258.184570312 87.0068359375 301.251953125 c 0
 87.1962890625 315.615234375 87.291015625 330.576171875 87.291015625 346.135742188 c 0
 87.291015625 377.233398438 86.9130859375 410.721679688 86.158203125 446.6015625 c 0
 85.5908203125 480.6015625 85.166015625 503.126953125 84.8828125 514.176757812 c 0
 84.8125 516.938476562 84.7763671875 520.028320312 84.7763671875 523.444335938 c 0
 84.7763671875 533.698242188 85.095703125 546.900390625 85.732421875 563.05078125 c 0
 86.5830078125 584.583984375 87.0078125 597.901367188 87.0078125 603.000976562 c 0
 87.5751953125 618.30078125 91.8251953125 629.91796875 99.7578125 637.8515625 c 0
 107.69140625 645.784179688 117.607421875 649.750976562 129.5078125 649.750976562 c 0
 130.284179688 649.78125 131.049804688 649.795898438 131.807617188 649.795898438 c 0
 145.42578125 649.795898438 155.9921875 644.963867188 163.5078125 635.30078125 c 1
 195.807617188 639.833984375 233.6328125 642.666992188 276.982421875 643.80078125 c 0
 298.658203125 644.366210938 319.09375 644.649414062 338.2890625 644.649414062 c 0
 357.484375 644.649414062 375.44140625 644.366210938 392.157226562 643.80078125 c 0
 425.58984375 642.666992188 452.223632812 640.966796875 472.056640625 638.700195312 c 0
 485.65625 637 495.005859375 633.600585938 500.106445312 628.5 c 0
 505.206054688 623.400390625 508.0390625 616.317382812 508.606445312 607.25 c 0
 508.606445312 602.150390625 508.0390625 597.333007812 506.90625 592.80078125 c 0
 505.7734375 588.267578125 503.931640625 584.159179688 501.380859375 580.4765625 c 0
 498.831054688 576.79296875 495.005859375 573.818359375 489.90625 571.55078125 c 0
 484.806640625 569.284179688 478.856445312 568.716796875 472.056640625 569.850585938 c 0
 432.80859375 572.7734375 393.330078125 574.234375 353.62109375 574.234375 c 0
 339.4375 574.234375 325.223632812 574.047851562 310.981445312 573.67578125 c 0
 256.864257812 572.258789062 210.5390625 568.716796875 172.005859375 563.049804688 c 1
 169.739257812 504.116210938 168.606445312 446.31640625 168.606445312 389.649414062 c 1xac
 209.973632812 389.649414062 266.356445312 391.774414062 337.755859375 396.024414062 c 0
 409.15625 400.274414062 449.389648438 402.399414062 458.456054688 402.399414062 c 0
 471.489257812 402.399414062 480.697265625 399.56640625 486.080078125 393.899414062 c 0
 491.463867188 388.232421875 494.155273438 380.299804688 494.155273438 370.099609375 c 0
 494.155273438 345.720703125 482.778320312 333.53125 460.025390625 333.53125 c 0
 459.5078125 333.53125 458.985351562 333.538085938 458.456054688 333.55078125 c 0x1c
 448.255859375 333.55078125 404.481445312 330.716796875 327.130859375 325.05078125 c 0
 249.78125 319.383789062 197.223632812 316.55078125 169.456054688 316.55078125 c 1
 169.456054688 304.083007812 169.598632812 287.791015625 169.880859375 267.674804688 c 0
 170.1640625 247.557617188 170.447265625 230.274414062 170.73046875 215.82421875 c 0
 171.013671875 201.374023438 171.296875 186.499023438 171.579101562 171.19921875 c 0
 171.862304688 155.899414062 172.4296875 143.291015625 173.279296875 133.374023438 c 0
 174.129882812 123.458007812 175.404296875 116.515625 177.104492188 112.548828125 c 0
 185.69921875 110.234375 204.37109375 109.077148438 233.119140625 109.077148438 c 0xac
 253.650390625 109.077148438 279.3203125 109.666992188 310.129882812 110.84765625 c 0
 384.079101562 113.680664062 431.538085938 117.364257812 452.504882812 121.897460938 c 0
 460.4375 123.030273438 467.237304688 123.455078125 472.904296875 123.171875 c 0
 478.571289062 122.888671875 483.529296875 121.755859375 487.779296875 119.772460938 c 0
 492.029296875 117.790039062 495.4296875 115.665039062 497.979492188 113.397460938 c 0
 500.529296875 111.130859375 502.512695312 108.15625 503.9296875 104.47265625 c 0
 505.346679688 100.790039062 506.479492188 97.53125 507.329101562 94.6982421875 c 0
 508.1796875 91.865234375 508.604492188 89.0322265625 508.604492188 86.19921875 c 0
 508.604492188 75.4326171875 504.779296875 65.7998046875 497.129882812 57.2998046875 c 0
 490.37890625 49.7998046875 480.872070312 46.0498046875 468.606445312 46.0498046875 c 0
 466.970703125 46.0498046875 465.287109375 46.1162109375 463.553710938 46.25 c 0x4c
EndSplineSet
Validated: 1
EndChar

StartChar: F
Encoding: 70 70 38
Width: 548
VWidth: 901
GlyphClass: 2
Flags: HMW
HStem: 34.0727 17.85G 326.138 71.9191 580.5 72.0089 642.047 17G
VStem: 88.453 87.7727 90.5922 79.6833
LayerCount: 2
Fore
SplineSet
176.225585938 72.3837890625 m 0xe8
 175.092773438 60.484375 169.572265625 50.9931640625 159.655273438 43.91015625 c 0
 150.47265625 37.3515625 140.198242188 34.072265625 128.830078125 34.072265625 c 0
 127.920898438 34.072265625 127.00390625 34.09375 126.080078125 34.1357421875 c 0
 114.74609375 34.1357421875 105.396484375 37.9609375 98.029296875 45.6103515625 c 0
 91.64453125 52.2412109375 88.4521484375 61.1064453125 88.4521484375 72.2060546875 c 0xe8
 88.4521484375 73.9140625 88.52734375 75.673828125 88.6787109375 77.486328125 c 0
 89.9541015625 96.185546875 90.5908203125 127.713867188 90.5908203125 172.071289062 c 0
 90.5908203125 186.859375 90.5205078125 203.072265625 90.37890625 220.711914062 c 0
 89.8115234375 291.26171875 88.39453125 363.936523438 86.1279296875 438.736328125 c 0
 84.9951171875 476.703125 84.427734375 502.203125 84.427734375 515.236328125 c 0
 84.427734375 528.26953125 84.8525390625 545.836914062 85.703125 567.936523438 c 0
 86.552734375 590.036132812 86.9775390625 605.053710938 86.9775390625 612.986328125 c 0
 87.544921875 628.286132812 91.794921875 639.76171875 99.7275390625 647.411132812 c 0
 107.661132812 655.061523438 117.578125 658.88671875 129.477539062 658.88671875 c 0
 130.934570312 658.994140625 132.358398438 659.048828125 133.749023438 659.048828125 c 0xd4
 146.95703125 659.048828125 157.150390625 654.177734375 164.328125 644.435546875 c 1
 219.861328125 648.40234375 276.102539062 650.953125 333.052734375 652.0859375 c 0
 347.290039062 652.369140625 360.880859375 652.510742188 373.82421875 652.510742188 c 0
 412.66015625 652.510742188 445.677734375 651.235351562 472.87890625 648.685546875 c 0
 485.912109375 647.552734375 495.120117188 644.294921875 500.502929688 638.911132812 c 0
 505.885742188 633.528320312 508.578125 626.020507812 508.578125 616.387695312 c 0
 508.578125 605.620117188 505.4609375 596.553710938 499.227539062 589.186523438 c 0
 492.995117188 581.819335938 483.078125 578.13671875 469.477539062 578.13671875 c 0
 437.745117188 579.712890625 405.051757812 580.501953125 371.3984375 580.501953125 c 0
 308.298828125 580.501953125 241.825195312 577.729492188 171.977539062 572.186523438 c 1
 171.977539062 562.553710938 171.6953125 547.111328125 171.127929688 525.861328125 c 0
 170.560546875 504.611328125 169.994140625 482.936523438 169.426757812 460.836914062 c 0
 169.143554688 449.786132812 169.000976562 438.666015625 169.000976562 427.473632812 c 0
 169.000976562 416.282226562 169.143554688 405.01953125 169.426757812 393.685546875 c 1
 195.168945312 396.600585938 223.408203125 398.057617188 254.14453125 398.057617188 c 0
 259.268554688 398.057617188 264.462890625 398.017578125 269.7265625 397.935546875 c 0
 306.559570312 397.369140625 339.9921875 395.810546875 370.025390625 393.260742188 c 0
 400.05859375 390.7109375 423.575195312 388.018554688 440.575195312 385.185546875 c 0
 454.17578125 382.918945312 463.525390625 379.235351562 468.625 374.135742188 c 0
 473.725585938 369.036132812 476.55859375 361.953125 477.125 352.885742188 c 0
 477.125 347.786132812 476.700195312 343.110351562 475.850585938 338.860351562 c 0
 475 334.610351562 473.442382812 330.502929688 471.17578125 326.536132812 c 0
 468.908203125 322.568359375 465.225585938 319.59375 460.125 317.610351562 c 0
 455.025390625 315.627929688 448.508789062 314.919921875 440.575195312 315.486328125 c 0
 423.008789062 318.319335938 398.92578125 320.727539062 368.325195312 322.7109375 c 0
 337.725585938 324.693359375 303.30078125 325.827148438 265.05078125 326.110351562 c 0
 262.502929688 326.12890625 259.985351562 326.137695312 257.497070312 326.137695312 c 0
 222.622070312 326.137695312 193.547851562 324.287109375 170.275390625 320.583984375 c 1xe4
 173.67578125 170.416992188 175.658203125 87.68359375 176.225585938 72.3837890625 c 0xe8
EndSplineSet
Validated: 1
EndChar

StartChar: G
Encoding: 71 71 39
Width: 548
VWidth: 901
GlyphClass: 2
Flags: HMW
HStem: 25.5681 76.5524 288.27 69.5785 598.522 68.8491
VStem: 76.8953 85.0008
LayerCount: 2
Fore
SplineSet
491.69921875 259.370117188 m 0
 490.56640625 247.470703125 487.017578125 233.58984375 481.067382812 217.72265625 c 0
 475.118164062 201.856445312 467.750976562 184.998046875 458.967773438 167.1484375 c 0
 450.184570312 149.297851562 438.8515625 132.014648438 424.96875 115.297851562 c 0
 411.0859375 98.5810546875 396.494140625 83.4228515625 381.193359375 69.8232421875 c 0
 365.893554688 56.22265625 348.043945312 45.314453125 327.643554688 37.09765625 c 0
 308.560546875 29.4111328125 289.724609375 25.568359375 271.137695312 25.568359375 c 0
 269.85546875 25.568359375 268.573242188 25.5859375 267.293945312 25.623046875 c 0
 244.060546875 25.623046875 222.102539062 29.58984375 201.419921875 37.5224609375 c 0
 180.736328125 45.4560546875 163.028320312 55.939453125 148.294921875 68.9716796875 c 0
 133.5625 82.0048828125 120.669921875 97.1630859375 109.620117188 114.446289062 c 0
 98.5703125 131.729492188 90.353515625 150.146484375 84.970703125 169.696289062 c 0
 79.5869140625 189.24609375 76.8955078125 208.938476562 76.8955078125 228.771484375 c 0
 76.8955078125 270.704101562 81.0029296875 311.50390625 89.220703125 351.170898438 c 0
 97.4375 390.837890625 108.912109375 426.538085938 123.645507812 458.271484375 c 0
 138.377929688 490.00390625 155.377929688 519.045898438 174.645507812 545.396484375 c 0
 193.912109375 571.74609375 214.454101562 593.846679688 236.271484375 611.696289062 c 0
 258.087890625 629.545898438 280.330078125 643.288085938 302.997070312 652.920898438 c 0
 325.6640625 662.5546875 347.48046875 667.37109375 368.448242188 667.37109375 c 0
 392.248046875 667.37109375 418.740234375 661.846679688 447.922851562 650.795898438 c 0
 477.10546875 639.74609375 496.23046875 630.25390625 505.297851562 622.321289062 c 0
 513.609375 614.009765625 517.764648438 604.061523438 517.764648438 592.475585938 c 0
 517.764648438 586.68359375 516.7265625 580.482421875 514.6484375 573.87109375 c 0
 512.381835938 566.50390625 506.999023438 561.12109375 498.499023438 557.721679688 c 0
 494.249023438 556.021484375 489.856445312 555.170898438 485.323242188 555.170898438 c 0
 480.791015625 555.170898438 476.115234375 556.021484375 471.299804688 557.721679688 c 0
 467.899414062 558.854492188 460.107421875 563.104492188 447.924804688 570.471679688 c 0
 435.741210938 577.837890625 423.274414062 584.35546875 410.524414062 590.022460938 c 0
 397.774414062 595.689453125 386.016601562 598.522460938 375.249023438 598.522460938 c 0
 357.682617188 598.522460938 338.840820312 592.713867188 318.723632812 581.096679688 c 0
 298.606445312 569.48046875 279.33984375 552.763671875 260.922851562 530.946289062 c 0
 242.505859375 509.12890625 225.7890625 484.337890625 210.772460938 456.5703125 c 0
 195.754882812 428.803710938 183.85546875 397.353515625 175.072265625 362.220703125 c 0
 166.2890625 327.087890625 161.897460938 291.670898438 161.897460938 255.970703125 c 0
 161.897460938 231.037109375 166.713867188 206.670898438 176.346679688 182.870117188 c 0
 185.98046875 159.0703125 199.721679688 139.662109375 217.572265625 124.645507812 c 0
 235.421875 109.62890625 255.114257812 102.120117188 276.647460938 102.120117188 c 0
 290.247070312 102.120117188 304.272460938 106.512695312 318.721679688 115.295898438 c 0
 333.171875 124.078125 346.063476562 135.270507812 357.397460938 148.870117188 c 0
 368.73046875 162.470703125 379.35546875 177.770507812 389.272460938 194.770507812 c 0
 399.188476562 211.770507812 407.688476562 228.203125 414.772460938 244.0703125 c 0
 421.85546875 259.9375 427.379882812 274.670898438 431.346679688 288.270507812 c 1
 395.647460938 286.5703125 360.655273438 283.453125 326.372070312 278.920898438 c 0
 292.088867188 274.387695312 268.430664062 268.4375 255.397460938 261.0703125 c 0
 250.834960938 258.655273438 246.3671875 257.447265625 241.995117188 257.447265625 c 0
 237.13671875 257.447265625 232.396484375 258.938476562 227.7734375 261.920898438 c 0
 218.990234375 267.587890625 214.032226562 275.237304688 212.899414062 284.870117188 c 0
 212.482421875 287.506835938 212.274414062 290.071289062 212.274414062 292.563476562 c 0
 212.274414062 310.424804688 222.965820312 324.577148438 244.348632812 335.020507812 c 0
 260.215820312 342.953125 294.923828125 349.045898438 348.473632812 353.295898438 c 0
 386.723632812 356.331054688 418.974609375 357.849609375 445.2265625 357.849609375 c 0
 455.727539062 357.849609375 465.268554688 357.606445312 473.848632812 357.120117188 c 0
 488.015625 356.553710938 497.791015625 354.145507812 503.173828125 349.895507812 c 0
 508.556640625 345.645507812 512.381835938 338.987304688 514.6484375 329.920898438 c 0
 514.951171875 327.125 515.1015625 324.469726562 515.1015625 321.95703125 c 0
 515.1015625 305.619140625 508.717773438 295.240234375 495.94921875 290.8203125 c 0
 495.94921875 289.120117188 495.241210938 284.587890625 493.82421875 277.220703125 c 0
 492.407226562 269.853515625 491.69921875 263.903320312 491.69921875 259.370117188 c 0
EndSplineSet
Validated: 1
EndChar

StartChar: H
Encoding: 72 72 40
Width: 548
VWidth: 901
GlyphClass: 2
Flags: HMW
HStem: 34.0619 17.85G 317.174 73.1009 641.938 17G
VStem: 99.8525 83.3017 415.282 84.6407
LayerCount: 2
Fore
SplineSet
494.254882812 72.375 m 0
 493.122070312 60.474609375 487.595703125 50.98046875 477.678710938 43.8974609375 c 0
 468.497070312 37.3388671875 458.465820312 34.060546875 447.583007812 34.060546875 c 0
 446.711914062 34.060546875 445.8359375 34.0810546875 444.954101562 34.123046875 c 0
 433.62109375 34.123046875 424.271484375 37.9482421875 416.904296875 45.5986328125 c 0
 410.51953125 52.228515625 407.327148438 61.09375 407.327148438 72.193359375 c 0
 407.327148438 73.900390625 407.40234375 75.66015625 407.553710938 77.4736328125 c 0
 412.705078125 149.076171875 415.280273438 228.640625 415.280273438 316.165039062 c 0
 415.280273438 324.920898438 415.254882812 333.756835938 415.203125 342.672851562 c 1
 405.5703125 342.106445312 370.862304688 337.713867188 311.079101562 329.497070312 c 0
 251.295898438 321.280273438 208.654296875 317.171875 183.154296875 317.171875 c 1
 183.154296875 315.47265625 183.012695312 312.497070312 182.729492188 308.247070312 c 0
 182.446289062 303.997070312 182.303710938 301.022460938 182.303710938 299.322265625 c 0
 180.604492188 271.272460938 179.75390625 238.334960938 179.75390625 200.509765625 c 0
 179.75390625 162.684570312 180.604492188 119.97265625 182.303710938 72.3720703125 c 0
 181.170898438 60.47265625 175.50390625 50.98046875 165.303710938 43.8974609375 c 0
 155.860351562 37.3388671875 145.6875 34.060546875 134.786132812 34.060546875 c 0
 133.9140625 34.060546875 133.036132812 34.0810546875 132.155273438 34.123046875 c 0
 120.822265625 34.123046875 111.471679688 37.9482421875 104.10546875 45.5986328125 c 0
 97.7197265625 52.228515625 94.52734375 61.09375 94.52734375 72.1943359375 c 0
 94.52734375 73.9013671875 94.603515625 75.6611328125 94.75390625 77.4736328125 c 0
 95.3212890625 85.4072265625 95.74609375 98.1572265625 96.029296875 115.723632812 c 0
 96.3125 133.291015625 96.4541015625 156.807617188 96.4541015625 186.274414062 c 0
 96.4541015625 215.7421875 96.7373046875 242.375 97.3037109375 266.174804688 c 0
 97.3037109375 285.44140625 97.87109375 313.06640625 99.00390625 349.049804688 c 0
 100.137695312 385.033203125 100.845703125 411.666015625 101.127929688 428.94921875 c 0
 101.22265625 434.705078125 101.270507812 441.41796875 101.270507812 449.090820312 c 0
 101.270507812 464.45703125 101.081054688 483.668945312 100.702148438 506.724609375 c 0
 100.135742188 532.224609375 99.8525390625 548.516601562 99.8525390625 555.599609375 c 0
 99.8525390625 562.682617188 100.135742188 572.458007812 100.702148438 584.924804688 c 0
 101.26953125 597.391601562 101.8359375 606.7421875 102.403320312 612.974609375 c 0
 102.970703125 628.274414062 107.078125 639.75 114.728515625 647.399414062 c 0
 122.377929688 655.049804688 132.153320312 658.875 144.053710938 658.875 c 0
 144.977539062 658.916992188 145.889648438 658.9375 146.790039062 658.9375 c 0
 158.041992188 658.9375 167.471679688 655.659179688 175.079101562 649.100585938 c 0
 183.295898438 642.017578125 187.404296875 630.825195312 187.404296875 615.525390625 c 0
 187.404296875 609.858398438 186.696289062 597.67578125 185.279296875 578.975585938 c 0
 183.862304688 560.275390625 183.154296875 542.9921875 183.154296875 527.125976562 c 0
 183.154296875 512.392578125 183.4375 489.8671875 184.00390625 459.55078125 c 0
 184.571289062 429.233398438 184.854492188 406.141601562 184.854492188 390.274414062 c 1
 214.321289062 390.274414062 244.637695312 391.974609375 275.8046875 395.375 c 0
 306.971679688 398.774414062 335.3046875 402.174804688 360.8046875 405.575195312 c 0
 386.3046875 408.974609375 404.155273438 411.2421875 414.35546875 412.375 c 1
 414.35546875 416.341796875 414.072265625 422.149414062 413.504882812 429.799804688 c 0
 412.938476562 437.450195312 412.655273438 443.2578125 412.655273438 447.224609375 c 0
 412.087890625 482.357421875 411.8046875 505.590820312 411.8046875 516.923828125 c 0
 411.8046875 528.256835938 412.23046875 545.82421875 413.080078125 569.624023438 c 0
 413.9296875 593.423828125 414.637695312 607.874023438 415.205078125 612.973632812 c 0
 415.205078125 628.274414062 419.313476562 639.749023438 427.530273438 647.399414062 c 0
 435.747070312 655.048828125 445.521484375 658.874023438 456.85546875 658.874023438 c 0
 457.779296875 658.916015625 458.69140625 658.9375 459.591796875 658.9375 c 0
 470.84375 658.9375 480.2734375 655.658203125 487.880859375 649.099609375 c 0
 496.09765625 642.016601562 500.206054688 630.825195312 500.206054688 615.524414062 c 0
 500.206054688 604.7578125 499.922851562 582.658203125 499.35546875 549.224609375 c 0
 498.7890625 515.791992188 498.364257812 486.466796875 498.081054688 461.25 c 0
 498.024414062 456.209960938 497.99609375 450.721679688 497.99609375 444.787109375 c 0
 497.99609375 421.03125 498.44921875 390.110351562 499.35546875 352.024414062 c 0
 499.733398438 338.805664062 499.921875 324.202148438 499.921875 308.213867188 c 0
 499.921875 276.2265625 499.166992188 238.696289062 497.655273438 195.625 c 0
 495.387695312 131.024414062 494.254882812 89.94140625 494.254882812 72.375 c 0
EndSplineSet
Validated: 1
EndChar

StartChar: I
Encoding: 73 73 41
Width: 548
VWidth: 902
GlyphClass: 2
Flags: HMW
HStem: 40.327 68.0008 46.786 66.2143 572.426 75.6509 583.477 72.5328
VStem: 250.251 86.6958 257.107 85.5066
LayerCount: 2
Fore
SplineSet
473.794921875 42.875 m 0x68
 459.061523438 45.142578125 434.845703125 46.4189453125 401.12890625 46.7021484375 c 0
 394.389648438 46.7587890625 387.6953125 46.787109375 381.046875 46.787109375 c 0x68
 354.431640625 46.787109375 328.54296875 46.3330078125 303.37890625 45.4267578125 c 0
 271.928710938 44.2939453125 238.211914062 43.1611328125 202.228515625 42.0283203125 c 0
 166.24609375 40.89453125 141.170898438 40.328125 127.00390625 40.328125 c 0
 112.270507812 40.328125 101.50390625 43.1611328125 94.7041015625 48.828125 c 0
 84.6767578125 57.1845703125 84.43359375 67.09375 84.43359375 73.447265625 c 0
 84.43359375 82.55859375 87.2890625 90.3603515625 93.0029296875 96.853515625 c 0
 99.236328125 103.936523438 109.71875 107.76171875 124.452148438 108.329101562 c 0
 148.251953125 109.461914062 190.185546875 110.87890625 250.251953125 112.579101562 c 1x88
 254.822265625 183.635742188 257.107421875 257.740234375 257.107421875 334.890625 c 0
 257.107421875 362.951171875 256.805664062 391.413085938 256.201171875 420.279296875 c 0
 255.634765625 440.6796875 255.208984375 459.946289062 254.926757812 478.079101562 c 0
 254.643554688 496.212890625 254.500976562 509.24609375 254.500976562 517.178710938 c 0
 254.500976562 525.111328125 255.068359375 537.436523438 256.201171875 554.153320312 c 0
 257.333984375 570.87109375 257.901367188 580.645507812 257.901367188 583.478515625 c 0
 232.1171875 584.044921875 208.883789062 584.328125 188.19921875 584.328125 c 0
 167.515625 584.328125 149.381835938 584.044921875 133.798828125 583.477539062 c 0
 119.631835938 583.477539062 108.723632812 586.594726562 101.07421875 592.828125 c 0
 89.791015625 602.020507812 89.5361328125 612.604492188 89.5361328125 618.87109375 c 0
 89.5361328125 628.120117188 92.814453125 636.155273438 99.373046875 642.9765625 c 0
 106.456054688 650.342773438 117.6484375 654.026367188 132.948242188 654.026367188 c 0
 180.173828125 655.348632812 224.125 656.009765625 264.80078125 656.009765625 c 0x94
 346.145507812 656.009765625 414.39453125 653.365234375 469.547851562 648.077148438 c 0
 494.481445312 645.810546875 507.513671875 634.193359375 508.647460938 613.2265625 c 0
 508.647460938 608.125976562 507.939453125 603.16796875 506.522460938 598.3515625 c 0
 505.10546875 593.534179688 502.697265625 588.859375 499.296875 584.326171875 c 0
 495.897460938 579.79296875 491.364257812 576.250976562 485.697265625 573.701171875 c 0
 480.030273438 571.151367188 474.080078125 570.7265625 467.846679688 572.42578125 c 0
 450.846679688 575.258789062 409.197265625 578.375976562 342.897460938 581.776367188 c 1
 342.897460938 577.243164062 342.614257812 564.493164062 342.046875 543.526367188 c 0
 341.48046875 522.559570312 341.197265625 505.842773438 341.197265625 493.375 c 2
 341.197265625 439.825195312 l 2
 341.197265625 416.592773438 341.48046875 393.642578125 342.046875 370.975585938 c 0
 342.424804688 357.568359375 342.61328125 343.05859375 342.61328125 327.448242188 c 0x24
 342.61328125 296.215820312 341.857421875 260.575195312 340.346679688 220.525390625 c 0
 338.079101562 160.458007812 336.946289062 124.758789062 336.946289062 113.42578125 c 1
 361.313476562 113.42578125 389.646484375 113.283203125 421.946289062 113 c 0
 454.24609375 112.717773438 471.529296875 112.575195312 473.795898438 112.575195312 c 0
 486.829101562 112.575195312 496.037109375 109.600585938 501.420898438 103.650390625 c 0
 506.803710938 97.7001953125 509.495117188 89.908203125 509.495117188 80.275390625 c 0
 509.495117188 75.17578125 509.212890625 70.5 508.645507812 66.25 c 0
 508.078125 62 506.37890625 57.75 503.545898438 53.5 c 0
 500.712890625 49.25 496.887695312 46.1337890625 492.0703125 44.150390625 c 0
 487.25390625 42.1669921875 481.161132812 41.7421875 473.794921875 42.875 c 0x68
EndSplineSet
Validated: 1
EndChar

StartChar: J
Encoding: 74 74 42
Width: 548
VWidth: 900
GlyphClass: 2
Flags: HMW
HStem: 20.8991 85.8509 581.9 70.5491
VStem: 81.9286 75.65 305.478 79.8975
LayerCount: 2
Fore
SplineSet
382.825195312 233.399414062 m 0
 378.291992188 182.399414062 371.493164062 141.032226562 362.42578125 109.298828125 c 0
 353.359375 77.56640625 342.309570312 54.8994140625 329.276367188 41.298828125 c 0
 316.243164062 27.69921875 300.943359375 20.8994140625 283.375976562 20.8994140625 c 0
 264.109375 20.8994140625 245.125976562 24.298828125 226.42578125 31.0986328125 c 0
 207.7265625 37.8994140625 191.434570312 46.9658203125 177.55078125 58.298828125 c 0
 163.66796875 69.6318359375 150.776367188 81.95703125 138.875976562 95.2744140625 c 0
 126.9765625 108.590820312 117.059570312 121.908203125 109.125976562 135.224609375 c 0
 101.193359375 148.541992188 94.9599609375 160.44140625 90.4267578125 170.924804688 c 0
 85.8935546875 181.408203125 83.34375 189.765625 82.77734375 195.999023438 c 0
 81.6435546875 201.098632812 81.3603515625 207.19140625 81.927734375 214.274414062 c 0
 82.4951171875 221.357421875 83.76953125 228.015625 85.7529296875 234.248046875 c 0
 87.7353515625 240.481445312 91.1357421875 246.005859375 95.953125 250.823242188 c 0
 100.76953125 255.640625 107.427734375 258.615234375 115.927734375 259.748046875 c 0
 118.950195312 260.297851562 121.831054688 260.572265625 124.5703125 260.572265625 c 0
 133.129882812 260.572265625 140.307617188 257.889648438 146.102539062 252.524414062 c 0
 153.752929688 245.44140625 157.578125 236.515625 157.578125 225.749023438 c 0
 157.578125 219.515625 158.7109375 212.0078125 160.977539062 203.224609375 c 0
 163.245117188 194.44140625 167.069335938 184.2421875 172.453125 172.625 c 0
 177.8359375 161.0078125 184.494140625 150.3828125 192.426757812 140.75 c 0
 200.360351562 131.1171875 211.551757812 123.041992188 226.001953125 116.524414062 c 0
 240.452148438 110.0078125 255.893554688 106.75 272.327148438 106.75 c 0
 292.7265625 106.75 304.34375 156.049804688 307.176757812 254.649414062 c 0
 307.176757812 267.1171875 306.610351562 307.06640625 305.4765625 374.5 c 0
 304.911132812 408.215820312 304.627929688 442.286132812 304.627929688 476.711914062 c 0
 304.627929688 511.13671875 304.911132812 545.916015625 305.4765625 581.049804688 c 1
 267.397460938 582.0703125 231.969726562 582.580078125 199.194335938 582.580078125 c 0
 177.34375 582.580078125 156.670898438 582.353515625 137.177734375 581.899414062 c 0
 123.010742188 581.899414062 112.244140625 585.016601562 104.876953125 591.25 c 0
 94.0576171875 600.404296875 93.763671875 610.931640625 93.763671875 617.293945312 c 0
 93.763671875 626.54296875 97.04296875 634.578125 103.6015625 641.399414062 c 0
 110.684570312 648.765625 121.591796875 652.44921875 136.325195312 652.44921875 c 0
 183.55078125 653.771484375 227.470703125 654.432617188 268.083984375 654.432617188 c 0
 349.302734375 654.432617188 417.299804688 651.788085938 472.076171875 646.5 c 0
 497.008789062 644.233398438 510.326171875 632.616210938 512.026367188 611.649414062 c 0
 512.026367188 606.548828125 511.17578125 601.590820312 509.4765625 596.774414062 c 0
 507.776367188 591.95703125 505.508789062 587.282226562 502.67578125 582.749023438 c 0
 499.842773438 578.215820312 495.592773438 574.673828125 489.92578125 572.124023438 c 0
 484.258789062 569.57421875 477.7421875 569.149414062 470.375 570.848632812 c 0
 450.541992188 573.681640625 420.225585938 576.232421875 379.424804688 578.499023438 c 1
 379.424804688 562.06640625 379.9921875 537.1328125 381.125 503.700195312 c 0
 382.258789062 470.266601562 383.25 439.80859375 384.100585938 412.326171875 c 0
 384.950195312 384.842773438 385.375 354.2421875 385.375 320.525390625 c 0
 385.375 286.80859375 384.525390625 257.766601562 382.825195312 233.399414062 c 0
EndSplineSet
Validated: 1
EndChar

StartChar: K
Encoding: 75 75 43
Width: 548
VWidth: 901
GlyphClass: 2
Flags: HMW
HStem: 34.0608 17.85G 641.936 17G
VStem: 90.2253 80.9749
LayerCount: 2
Fore
SplineSet
178 72.375 m 0
 176.8671875 60.474609375 171.346679688 50.9814453125 161.4296875 43.8984375 c 0
 152.247070312 37.3408203125 141.97265625 34.0615234375 130.604492188 34.0615234375 c 0
 129.694335938 34.0615234375 128.77734375 34.08203125 127.853515625 34.125 c 0
 116.520507812 34.125 107.170898438 37.94921875 99.8037109375 45.599609375 c 0
 93.4189453125 52.23046875 90.2265625 61.095703125 90.2265625 72.1953125 c 0
 90.2265625 73.9033203125 90.3017578125 75.6630859375 90.453125 77.4755859375 c 0
 91.7275390625 96.1748046875 92.365234375 127.703125 92.365234375 172.059570312 c 0
 92.365234375 186.84765625 92.294921875 203.060546875 92.15234375 220.69921875 c 0
 91.5859375 291.25 90.1689453125 363.924804688 87.90234375 438.724609375 c 0
 86.7685546875 474.991210938 86.2021484375 499.5 86.2021484375 512.25 c 0
 86.2021484375 525 86.626953125 543.416992188 87.4765625 567.5 c 0
 88.3271484375 591.583007812 88.751953125 606.741210938 88.751953125 612.973632812 c 0
 89.318359375 628.2734375 93.568359375 639.749023438 101.501953125 647.3984375 c 0
 109.434570312 655.048828125 119.3515625 658.874023438 131.251953125 658.874023438 c 0
 132.17578125 658.916015625 133.087890625 658.936523438 133.98828125 658.936523438 c 0
 145.240234375 658.936523438 154.669921875 655.658203125 162.27734375 649.099609375 c 0
 170.495117188 642.016601562 174.602539062 630.82421875 174.602539062 615.524414062 c 0
 174.602539062 601.924804688 174.036132812 572.174804688 172.90234375 526.274414062 c 0
 171.76953125 480.375 171.203125 442.408203125 171.203125 412.375 c 1
 191.602539062 432.208007812 222.203125 462.241210938 263.002929688 502.473632812 c 0
 303.802734375 542.70703125 336.385742188 574.58203125 360.752929688 598.098632812 c 0
 385.120117188 621.616210938 400.703125 636.208007812 407.502929688 641.875 c 0
 415.435546875 649.241210938 423.0859375 654.19921875 430.453125 656.75 c 0
 437.819335938 659.299804688 444.194335938 659.866210938 449.578125 658.44921875 c 0
 454.9609375 657.033203125 459.918945312 654.057617188 464.452148438 649.524414062 c 0
 470.8359375 642.649414062 474.028320312 635.029296875 474.028320312 626.6640625 c 0
 474.028320312 615.724609375 468.569335938 603.51171875 457.651367188 590.024414062 c 0
 449.151367188 579.82421875 419.118164062 548.799804688 367.55078125 496.94921875 c 0
 315.984375 445.099609375 270.083984375 399.908203125 229.850585938 361.375 c 1
 249.118164062 340.974609375 281.842773438 309.099609375 328.026367188 265.75 c 0
 374.208984375 222.399414062 414.30078125 184.291992188 448.30078125 151.424804688 c 0
 482.30078125 118.557617188 501.284179688 97.875 505.250976562 89.375 c 0
 506.951171875 83.9912109375 507.80078125 78.890625 507.80078125 74.07421875 c 0
 507.80078125 69.2568359375 506.951171875 64.7236328125 505.250976562 60.4736328125 c 0
 501.850585938 51.9736328125 496.750976562 45.45703125 489.951171875 40.923828125 c 0
 482.916992188 36.166015625 475.920898438 33.787109375 468.962890625 33.787109375 c 0
 456.860351562 33.787109375 444.874023438 40.982421875 433 55.375 c 0
 427.333007812 62.7412109375 407.075195312 82.2919921875 372.225585938 114.024414062 c 0
 337.375 145.7578125 299.833007812 180.75 259.600585938 219 c 0
 219.3671875 257.25 189.900390625 287.708007812 171.200195312 310.375 c 1
 171.200195312 293.375 l 2
 171.200195312 283.741210938 173.466796875 210.07421875 178 72.375 c 0
EndSplineSet
Validated: 1
EndChar

StartChar: L
Encoding: 76 76 44
Width: 548
VWidth: 901
GlyphClass: 2
Flags: HMW
HStem: 39.0756 73.8785
VStem: 86.1782 87.5517 111.508 77.9468
LayerCount: 2
Fore
SplineSet
471.229492188 60.330078125 m 0xc0
 432.697265625 52.962890625 374.329101562 47.5751953125 296.12890625 44.1748046875 c 0
 217.928710938 40.7744140625 160.412109375 39.0751953125 123.579101562 39.0751953125 c 0
 112.24609375 39.0751953125 102.895507812 42.8994140625 95.529296875 50.5498046875 c 0
 89.14453125 57.1806640625 85.951171875 66.0458984375 85.951171875 77.1455078125 c 0
 85.951171875 78.8525390625 86.02734375 80.6123046875 86.177734375 82.42578125 c 0xc0
 86.177734375 86.958984375 89.4365234375 119.400390625 95.953125 179.750976562 c 0
 102.469726562 240.100585938 107.145507812 298.325195312 109.978515625 354.42578125 c 0
 110.998046875 369.725585938 111.5078125 392.674804688 111.5078125 423.274414062 c 0
 111.5078125 443.673828125 111.28125 467.474609375 110.828125 494.67578125 c 0
 109.6953125 562.67578125 109.127929688 599.508789062 109.127929688 605.17578125 c 0
 109.6953125 620.475585938 114.086914062 632.092773438 122.303710938 640.025390625 c 0
 130.520507812 647.958984375 140.295898438 651.92578125 151.62890625 651.92578125 c 0
 152.552734375 651.967773438 153.46484375 651.98828125 154.366210938 651.98828125 c 0
 165.6171875 651.98828125 175.046875 648.709960938 182.655273438 642.151367188 c 0
 190.872070312 635.068359375 194.979492188 623.875976562 194.979492188 608.576171875 c 0
 194.979492188 592.143554688 194.413085938 569.760742188 193.280273438 541.427734375 c 0
 192.146484375 513.09375 190.872070312 477.39453125 189.455078125 434.327148438 c 0xa0
 188.038085938 391.260742188 186.762695312 353.860351562 185.629882812 322.126953125 c 0
 185.0625 298.327148438 182.9375 263.760742188 179.254882812 218.427734375 c 0
 175.572265625 173.09375 173.729492188 137.9609375 173.729492188 113.028320312 c 1
 177.870117188 112.979492188 182.069335938 112.954101562 186.328125 112.954101562 c 0
 231.025390625 112.954101562 282.217773438 115.670898438 339.905273438 121.103515625 c 0
 403.087890625 127.052734375 445.163085938 132.861328125 466.129882812 138.528320312 c 0
 472.9296875 140.228515625 479.021484375 139.9453125 484.405273438 137.677734375 c 0
 489.788085938 135.411132812 494.038085938 132.010742188 497.155273438 127.478515625 c 0
 500.271484375 122.9453125 502.822265625 117.987304688 504.8046875 112.603515625 c 0
 506.788085938 107.220703125 507.780273438 102.262695312 507.780273438 97.7294921875 c 0
 507.780273438 87.529296875 505.229492188 79.3125 500.129882812 73.080078125 c 0
 495.030273438 66.8466796875 485.396484375 62.5966796875 471.229492188 60.330078125 c 0xc0
EndSplineSet
Validated: 1
EndChar

StartChar: M
Encoding: 77 77 45
Width: 548
VWidth: 902
GlyphClass: 2
Flags: HMW
HStem: 43.5819 17.85G<101.501 107.168>
VStem: 70.8994 70.5508 251.101 89.2492
LayerCount: 2
Fore
SplineSet
141.450195312 102.2265625 m 0
 141.48828125 101.018554688 141.508789062 99.826171875 141.508789062 98.6513671875 c 0
 141.508789062 82.2041015625 137.8046875 69.0908203125 130.400390625 59.306640625 c 0
 122.466796875 48.82421875 112.833984375 43.58203125 101.500976562 43.58203125 c 0
 81.1005859375 44.1484375 70.9013671875 65.1162109375 70.9013671875 106.482421875 c 0
 70.9013671875 113.282226562 71.7509765625 124.899414062 73.451171875 141.333007812 c 0
 75.1513671875 157.765625 77.2763671875 179.298828125 79.826171875 205.931640625 c 0
 82.3759765625 232.564453125 84.5009765625 255.797851562 86.201171875 275.630859375 c 0
 86.767578125 282.430664062 87.6181640625 292.9140625 88.7509765625 307.081054688 c 0
 92.1513671875 349.013671875 94.8427734375 381.739257812 96.826171875 405.255859375 c 0
 98.8095703125 428.7734375 101.784179688 458.09765625 105.750976562 493.231445312 c 0
 109.717773438 528.364257812 113.259765625 555.989257812 116.376953125 576.106445312 c 0
 119.494140625 596.22265625 123.318359375 610.248046875 127.8515625 618.180664062 c 0
 133.518554688 630.081054688 142.161132812 638.72265625 153.77734375 644.106445312 c 0
 163.374023438 648.552734375 172.680664062 650.776367188 181.698242188 650.776367188 c 0
 183.595703125 650.776367188 185.48046875 650.677734375 187.352539062 650.481445312 c 0
 212.852539062 650.481445312 228.719726562 639.998046875 234.953125 619.03125 c 0
 241.752929688 594.09765625 249.120117188 552.873046875 257.052734375 495.356445312 c 0
 264.985351562 437.838867188 273.060546875 372.247070312 281.27734375 298.580078125 c 0
 289.495117188 224.913085938 295.302734375 176.180664062 298.703125 152.379882812 c 1
 304.370117188 232.280273438 310.88671875 304.247070312 318.25390625 368.280273438 c 0
 323.353515625 415.313476562 330.295898438 462.629882812 339.078125 510.23046875 c 0
 347.861328125 557.830078125 355.653320312 594.096679688 362.453125 619.030273438 c 0
 364.720703125 627.530273438 369.395507812 634.471679688 376.478515625 639.85546875 c 0
 383.561523438 645.23828125 391.069335938 648.49609375 399.002929688 649.62890625 c 0
 404.290039062 650.384765625 409.200195312 650.762695312 413.732421875 650.762695312 c 0
 416 650.762695312 418.173828125 650.66796875 420.251953125 650.478515625 c 2
 423.65234375 650.478515625 l 1
 435.126953125 650.478515625 l 2
 438.244140625 650.478515625 442.494140625 649.770507812 447.876953125 648.353515625 c 0
 453.259765625 646.936523438 457.65234375 645.094726562 461.051757812 642.828125 c 0
 464.452148438 640.560546875 467.568359375 637.018554688 470.40234375 632.202148438 c 0
 473.235351562 627.384765625 475.217773438 621.577148438 476.350585938 614.77734375 c 0
 478.618164062 597.77734375 485.134765625 514.759765625 495.90234375 365.7265625 c 0
 506.668945312 216.693359375 514.6015625 132.543945312 519.702148438 113.27734375 c 0
 521.96875 103.5625 523.1015625 94.8662109375 523.1015625 87.1865234375 c 0
 523.1015625 67.9892578125 516.018554688 55.15234375 501.8515625 48.67578125 c 0
 496.9296875 46.6044921875 492.006835938 45.568359375 487.084960938 45.568359375 c 2
 469.549804688 49.9521484375 l 2
 458.783203125 55.3349609375 450.850585938 67.0927734375 445.75 85.2255859375 c 0
 433.850585938 123.193359375 423.3671875 288.66015625 414.299804688 581.626953125 c 1
 397.8671875 499.459960938 387.100585938 424.66015625 382 357.2265625 c 0
 376.900390625 292.626953125 369.958007812 231.28515625 361.174804688 173.202148438 c 0
 352.392578125 115.119140625 345.450195312 79.560546875 340.350585938 66.52734375 c 0
 334.1171875 52.927734375 318.25 46.1279296875 292.75 46.1279296875 c 0
 291.333007812 46.0576171875 289.94921875 46.021484375 288.598632812 46.021484375 c 0
 279.147460938 46.021484375 271.323242188 47.7568359375 265.125976562 51.2275390625 c 0
 258.04296875 55.1943359375 253.368164062 60.861328125 251.100585938 68.228515625 c 0
 244.30078125 95.4287109375 232.967773438 157.903320312 217.100585938 255.653320312 c 0
 201.234375 353.403320312 186.784179688 447.045898438 173.750976562 536.578125 c 1
 172.05078125 518.4453125 170.493164062 498.045898438 169.076171875 475.37890625 c 0
 167.659179688 452.711914062 166.383789062 433.01953125 165.250976562 416.302734375 c 0
 164.118164062 399.5859375 162.276367188 374.793945312 159.725585938 341.926757812 c 0
 157.17578125 309.059570312 155.333984375 284.126953125 154.201171875 267.126953125 c 0
 153.068359375 243.327148438 151.368164062 218.818359375 149.100585938 193.6015625 c 0
 146.833984375 168.384765625 144.9921875 148.551757812 143.575195312 134.1015625 c 0
 142.158203125 119.65234375 141.450195312 109.02734375 141.450195312 102.2265625 c 0
EndSplineSet
Validated: 1
EndChar

StartChar: N
Encoding: 78 78 46
Width: 548
VWidth: 901
GlyphClass: 2
Flags: HMW
HStem: 39.8158 17.85G
VStem: 87.9145 70.3357 427.421 78.6919 435.565 70.703
LayerCount: 2
Fore
SplineSet
443.213867188 39.916015625 m 0xd0
 441.9453125 39.849609375 440.703125 39.8154296875 439.485351562 39.8154296875 c 0
 430.369140625 39.8154296875 422.684570312 41.6884765625 416.436523438 45.4384765625 c 0
 409.353515625 49.6884765625 404.395507812 55.49609375 401.561523438 62.86328125 c 0
 396.461914062 74.1962890625 382.862304688 99.1298828125 360.76171875 137.662109375 c 0
 338.662109375 176.1953125 315.853515625 216.287109375 292.336914062 257.9375 c 0
 268.8203125 299.587890625 244.169921875 346.1953125 218.38671875 397.762695312 c 0
 192.603515625 449.329101562 173.196289062 493.24609375 160.163085938 529.513671875 c 1
 162.8828125 480.099609375 164.2421875 433.40625 164.2421875 389.432617188 c 0
 164.2421875 378.439453125 164.158203125 367.616210938 163.98828125 356.962890625 c 0
 163.137695312 303.6953125 161.86328125 249.4375 160.163085938 194.1875 c 0
 158.887695312 152.751953125 158.25 123.506835938 158.25 106.454101562 c 0
 158.25 99.34765625 158.51953125 90.0654296875 158.51953125 89.8994140625 c 0
 158.51953125 73.5751953125 154.817382812 61.4462890625 147.413085938 53.513671875 c 0
 139.9765625 45.544921875 131.044921875 41.560546875 120.620117188 41.560546875 c 0
 119.924804688 41.560546875 119.22265625 41.578125 118.513671875 41.61328125 c 0
 106.61328125 41.61328125 98.5390625 46.4306640625 94.2890625 56.0634765625 c 0
 90.0390625 65.6962890625 87.9140625 79.86328125 87.9140625 98.5634765625 c 0
 87.9140625 109.896484375 88.763671875 153.813476562 90.4638671875 230.313476562 c 0
 92.1640625 306.813476562 93.296875 373.680664062 93.86328125 430.913085938 c 0
 94.005859375 445.22265625 94.076171875 459.390625 94.076171875 473.41796875 c 0
 94.076171875 515.491210938 93.4384765625 556.290039062 92.1640625 595.814453125 c 0
 92.08203125 597.43359375 92.0419921875 599.018554688 92.0419921875 600.568359375 c 0
 92.0419921875 609.865234375 93.4990234375 617.913085938 96.4140625 624.712890625 c 0
 99.8134765625 632.645507812 104.630859375 638.454101562 110.86328125 642.13671875 c 0
 117.096679688 645.819335938 123.61328125 648.370117188 130.4140625 649.787109375 c 0
 137.213867188 651.204101562 144.581054688 651.345703125 152.513671875 650.212890625 c 0
 176.880859375 650.212890625 192.180664062 639.729492188 198.4140625 618.762695312 c 0
 210.313476562 581.362304688 243.180664062 512.512695312 297.013671875 412.212890625 c 0
 350.846679688 311.912109375 396.463867188 230.879882812 433.86328125 169.112304688 c 1
 435.375 204.627929688 436.130859375 250.913085938 436.130859375 307.967773438 c 0
 436.130859375 336.484375 435.942382812 367.69140625 435.564453125 401.588867188 c 0xd0
 434.431640625 503.305664062 431.881835938 570.313476562 427.9140625 602.61328125 c 0
 427.5859375 605.245117188 427.421875 607.797851562 427.421875 610.270507812 c 0
 427.421875 620.575195312 430.27734375 629.498046875 435.990234375 637.038085938 c 0
 443.073242188 646.388671875 452.28125 651.063476562 463.614257812 651.063476562 c 0
 469.84765625 651.063476562 475.23046875 650.35546875 479.763671875 648.938476562 c 0
 484.296875 647.521484375 487.838867188 645.821289062 490.388671875 643.838867188 c 0
 492.938476562 641.85546875 495.063476562 638.59765625 496.763671875 634.064453125 c 0
 498.463867188 629.53125 499.73828125 625.422851562 500.588867188 621.740234375 c 0
 501.438476562 618.056640625 502.430664062 612.249023438 503.563476562 604.315429688 c 0
 504.696289062 595.249023438 505.546875 549.774414062 506.11328125 467.890625 c 0xe0
 506.216796875 453 506.267578125 438.01171875 506.267578125 422.923828125 c 0
 506.267578125 355.045898438 505.224609375 285.176757812 503.138671875 213.315429688 c 0
 500.588867188 125.482421875 496.196289062 74.765625 489.963867188 61.166015625 c 0
 484.296875 46.9990234375 468.713867188 39.916015625 443.213867188 39.916015625 c 0xd0
EndSplineSet
Validated: 1
EndChar

StartChar: O
Encoding: 79 79 47
Width: 548
VWidth: 902
GlyphClass: 2
Flags: HMW
HStem: 31.6498 71.3983 593.497 68.8509
VStem: 88.7136 81.9277 423.189 81.6547
LayerCount: 2
Fore
SplineSet
268.9140625 31.6494140625 m 0
 233.78125 32.216796875 202.331054688 42.8388671875 174.564453125 63.521484375 c 0
 146.797851562 84.2041015625 125.405273438 111.971679688 110.388671875 146.821289062 c 0
 95.91796875 180.404296875 88.6826171875 217.010742188 88.6826171875 256.64453125 c 0
 88.6826171875 258.141601562 88.693359375 259.642578125 88.7138671875 261.147460938 c 2
 88.7138671875 275.59765625 l 2
 88.7138671875 301.09765625 88.85546875 321.497070312 89.138671875 336.796875 c 0
 89.421875 352.09765625 90.5546875 372.497070312 92.5380859375 397.997070312 c 0
 94.5205078125 423.497070312 97.9208984375 447.72265625 102.73828125 470.671875 c 0
 107.5546875 493.622070312 113.646484375 515.296875 121.013671875 535.697265625 c 0
 135.180664062 572.530273438 160.397460938 602.84765625 196.6640625 626.647460938 c 0
 232.931640625 650.447265625 273.1640625 662.34765625 317.364257812 662.34765625 c 0
 340.03125 662.34765625 361.848632812 657.955078125 382.815429688 649.171875 c 0
 403.782226562 640.389648438 422.482421875 627.78125 438.915039062 611.34765625 c 0
 455.348632812 594.915039062 469.08984375 573.948242188 480.140625 548.448242188 c 0
 491.190429688 522.948242188 498.131835938 494.331054688 500.96484375 462.59765625 c 0
 503.232421875 434.264648438 504.506835938 403.948242188 504.790039062 371.6484375 c 0
 504.826171875 367.614257812 504.84375 363.573242188 504.84375 359.525390625 c 0
 504.84375 331.16796875 503.975585938 302.483398438 502.240234375 273.473632812 c 0
 500.256835938 240.32421875 496.432617188 214.116210938 490.765625 194.848632812 c 0
 483.3984375 168.215820312 474.331054688 145.265625 463.564453125 125.999023438 c 0
 452.797851562 106.732421875 440.897460938 91.0068359375 427.864257812 78.82421875 c 0
 414.831054688 66.640625 399.814453125 57.0078125 382.814453125 49.9248046875 c 0
 365.814453125 42.841796875 348.389648438 38.0244140625 330.5390625 35.474609375 c 0
 312.689453125 32.9248046875 292.147460938 31.6494140625 268.9140625 31.6494140625 c 0
268.9140625 103.046875 m 0
 284.21484375 103.046875 298.662109375 104.889648438 312.26171875 108.572265625 c 0
 325.862304688 112.254882812 339.178710938 118.205078125 352.211914062 126.421875 c 0
 365.245117188 134.639648438 376.862304688 145.546875 387.061523438 159.147460938 c 0
 397.26171875 172.747070312 405.1953125 188.614257812 410.862304688 206.747070312 c 0
 413.12890625 214.114257812 415.395507812 231.114257812 417.663085938 257.747070312 c 0
 419.9296875 284.379882812 421.771484375 316.11328125 423.188476562 352.946289062 c 0
 423.60546875 363.780273438 423.813476562 374.564453125 423.813476562 385.299804688 c 0
 423.813476562 411.064453125 422.61328125 436.546875 420.213867188 461.74609375 c 0
 416.813476562 499.146484375 404.771484375 530.454101562 384.088867188 555.671875 c 0
 363.405273438 580.888671875 338.047851562 593.49609375 308.014648438 593.49609375 c 0
 277.4140625 593.49609375 251.772460938 582.3046875 231.08984375 559.921875 c 0
 210.40625 537.538085938 195.53125 506.23046875 186.46484375 465.997070312 c 0
 175.916015625 420.446289062 170.641601562 367.796875 170.641601562 308.045898438 c 0
 170.641601562 297.180664062 170.815429688 286.081054688 171.1640625 274.74609375 c 0
 171.731445312 256.61328125 173.2890625 239.896484375 175.83984375 224.596679688 c 0
 178.389648438 209.296875 181.931640625 193.99609375 186.46484375 178.696289062 c 0
 190.997070312 163.396484375 196.947265625 150.221679688 204.314453125 139.171875 c 0
 211.681640625 128.12109375 220.889648438 119.338867188 231.939453125 112.821289062 c 0
 242.989257812 106.3046875 255.314453125 103.046875 268.9140625 103.046875 c 0
EndSplineSet
Validated: 1
EndChar

StartChar: P
Encoding: 80 80 48
Width: 548
VWidth: 901
GlyphClass: 2
Flags: HMW
HStem: 35.679 17.85G 247.395 69.6468 587.397 68.8483
VStem: 105.457 80.1861 109.772 86.9669 419.39 78.2025
LayerCount: 2
Fore
SplineSet
196.73828125 70.3876953125 m 0xec
 196.73828125 59.40625 192.047851562 50.8388671875 182.666992188 44.673828125 c 0
 173.543945312 38.677734375 163.340820312 35.6806640625 152.059570312 35.6806640625 c 0
 151.078125 35.6806640625 150.088867188 35.703125 149.090820312 35.7490234375 c 0
 137.19140625 35.7490234375 127.416015625 39.291015625 119.765625 46.3740234375 c 0
 113.102539062 52.54296875 109.771484375 61.18359375 109.771484375 72.296875 c 0xec
 109.771484375 73.943359375 109.844726562 75.642578125 109.991210938 77.3974609375 c 0
 110.557617188 86.46484375 110.840820312 99.9228515625 110.840820312 117.772460938 c 0
 110.840820312 135.623046875 110.69921875 157.72265625 110.416015625 184.073242188 c 0
 110.1328125 210.422851562 109.708007812 235.922851562 109.140625 260.573242188 c 0
 108.57421875 285.22265625 107.866210938 315.397460938 107.015625 351.09765625 c 0
 106.166015625 386.797851562 105.741210938 416.547851562 105.741210938 440.34765625 c 0
 105.551757812 452.630859375 105.45703125 466.239257812 105.45703125 481.168945312 c 0xf4
 105.45703125 511.008789062 105.834960938 546.134765625 106.58984375 586.546875 c 0
 103.756835938 589.379882812 102.057617188 590.796875 101.490234375 590.796875 c 0
 96.95703125 597.596679688 95.3994140625 604.5390625 96.81640625 611.622070312 c 0
 98.2333984375 618.705078125 101.349609375 625.080078125 106.166992188 630.747070312 c 0
 110.983398438 636.4140625 116.225585938 639.813476562 121.892578125 640.947265625 c 0
 142.29296875 645.48046875 172.184570312 649.163085938 211.567382812 651.99609375 c 0
 250.951171875 654.829101562 278.576171875 656.24609375 294.442382812 656.24609375 c 0
 332.975585938 656.24609375 367.400390625 649.446289062 397.717773438 635.845703125 c 0
 428.034179688 622.24609375 452.118164062 601.704101562 469.967773438 574.220703125 c 0
 487.817382812 546.73828125 497.025390625 514.012695312 497.592773438 476.045898438 c 0
 497.592773438 444.313476562 492.350585938 414.420898438 481.868164062 386.37109375 c 0
 471.384765625 358.321289062 457.217773438 334.095703125 439.368164062 313.696289062 c 0
 421.517578125 293.295898438 399.559570312 277.146484375 373.493164062 265.24609375 c 0
 347.42578125 253.345703125 319.092773438 247.396484375 288.493164062 247.396484375 c 0
 244.29296875 247.396484375 209.442382812 250.512695312 183.942382812 256.74609375 c 1
 185.076171875 232.946289062 186.493164062 210.137695312 188.192382812 188.321289062 c 0
 189.892578125 166.50390625 191.592773438 143.836914062 193.29296875 120.3203125 c 0
 195.217773438 93.6875 196.73828125 72.6494140625 196.73828125 70.3876953125 c 0xec
294.44140625 587.399414062 m 0
 274.608398438 587.399414062 238.91015625 585.130859375 187.34375 580.59765625 c 1
 187.34375 569.264648438 186.776367188 548.297851562 185.643554688 517.698242188 c 0xf4
 184.510742188 487.09765625 183.66015625 455.647460938 183.09375 423.34765625 c 0
 182.526367188 391.047851562 182.243164062 359.59765625 182.243164062 328.998046875 c 1
 204.024414062 321.029296875 229.291015625 317.044921875 258.043945312 317.044921875 c 0
 259.9609375 317.044921875 261.89453125 317.0625 263.84375 317.09765625 c 0
 280.276367188 317.09765625 295.151367188 318.23046875 308.46875 320.498046875 c 0
 321.78515625 322.764648438 333.40234375 325.881835938 343.319335938 329.848632812 c 0
 353.236328125 333.815429688 362.161132812 339.057617188 370.094726562 345.57421875 c 0
 378.02734375 352.091796875 384.685546875 358.608398438 390.068359375 365.125 c 0
 395.451171875 371.642578125 399.984375 379.291992188 403.66796875 388.075195312 c 0
 407.350585938 396.858398438 410.18359375 404.791015625 412.166992188 411.874023438 c 0
 414.150390625 418.958007812 415.708007812 427.174804688 416.840820312 436.524414062 c 0
 417.973632812 445.874023438 418.682617188 453.524414062 418.96484375 459.474609375 c 0
 419.248046875 465.424804688 419.390625 472.649414062 419.390625 481.149414062 c 0
 419.390625 497.016601562 416.415039062 511.32421875 410.46484375 524.07421875 c 0
 404.515625 536.82421875 397.1484375 547.024414062 388.365234375 554.674804688 c 0
 379.58203125 562.32421875 369.524414062 568.69921875 358.19140625 573.799804688 c 0
 346.858398438 578.899414062 335.950195312 582.44140625 325.466796875 584.424804688 c 0
 314.983398438 586.407226562 304.641601562 587.399414062 294.44140625 587.399414062 c 0
EndSplineSet
Validated: 1
EndChar

